STARTFONT 2.1
FONT -FontForge-Roboto SemiCondensed Medium-Medium-R-Condensed---20-190-75-75-P-106-ISO10646-1
SIZE 19 75 75
FONTBOUNDINGBOX 36 26 -14 -5
COMMENT "Generated by fontforge, http://fontforge.sourceforge.net"
COMMENT "Copyright 2011 The Roboto Project Authors (https://github.com/googlefonts/roboto-classic)"
STARTPROPERTIES 41
FOUNDRY "FontForge"
FAMILY_NAME "Roboto SemiCondensed Medium"
WEIGHT_NAME "Medium"
SLANT "R"
SETWIDTH_NAME "Condensed"
ADD_STYLE_NAME ""
PIXEL_SIZE 20
POINT_SIZE 190
RESOLUTION_X 75
RESOLUTION_Y 75
SPACING "P"
AVERAGE_WIDTH 106
CHARSET_REGISTRY "ISO10646"
CHARSET_ENCODING "1"
FONTNAME_REGISTRY ""
CHARSET_COLLECTIONS "ISO8859-2 ISO8859-5 ISO8859-7 ISO8859-9 ISO8859-4 ISO10646-1"
FONT_NAME "RobotoSemiCondensed-Medium"
FACE_NAME "Roboto SemiCondensed Medium"
COPYRIGHT "Copyright 2011 The Roboto Project Authors (https://github.com/googlefonts/roboto-classic)"
FONT_VERSION "3.009; 2024"
FONT_ASCENT 15
FONT_DESCENT 5
UNDERLINE_POSITION -2
UNDERLINE_THICKNESS 1
X_HEIGHT 10
CAP_HEIGHT 13
DEFAULT_CHAR 1
RAW_ASCENT 750
RAW_DESCENT 250
NORM_SPACE 5
RELATIVE_WEIGHT 50
RELATIVE_SETWIDTH 40
SUPERSCRIPT_X 0
SUPERSCRIPT_Y 9
SUPERSCRIPT_SIZE 12
SUBSCRIPT_X 0
SUBSCRIPT_Y 2
SUBSCRIPT_SIZE 12
FIGURE_WIDTH 11
AVG_LOWERCASE_WIDTH 104
AVG_UPPERCASE_WIDTH 124
ENDPROPERTIES
CHARS 1323
STARTCHAR uni0000
ENCODING 0
SWIDTH 0 0
DWIDTH 0 0
BBX 1 1 0 0
BITMAP
00
ENDCHAR
STARTCHAR uni0002
ENCODING 2
SWIDTH 0 0
DWIDTH 0 0
BBX 1 1 0 0
BITMAP
00
ENDCHAR
STARTCHAR uni000D
ENCODING 13
SWIDTH 239 0
DWIDTH 5 0
BBX 1 1 0 0
BITMAP
00
ENDCHAR
STARTCHAR space
ENCODING 32
SWIDTH 239 0
DWIDTH 5 0
BBX 1 1 0 0
BITMAP
00
ENDCHAR
STARTCHAR exclam
ENCODING 33
SWIDTH 259 0
DWIDTH 5 0
BBX 3 14 1 0
BITMAP
E0
E0
E0
60
60
60
60
60
60
00
00
60
E0
60
ENDCHAR
STARTCHAR quotedbl
ENCODING 34
SWIDTH 319 0
DWIDTH 6 0
BBX 5 5 1 10
BITMAP
D8
D8
D0
90
90
ENDCHAR
STARTCHAR numbersign
ENCODING 35
SWIDTH 569 0
DWIDTH 11 0
BBX 10 14 1 0
BITMAP
0980
1900
1900
7FC0
7FC0
1300
1300
3200
3200
FF80
FF80
2600
2600
6400
ENDCHAR
STARTCHAR dollar
ENCODING 36
SWIDTH 534 0
DWIDTH 11 0
BBX 9 18 1 -2
BITMAP
0800
0800
3E00
7F00
6300
E380
6380
7000
3C00
1F00
0700
C380
C380
E380
7F00
3E00
0800
0800
ENDCHAR
STARTCHAR percent
ENCODING 37
SWIDTH 686 0
DWIDTH 14 0
BBX 12 14 1 0
BITMAP
7000
D800
CC80
CD80
CD00
DB00
7600
05E0
0DB0
0B30
1B30
3330
01B0
01E0
ENDCHAR
STARTCHAR ampersand
ENCODING 38
SWIDTH 602 0
DWIDTH 12 0
BBX 10 14 1 0
BITMAP
3C00
7E00
6300
6300
6600
3E00
3800
7CC0
ECC0
C6C0
C780
E380
7FC0
3CC0
ENDCHAR
STARTCHAR quotesingle
ENCODING 39
SWIDTH 167 0
DWIDTH 3 0
BBX 2 5 1 10
BITMAP
C0
C0
C0
80
80
ENDCHAR
STARTCHAR parenleft
ENCODING 40
SWIDTH 332 0
DWIDTH 7 0
BBX 5 21 1 -5
BITMAP
08
18
30
30
60
60
60
C0
C0
C0
C0
C0
C0
C0
60
60
60
30
30
18
08
ENDCHAR
STARTCHAR parenright
ENCODING 41
SWIDTH 335 0
DWIDTH 7 0
BBX 4 21 1 -5
BITMAP
80
C0
C0
60
60
30
30
30
30
30
30
30
30
30
30
30
60
60
C0
C0
80
ENDCHAR
STARTCHAR asterisk
ENCODING 42
SWIDTH 443 0
DWIDTH 9 0
BBX 9 8 0 6
BITMAP
0800
0800
4900
FF80
1C00
3400
3600
2200
ENDCHAR
STARTCHAR plus
ENCODING 43
SWIDTH 520 0
DWIDTH 10 0
BBX 9 10 1 2
BITMAP
1800
1800
1800
1800
FF80
FF80
1800
1800
1800
1800
ENDCHAR
STARTCHAR comma
ENCODING 44
SWIDTH 223 0
DWIDTH 4 0
BBX 2 6 1 -4
BITMAP
C0
C0
C0
C0
C0
80
ENDCHAR
STARTCHAR hyphen
ENCODING 45
SWIDTH 324 0
DWIDTH 7 0
BBX 5 2 1 5
BITMAP
F8
F8
ENDCHAR
STARTCHAR period
ENCODING 46
SWIDTH 278 0
DWIDTH 6 0
BBX 3 3 1 0
BITMAP
40
E0
60
ENDCHAR
STARTCHAR slash
ENCODING 47
SWIDTH 370 0
DWIDTH 7 0
BBX 7 15 0 -1
BITMAP
06
04
0C
0C
08
18
18
10
30
30
20
60
60
40
C0
ENDCHAR
STARTCHAR zero
ENCODING 48
SWIDTH 534 0
DWIDTH 11 0
BBX 9 14 1 0
BITMAP
3C00
7F00
6300
E300
C380
C380
C380
C380
C380
C380
E300
6300
7F00
3C00
ENDCHAR
STARTCHAR one
ENCODING 49
SWIDTH 534 0
DWIDTH 11 0
BBX 5 14 2 0
BITMAP
08
78
F8
98
18
18
18
18
18
18
18
18
18
18
ENDCHAR
STARTCHAR two
ENCODING 50
SWIDTH 534 0
DWIDTH 11 0
BBX 9 14 1 0
BITMAP
3E00
7F00
E300
C300
C300
0300
0700
0E00
1C00
1800
3000
6000
FF80
FF80
ENDCHAR
STARTCHAR three
ENCODING 51
SWIDTH 534 0
DWIDTH 11 0
BBX 9 14 1 0
BITMAP
3C00
7F00
E300
C300
0300
0300
1E00
1E00
0300
0380
C380
E300
7F00
3C00
ENDCHAR
STARTCHAR four
ENCODING 52
SWIDTH 534 0
DWIDTH 11 0
BBX 9 14 1 0
BITMAP
0700
0F00
0F00
1F00
1F00
3700
6700
6700
C700
FF80
FF80
0700
0700
0700
ENDCHAR
STARTCHAR five
ENCODING 53
SWIDTH 534 0
DWIDTH 11 0
BBX 9 14 1 0
BITMAP
7F00
7F00
6000
6000
6000
7E00
7F00
2380
0380
0180
E380
6300
7F00
3E00
ENDCHAR
STARTCHAR six
ENCODING 54
SWIDTH 534 0
DWIDTH 11 0
BBX 9 14 1 0
BITMAP
0E00
3E00
7000
6000
6000
FE00
FF00
E380
C380
C180
E380
6300
7F00
1E00
ENDCHAR
STARTCHAR seven
ENCODING 55
SWIDTH 534 0
DWIDTH 11 0
BBX 9 14 1 0
BITMAP
FF80
FF80
0300
0300
0700
0600
0E00
0C00
0C00
1800
1800
3800
3000
7000
ENDCHAR
STARTCHAR eight
ENCODING 56
SWIDTH 534 0
DWIDTH 11 0
BBX 9 14 1 0
BITMAP
3E00
7F00
6300
E300
E300
6300
7E00
7E00
E300
C380
C380
E300
7F00
3E00
ENDCHAR
STARTCHAR nine
ENCODING 57
SWIDTH 534 0
DWIDTH 11 0
BBX 9 14 1 0
BITMAP
3C00
7E00
E700
C300
C300
C380
E380
7F00
3B00
0300
0300
0E00
3C00
3800
ENDCHAR
STARTCHAR colon
ENCODING 58
SWIDTH 259 0
DWIDTH 5 0
BBX 3 11 1 0
BITMAP
40
E0
60
00
00
00
00
00
40
E0
60
ENDCHAR
STARTCHAR semicolon
ENCODING 59
SWIDTH 234 0
DWIDTH 5 0
BBX 3 15 1 -4
BITMAP
40
E0
E0
00
00
00
00
00
00
E0
E0
E0
C0
C0
80
ENDCHAR
STARTCHAR less
ENCODING 60
SWIDTH 477 0
DWIDTH 10 0
BBX 7 9 1 2
BITMAP
02
0E
3E
F0
C0
F0
3E
0E
02
ENDCHAR
STARTCHAR equal
ENCODING 61
SWIDTH 527 0
DWIDTH 11 0
BBX 8 7 1 3
BITMAP
FF
FF
00
00
00
FF
FF
ENDCHAR
STARTCHAR greater
ENCODING 62
SWIDTH 488 0
DWIDTH 10 0
BBX 8 9 1 2
BITMAP
80
F0
7C
1F
03
1F
7C
F0
80
ENDCHAR
STARTCHAR question
ENCODING 63
SWIDTH 460 0
DWIDTH 9 0
BBX 7 14 1 0
BITMAP
7C
FE
C6
C6
06
0E
0C
18
38
30
00
10
38
30
ENDCHAR
STARTCHAR at
ENCODING 64
SWIDTH 832 0
DWIDTH 17 0
BBX 15 18 1 -4
BITMAP
07E0
1E70
3018
200C
63C4
47E4
C666
CC46
CC46
CC46
CC44
CCC4
CFEC
4778
6000
3000
1CC0
0FC0
ENDCHAR
STARTCHAR A
ENCODING 65
SWIDTH 625 0
DWIDTH 13 0
BBX 12 14 0 0
BITMAP
0700
0700
0F00
0F80
0D80
1980
19C0
18C0
38C0
3FE0
7FE0
7060
6070
E030
ENDCHAR
STARTCHAR B
ENCODING 66
SWIDTH 592 0
DWIDTH 12 0
BBX 10 14 1 0
BITMAP
FF00
FF80
E180
E1C0
E180
E180
FF00
FF80
E180
E1C0
E1C0
E1C0
FF80
FF00
ENDCHAR
STARTCHAR C
ENCODING 67
SWIDTH 610 0
DWIDTH 12 0
BBX 10 14 1 0
BITMAP
1F00
3F80
71C0
E0C0
E0C0
C000
C000
C000
C000
E0C0
E0C0
71C0
3F80
1F00
ENDCHAR
STARTCHAR D
ENCODING 68
SWIDTH 610 0
DWIDTH 12 0
BBX 10 14 1 0
BITMAP
FE00
FF00
E380
E1C0
E0C0
E0C0
E0C0
E0C0
E0C0
E0C0
E1C0
E380
FF00
FE00
ENDCHAR
STARTCHAR E
ENCODING 69
SWIDTH 529 0
DWIDTH 11 0
BBX 9 14 1 0
BITMAP
FF80
FF80
E000
E000
E000
E000
FF00
FF00
E000
E000
E000
E000
FF80
FF80
ENDCHAR
STARTCHAR F
ENCODING 70
SWIDTH 514 0
DWIDTH 10 0
BBX 9 14 1 0
BITMAP
FF80
FF80
E000
E000
E000
E000
FF00
FF00
E000
E000
E000
E000
E000
E000
ENDCHAR
STARTCHAR G
ENCODING 71
SWIDTH 634 0
DWIDTH 13 0
BBX 11 14 1 0
BITMAP
1F00
3F80
71C0
E0C0
E0C0
E000
C000
C7E0
E7E0
E0E0
E0E0
70E0
3FC0
1F80
ENDCHAR
STARTCHAR H
ENCODING 72
SWIDTH 663 0
DWIDTH 13 0
BBX 11 14 1 0
BITMAP
E0E0
E0E0
E0E0
E0E0
E0E0
E0E0
FFE0
FFE0
E0E0
E0E0
E0E0
E0E0
E0E0
E0E0
ENDCHAR
STARTCHAR I
ENCODING 73
SWIDTH 271 0
DWIDTH 5 0
BBX 2 14 2 0
BITMAP
C0
C0
C0
C0
C0
C0
C0
C0
C0
C0
C0
C0
C0
C0
ENDCHAR
STARTCHAR J
ENCODING 74
SWIDTH 521 0
DWIDTH 10 0
BBX 8 14 1 0
BITMAP
03
03
03
03
03
03
03
03
03
03
C3
C7
FE
7C
ENDCHAR
STARTCHAR K
ENCODING 75
SWIDTH 590 0
DWIDTH 12 0
BBX 11 14 1 0
BITMAP
E1C0
E180
E380
E700
EE00
EC00
FC00
FE00
F600
E700
E380
E380
E1C0
E0E0
ENDCHAR
STARTCHAR L
ENCODING 76
SWIDTH 508 0
DWIDTH 10 0
BBX 9 14 1 0
BITMAP
E000
E000
E000
E000
E000
E000
E000
E000
E000
E000
E000
E000
FF80
FF80
ENDCHAR
STARTCHAR M
ENCODING 77
SWIDTH 815 0
DWIDTH 16 0
BBX 14 14 1 0
BITMAP
F01C
F03C
F03C
F83C
F86C
F86C
EC6C
ECCC
ECCC
E6CC
E78C
E78C
E38C
E30C
ENDCHAR
STARTCHAR N
ENCODING 78
SWIDTH 662 0
DWIDTH 13 0
BBX 11 14 1 0
BITMAP
E0E0
F0E0
F0E0
F8E0
F8E0
ECE0
EEE0
E6E0
E7E0
E3E0
E3E0
E1E0
E0E0
E0E0
ENDCHAR
STARTCHAR O
ENCODING 79
SWIDTH 645 0
DWIDTH 13 0
BBX 11 14 1 0
BITMAP
1F00
3F80
71C0
E0C0
E0E0
C0E0
C0E0
C0E0
C0E0
E0E0
E0C0
71C0
3F80
1F00
ENDCHAR
STARTCHAR P
ENCODING 80
SWIDTH 600 0
DWIDTH 12 0
BBX 10 14 1 0
BITMAP
FF00
FF80
E1C0
E0C0
E0C0
E0C0
E1C0
FF80
FF00
E000
E000
E000
E000
E000
ENDCHAR
STARTCHAR Q
ENCODING 81
SWIDTH 645 0
DWIDTH 13 0
BBX 11 16 1 -2
BITMAP
1F00
3F80
71C0
E0C0
E0E0
C0E0
C0E0
C0E0
C0E0
E0E0
E0C0
71C0
3F80
1F80
01E0
0040
ENDCHAR
STARTCHAR R
ENCODING 82
SWIDTH 586 0
DWIDTH 12 0
BBX 10 14 1 0
BITMAP
FF00
FF80
E180
E1C0
E1C0
E1C0
E180
FF80
FE00
E700
E380
E380
E1C0
E0C0
ENDCHAR
STARTCHAR S
ENCODING 83
SWIDTH 567 0
DWIDTH 11 0
BBX 10 14 1 0
BITMAP
3E00
7F80
E180
E1C0
E000
7000
3E00
0F00
0380
C1C0
C1C0
E180
7F80
1E00
ENDCHAR
STARTCHAR T
ENCODING 84
SWIDTH 570 0
DWIDTH 11 0
BBX 11 14 0 0
BITMAP
FFE0
FFE0
0E00
0E00
0E00
0E00
0E00
0E00
0E00
0E00
0E00
0E00
0E00
0E00
ENDCHAR
STARTCHAR U
ENCODING 85
SWIDTH 610 0
DWIDTH 12 0
BBX 10 14 1 0
BITMAP
E0C0
E0C0
E0C0
E0C0
E0C0
E0C0
E0C0
E0C0
E0C0
E0C0
E0C0
61C0
7F80
1F00
ENDCHAR
STARTCHAR V
ENCODING 86
SWIDTH 607 0
DWIDTH 12 0
BBX 12 14 0 0
BITMAP
E070
6060
7060
70E0
30C0
30C0
39C0
1980
1980
1F80
0F00
0F00
0F00
0600
ENDCHAR
STARTCHAR W
ENCODING 87
SWIDTH 817 0
DWIDTH 16 0
BBX 15 14 1 0
BITMAP
C30E
C38E
C38C
E78C
E78C
66CC
66DC
6CD8
7CD8
3C58
3C78
3870
3870
3830
ENDCHAR
STARTCHAR X
ENCODING 88
SWIDTH 593 0
DWIDTH 12 0
BBX 10 14 1 0
BITMAP
E1C0
E1C0
7380
3300
3F00
1E00
1E00
1E00
1E00
3F00
7300
7380
E1C0
C1C0
ENDCHAR
STARTCHAR Y
ENCODING 89
SWIDTH 572 0
DWIDTH 11 0
BBX 11 14 0 0
BITMAP
E0E0
60E0
70C0
31C0
3980
1B80
1F00
0F00
0E00
0E00
0E00
0E00
0E00
0E00
ENDCHAR
STARTCHAR Z
ENCODING 90
SWIDTH 564 0
DWIDTH 11 0
BBX 10 14 1 0
BITMAP
FF80
FF80
0380
0300
0600
0E00
0C00
1C00
3800
3000
7000
E000
FFC0
FFC0
ENDCHAR
STARTCHAR bracketleft
ENCODING 91
SWIDTH 264 0
DWIDTH 5 0
BBX 4 19 1 -3
BITMAP
F0
F0
E0
E0
E0
E0
E0
E0
E0
E0
E0
E0
E0
E0
E0
E0
E0
F0
F0
ENDCHAR
STARTCHAR backslash
ENCODING 92
SWIDTH 395 0
DWIDTH 8 0
BBX 8 15 0 -1
BITMAP
E0
60
60
30
30
38
18
18
1C
0C
0C
0E
06
06
03
ENDCHAR
STARTCHAR bracketright
ENCODING 93
SWIDTH 264 0
DWIDTH 5 0
BBX 4 19 0 -3
BITMAP
F0
F0
30
30
30
30
30
30
30
30
30
30
30
30
30
30
30
F0
F0
ENDCHAR
STARTCHAR asciicircum
ENCODING 94
SWIDTH 405 0
DWIDTH 8 0
BBX 6 7 1 7
BITMAP
30
30
78
78
4C
CC
CC
ENDCHAR
STARTCHAR underscore
ENCODING 95
SWIDTH 424 0
DWIDTH 9 0
BBX 8 2 0 -2
BITMAP
FF
FF
ENDCHAR
STARTCHAR grave
ENCODING 96
SWIDTH 320 0
DWIDTH 6 0
BBX 4 3 1 12
BITMAP
E0
60
30
ENDCHAR
STARTCHAR a
ENCODING 97
SWIDTH 506 0
DWIDTH 10 0
BBX 8 11 1 0
BITMAP
3C
7E
E7
03
3F
73
C3
C3
C7
FF
7B
ENDCHAR
STARTCHAR b
ENCODING 98
SWIDTH 528 0
DWIDTH 11 0
BBX 9 15 1 0
BITMAP
E000
E000
E000
E000
FE00
FF00
E300
E380
E380
E380
E380
E380
E300
FF00
DE00
ENDCHAR
STARTCHAR c
ENCODING 99
SWIDTH 491 0
DWIDTH 10 0
BBX 8 11 1 0
BITMAP
3C
7E
E3
C3
C0
C0
C0
C3
E3
7E
3C
ENDCHAR
STARTCHAR d
ENCODING 100
SWIDTH 529 0
DWIDTH 11 0
BBX 8 15 1 0
BITMAP
03
03
03
03
3B
7F
E3
C3
C3
C3
C3
C3
E3
7F
3B
ENDCHAR
STARTCHAR e
ENCODING 101
SWIDTH 504 0
DWIDTH 10 0
BBX 8 11 1 0
BITMAP
3C
7F
E3
C3
FF
FF
C0
C0
E1
7F
3E
ENDCHAR
STARTCHAR f
ENCODING 102
SWIDTH 337 0
DWIDTH 7 0
BBX 7 15 0 0
BITMAP
1E
3E
38
30
FC
FC
30
30
30
30
30
30
30
30
30
ENDCHAR
STARTCHAR g
ENCODING 103
SWIDTH 532 0
DWIDTH 11 0
BBX 8 15 1 -4
BITMAP
3F
7F
E3
C3
C3
C3
C3
C3
E3
7F
3B
03
43
FF
3C
ENDCHAR
STARTCHAR h
ENCODING 104
SWIDTH 521 0
DWIDTH 10 0
BBX 8 15 1 0
BITMAP
C0
C0
C0
C0
DE
FF
E3
C3
C3
C3
C3
C3
C3
C3
C3
ENDCHAR
STARTCHAR i
ENCODING 105
SWIDTH 248 0
DWIDTH 5 0
BBX 3 16 1 0
BITMAP
40
E0
E0
00
00
E0
E0
E0
E0
E0
E0
E0
E0
E0
E0
E0
ENDCHAR
STARTCHAR j
ENCODING 106
SWIDTH 243 0
DWIDTH 5 0
BBX 5 19 -1 -4
BITMAP
38
30
00
00
38
38
38
38
38
38
38
38
38
38
38
38
38
F0
E0
ENDCHAR
STARTCHAR k
ENCODING 107
SWIDTH 493 0
DWIDTH 10 0
BBX 9 15 1 0
BITMAP
E000
E000
E000
E000
E700
E600
EE00
FC00
F800
FC00
EC00
EE00
E600
E700
E380
ENDCHAR
STARTCHAR l
ENCODING 108
SWIDTH 248 0
DWIDTH 5 0
BBX 3 15 1 0
BITMAP
E0
E0
E0
E0
E0
E0
E0
E0
E0
E0
E0
E0
E0
E0
E0
ENDCHAR
STARTCHAR m
ENCODING 109
SWIDTH 809 0
DWIDTH 16 0
BBX 14 11 1 0
BITMAP
DE78
FFFC
E39C
E30C
E30C
E30C
E30C
E30C
E30C
E30C
E30C
ENDCHAR
STARTCHAR n
ENCODING 110
SWIDTH 522 0
DWIDTH 10 0
BBX 8 11 1 0
BITMAP
DE
FF
E3
C3
C3
C3
C3
C3
C3
C3
C3
ENDCHAR
STARTCHAR o
ENCODING 111
SWIDTH 533 0
DWIDTH 11 0
BBX 9 11 1 0
BITMAP
3C00
7F00
E300
C380
C180
C180
C180
C380
E300
7F00
3E00
ENDCHAR
STARTCHAR p
ENCODING 112
SWIDTH 528 0
DWIDTH 11 0
BBX 9 15 1 -4
BITMAP
DE00
FF00
E300
E380
E380
E380
E380
E380
E300
FF00
FE00
E000
E000
E000
E000
ENDCHAR
STARTCHAR q
ENCODING 113
SWIDTH 532 0
DWIDTH 11 0
BBX 8 15 1 -4
BITMAP
3B
7F
E3
C3
C3
C3
C3
C3
E3
7F
3B
03
03
03
03
ENDCHAR
STARTCHAR r
ENCODING 114
SWIDTH 336 0
DWIDTH 7 0
BBX 5 11 1 0
BITMAP
D8
F8
E0
E0
E0
E0
E0
E0
E0
E0
E0
ENDCHAR
STARTCHAR s
ENCODING 115
SWIDTH 484 0
DWIDTH 10 0
BBX 8 11 1 0
BITMAP
3C
7E
C7
C0
F0
7E
0F
07
C7
FE
3C
ENDCHAR
STARTCHAR t
ENCODING 116
SWIDTH 317 0
DWIDTH 6 0
BBX 6 13 0 0
BITMAP
30
30
FC
FC
30
30
30
30
30
30
30
3C
1C
ENDCHAR
STARTCHAR u
ENCODING 117
SWIDTH 521 0
DWIDTH 10 0
BBX 8 11 1 0
BITMAP
C3
C3
C3
C3
C3
C3
C3
C3
E3
7F
3B
ENDCHAR
STARTCHAR v
ENCODING 118
SWIDTH 467 0
DWIDTH 9 0
BBX 9 11 0 0
BITMAP
E180
6380
6300
7300
3300
3600
3600
1E00
1C00
1C00
1C00
ENDCHAR
STARTCHAR w
ENCODING 119
SWIDTH 691 0
DWIDTH 14 0
BBX 13 11 0 0
BITMAP
E318
6318
6718
67B8
77B0
35B0
3CB0
3CF0
3CE0
18E0
1860
ENDCHAR
STARTCHAR x
ENCODING 120
SWIDTH 474 0
DWIDTH 10 0
BBX 8 11 1 0
BITMAP
C7
E6
6E
7C
3C
38
3C
7C
6E
E6
C7
ENDCHAR
STARTCHAR y
ENCODING 121
SWIDTH 460 0
DWIDTH 9 0
BBX 9 15 0 -4
BITMAP
E380
6380
6300
7300
3700
3600
3600
1E00
1C00
1C00
0C00
1800
1800
7800
7000
ENDCHAR
STARTCHAR z
ENCODING 122
SWIDTH 474 0
DWIDTH 10 0
BBX 8 11 1 0
BITMAP
FF
FF
0E
0C
1C
38
30
70
E0
FF
FF
ENDCHAR
STARTCHAR braceleft
ENCODING 123
SWIDTH 317 0
DWIDTH 6 0
BBX 5 20 1 -4
BITMAP
18
38
30
70
60
60
60
60
60
E0
C0
60
60
60
60
60
70
30
38
18
ENDCHAR
STARTCHAR bar
ENCODING 124
SWIDTH 248 0
DWIDTH 5 0
BBX 1 17 2 -3
BITMAP
80
80
80
80
80
80
80
80
80
80
80
80
80
80
80
80
80
ENDCHAR
STARTCHAR braceright
ENCODING 125
SWIDTH 317 0
DWIDTH 6 0
BBX 5 20 1 -4
BITMAP
80
C0
60
60
60
60
60
60
60
38
38
70
60
60
60
60
60
60
C0
80
ENDCHAR
STARTCHAR asciitilde
ENCODING 126
SWIDTH 617 0
DWIDTH 12 0
BBX 10 4 1 4
BITMAP
38C0
7CC0
CFC0
C380
ENDCHAR
STARTCHAR uni00A0
ENCODING 160
SWIDTH 239 0
DWIDTH 5 0
BBX 1 1 0 0
BITMAP
00
ENDCHAR
STARTCHAR exclamdown
ENCODING 161
SWIDTH 258 0
DWIDTH 5 0
BBX 3 15 1 -4
BITMAP
60
E0
60
00
00
60
60
60
60
60
E0
E0
E0
E0
E0
ENDCHAR
STARTCHAR cent
ENCODING 162
SWIDTH 529 0
DWIDTH 11 0
BBX 8 15 1 -2
BITMAP
18
18
3E
7F
63
E3
C0
C0
C0
E3
63
7F
3C
18
18
ENDCHAR
STARTCHAR sterling
ENCODING 163
SWIDTH 553 0
DWIDTH 11 0
BBX 9 14 1 0
BITMAP
1F00
3F80
3180
7180
7000
7000
FE00
FE00
7000
7000
7000
7000
FF80
FF80
ENDCHAR
STARTCHAR currency
ENCODING 164
SWIDTH 702 0
DWIDTH 14 0
BBX 12 12 1 0
BITMAP
CF30
FFF0
70E0
6060
C030
C030
C030
C030
6060
70E0
FFF0
4F30
ENDCHAR
STARTCHAR yen
ENCODING 165
SWIDTH 500 0
DWIDTH 10 0
BBX 10 14 0 0
BITMAP
E1C0
6180
7380
3300
3F00
1E00
1E00
7F80
0C00
7F80
0C00
0C00
0C00
0C00
ENDCHAR
STARTCHAR brokenbar
ENCODING 166
SWIDTH 246 0
DWIDTH 5 0
BBX 3 17 1 -3
BITMAP
E0
E0
E0
E0
E0
E0
E0
00
00
E0
E0
E0
E0
E0
E0
E0
E0
ENDCHAR
STARTCHAR section
ENCODING 167
SWIDTH 583 0
DWIDTH 12 0
BBX 10 19 1 -5
BITMAP
3E00
7F80
E380
E180
E000
7000
7E00
EF80
C380
C1C0
E1C0
7D80
3F00
0780
0180
C180
E180
7F80
3E00
ENDCHAR
STARTCHAR dieresis
ENCODING 168
SWIDTH 445 0
DWIDTH 9 0
BBX 7 2 1 12
BITMAP
C6
C6
ENDCHAR
STARTCHAR copyright
ENCODING 169
SWIDTH 785 0
DWIDTH 16 0
BBX 14 14 1 0
BITMAP
0F80
3860
6030
4798
CCC8
98CC
9804
9804
98CC
CCC8
4798
6030
3860
0F80
ENDCHAR
STARTCHAR ordfeminine
ENCODING 170
SWIDTH 419 0
DWIDTH 8 0
BBX 6 8 1 6
BITMAP
78
6C
0C
7C
4C
CC
7C
7C
ENDCHAR
STARTCHAR guillemotleft
ENCODING 171
SWIDTH 460 0
DWIDTH 9 0
BBX 7 8 1 1
BITMAP
36
64
6C
D8
D8
6C
64
36
ENDCHAR
STARTCHAR logicalnot
ENCODING 172
SWIDTH 519 0
DWIDTH 10 0
BBX 8 4 1 4
BITMAP
FF
FF
03
03
ENDCHAR
STARTCHAR uni00AD
ENCODING 173
SWIDTH 324 0
DWIDTH 7 0
BBX 5 2 1 5
BITMAP
F8
F8
ENDCHAR
STARTCHAR registered
ENCODING 174
SWIDTH 785 0
DWIDTH 16 0
BBX 14 14 1 0
BITMAP
0F80
3860
6030
4F98
C8C8
88CC
88C4
8F84
88CC
C8C8
48D8
6030
3860
0F80
ENDCHAR
STARTCHAR macron
ENCODING 175
SWIDTH 459 0
DWIDTH 9 0
BBX 6 2 2 13
BITMAP
FC
FC
ENDCHAR
STARTCHAR degree
ENCODING 176
SWIDTH 381 0
DWIDTH 8 0
BBX 5 5 1 9
BITMAP
70
D8
C8
D8
70
ENDCHAR
STARTCHAR plusminus
ENCODING 177
SWIDTH 503 0
DWIDTH 10 0
BBX 8 12 1 0
BITMAP
18
18
18
18
FF
FF
18
18
18
00
FF
FF
ENDCHAR
STARTCHAR uni00B2
ENCODING 178
SWIDTH 351 0
DWIDTH 7 0
BBX 5 8 1 6
BITMAP
70
D8
98
18
30
60
C0
F8
ENDCHAR
STARTCHAR uni00B3
ENCODING 179
SWIDTH 351 0
DWIDTH 7 0
BBX 5 8 1 6
BITMAP
70
D8
18
18
30
18
D8
F0
ENDCHAR
STARTCHAR acute
ENCODING 180
SWIDTH 322 0
DWIDTH 6 0
BBX 4 3 1 12
BITMAP
30
60
C0
ENDCHAR
STARTCHAR mu
ENCODING 181
SWIDTH 560 0
DWIDTH 11 0
BBX 9 15 1 -4
BITMAP
E380
E380
E380
E380
E380
E380
E380
E380
E380
FF80
FD80
E000
E000
E000
E000
ENDCHAR
STARTCHAR paragraph
ENCODING 182
SWIDTH 461 0
DWIDTH 9 0
BBX 7 14 1 0
BITMAP
3E
7E
FE
FE
FE
FE
FE
7E
3E
06
06
06
06
06
ENDCHAR
STARTCHAR periodcentered
ENCODING 183
SWIDTH 274 0
DWIDTH 5 0
BBX 3 3 1 6
BITMAP
40
E0
60
ENDCHAR
STARTCHAR cedilla
ENCODING 184
SWIDTH 249 0
DWIDTH 5 0
BBX 3 4 1 -4
BITMAP
C0
60
60
C0
ENDCHAR
STARTCHAR uni00B9
ENCODING 185
SWIDTH 351 0
DWIDTH 7 0
BBX 4 7 1 7
BITMAP
30
F0
30
30
30
30
30
ENDCHAR
STARTCHAR ordmasculine
ENCODING 186
SWIDTH 430 0
DWIDTH 9 0
BBX 6 7 1 7
BITMAP
78
6C
C4
C4
C4
6C
78
ENDCHAR
STARTCHAR guillemotright
ENCODING 187
SWIDTH 460 0
DWIDTH 9 0
BBX 7 8 1 1
BITMAP
C8
4C
66
36
36
66
4C
C8
ENDCHAR
STARTCHAR onequarter
ENCODING 188
SWIDTH 676 0
DWIDTH 14 0
BBX 12 14 1 0
BITMAP
2000
E080
2180
2100
2300
2200
2660
2CE0
09E0
1960
1360
23F0
0060
0060
ENDCHAR
STARTCHAR onehalf
ENCODING 189
SWIDTH 717 0
DWIDTH 14 0
BBX 12 15 1 0
BITMAP
2000
E000
2080
2180
2300
2200
2600
24E0
0DB0
19B0
1030
3060
20C0
0180
01F0
ENDCHAR
STARTCHAR threequarters
ENCODING 190
SWIDTH 742 0
DWIDTH 15 0
BBX 13 15 1 0
BITMAP
7800
D800
0C60
1840
38C0
0C80
DD80
7B30
0270
0670
0CB0
09B0
09F8
0030
0030
ENDCHAR
STARTCHAR questiondown
ENCODING 191
SWIDTH 460 0
DWIDTH 9 0
BBX 8 15 1 -4
BITMAP
18
38
18
00
00
18
38
30
70
E0
C0
C7
C6
FE
7C
ENDCHAR
STARTCHAR Agrave
ENCODING 192
SWIDTH 625 0
DWIDTH 13 0
BBX 12 18 0 0
BITMAP
1C00
0E00
0600
0000
0700
0700
0F00
0F80
0D80
1980
19C0
18C0
38C0
3FE0
7FE0
7060
6070
E030
ENDCHAR
STARTCHAR Aacute
ENCODING 193
SWIDTH 625 0
DWIDTH 13 0
BBX 12 18 0 0
BITMAP
0180
0300
0600
0000
0700
0700
0F00
0F80
0D80
1980
19C0
18C0
38C0
3FE0
7FE0
7060
6070
E030
ENDCHAR
STARTCHAR Acircumflex
ENCODING 194
SWIDTH 625 0
DWIDTH 13 0
BBX 12 18 0 0
BITMAP
0600
0F00
1980
0000
0700
0700
0F00
0F80
0D80
1980
19C0
18C0
38C0
3FE0
7FE0
7060
6070
E030
ENDCHAR
STARTCHAR Atilde
ENCODING 195
SWIDTH 625 0
DWIDTH 13 0
BBX 12 18 0 0
BITMAP
0CC0
1F80
1180
0000
0700
0700
0F00
0F80
0D80
1980
19C0
18C0
38C0
3FE0
7FE0
7060
6070
E030
ENDCHAR
STARTCHAR Adieresis
ENCODING 196
SWIDTH 625 0
DWIDTH 13 0
BBX 12 17 0 0
BITMAP
19C0
18C0
0000
0700
0700
0F00
0F80
0D80
1980
19C0
18C0
38C0
3FE0
7FE0
7060
6070
E030
ENDCHAR
STARTCHAR Aring
ENCODING 197
SWIDTH 625 0
DWIDTH 13 0
BBX 12 19 0 0
BITMAP
0700
0900
0900
0700
0000
0700
0700
0F00
0F80
0D80
1980
19C0
18C0
38C0
3FE0
7FE0
7060
6070
E030
ENDCHAR
STARTCHAR AE
ENCODING 198
SWIDTH 875 0
DWIDTH 18 0
BBX 17 14 0 0
BITMAP
01FF00
01FF00
03E000
03E000
066000
066000
0C7F00
1C7F00
186000
3FE000
3FE000
706000
707F80
E07F80
ENDCHAR
STARTCHAR Ccedilla
ENCODING 199
SWIDTH 610 0
DWIDTH 12 0
BBX 10 18 1 -4
BITMAP
1F00
3F80
71C0
E0C0
E0C0
C000
C000
C000
C000
E0C0
E0C0
71C0
3F80
1F00
0C00
0600
0600
0E00
ENDCHAR
STARTCHAR Egrave
ENCODING 200
SWIDTH 529 0
DWIDTH 11 0
BBX 9 18 1 0
BITMAP
3000
1800
0C00
0000
FF80
FF80
E000
E000
E000
E000
FF00
FF00
E000
E000
E000
E000
FF80
FF80
ENDCHAR
STARTCHAR Eacute
ENCODING 201
SWIDTH 529 0
DWIDTH 11 0
BBX 9 18 1 0
BITMAP
0700
0600
0C00
0000
FF80
FF80
E000
E000
E000
E000
FF00
FF00
E000
E000
E000
E000
FF80
FF80
ENDCHAR
STARTCHAR Ecircumflex
ENCODING 202
SWIDTH 529 0
DWIDTH 11 0
BBX 9 18 1 0
BITMAP
0C00
1E00
3300
0000
FF80
FF80
E000
E000
E000
E000
FF00
FF00
E000
E000
E000
E000
FF80
FF80
ENDCHAR
STARTCHAR Edieresis
ENCODING 203
SWIDTH 529 0
DWIDTH 11 0
BBX 9 17 1 0
BITMAP
7300
7300
0000
FF80
FF80
E000
E000
E000
E000
FF00
FF00
E000
E000
E000
E000
FF80
FF80
ENDCHAR
STARTCHAR Igrave
ENCODING 204
SWIDTH 271 0
DWIDTH 5 0
BBX 4 18 0 0
BITMAP
C0
60
30
00
30
30
30
30
30
30
30
30
30
30
30
30
30
30
ENDCHAR
STARTCHAR Iacute
ENCODING 205
SWIDTH 271 0
DWIDTH 5 0
BBX 4 18 2 0
BITMAP
70
E0
C0
00
C0
C0
C0
C0
C0
C0
C0
C0
C0
C0
C0
C0
C0
C0
ENDCHAR
STARTCHAR Icircumflex
ENCODING 206
SWIDTH 271 0
DWIDTH 5 0
BBX 6 18 0 0
BITMAP
30
78
CC
00
30
30
30
30
30
30
30
30
30
30
30
30
30
30
ENDCHAR
STARTCHAR Idieresis
ENCODING 207
SWIDTH 271 0
DWIDTH 5 0
BBX 7 17 -1 0
BITMAP
E6
E6
00
18
18
18
18
18
18
18
18
18
18
18
18
18
18
ENDCHAR
STARTCHAR Eth
ENCODING 208
SWIDTH 625 0
DWIDTH 13 0
BBX 11 14 0 0
BITMAP
3F00
3FC0
30E0
3060
3060
3060
FC60
FC60
3060
3060
30E0
30C0
3FC0
3F00
ENDCHAR
STARTCHAR Ntilde
ENCODING 209
SWIDTH 662 0
DWIDTH 13 0
BBX 11 18 1 0
BITMAP
1880
1F80
3300
0000
E0E0
F0E0
F0E0
F8E0
F8E0
ECE0
EEE0
E6E0
E7E0
E3E0
E3E0
E1E0
E0E0
E0E0
ENDCHAR
STARTCHAR Ograve
ENCODING 210
SWIDTH 645 0
DWIDTH 13 0
BBX 11 18 1 0
BITMAP
1800
1C00
0C00
0000
1F00
3F80
71C0
E0C0
E0E0
C0E0
C0E0
C0E0
C0E0
E0E0
E0C0
71C0
3F80
1F00
ENDCHAR
STARTCHAR Oacute
ENCODING 211
SWIDTH 645 0
DWIDTH 13 0
BBX 11 18 1 0
BITMAP
0300
0700
0600
0000
1F00
3F80
71C0
E0C0
E0E0
C0E0
C0E0
C0E0
C0E0
E0E0
E0C0
71C0
3F80
1F00
ENDCHAR
STARTCHAR Ocircumflex
ENCODING 212
SWIDTH 645 0
DWIDTH 13 0
BBX 11 18 1 0
BITMAP
0E00
0A00
1B00
0000
1F00
3F80
71C0
E0C0
E0E0
C0E0
C0E0
C0E0
C0E0
E0E0
E0C0
71C0
3F80
1F00
ENDCHAR
STARTCHAR Otilde
ENCODING 213
SWIDTH 645 0
DWIDTH 13 0
BBX 11 18 1 0
BITMAP
1980
3F80
3300
0000
1F00
3F80
71C0
E0C0
E0E0
C0E0
C0E0
C0E0
C0E0
E0E0
E0C0
71C0
3F80
1F00
ENDCHAR
STARTCHAR Odieresis
ENCODING 214
SWIDTH 645 0
DWIDTH 13 0
BBX 11 17 1 0
BITMAP
3180
3180
0000
1F00
3F80
71C0
E0C0
E0E0
C0E0
C0E0
C0E0
C0E0
E0E0
E0C0
71C0
3F80
1F00
ENDCHAR
STARTCHAR multiply
ENCODING 215
SWIDTH 500 0
DWIDTH 10 0
BBX 8 9 1 2
BITMAP
42
E7
6E
3C
18
3C
6E
E7
42
ENDCHAR
STARTCHAR Oslash
ENCODING 216
SWIDTH 645 0
DWIDTH 13 0
BBX 11 15 1 -1
BITMAP
1F40
3FC0
71C0
61C0
E3E0
C2E0
C660
C460
ECE0
F8E0
70C0
71C0
3F80
7F00
4000
ENDCHAR
STARTCHAR Ugrave
ENCODING 217
SWIDTH 610 0
DWIDTH 12 0
BBX 10 18 1 0
BITMAP
3800
1800
0C00
0000
E0C0
E0C0
E0C0
E0C0
E0C0
E0C0
E0C0
E0C0
E0C0
E0C0
E0C0
61C0
7F80
1F00
ENDCHAR
STARTCHAR Uacute
ENCODING 218
SWIDTH 610 0
DWIDTH 12 0
BBX 10 18 1 0
BITMAP
0700
0600
0C00
0000
E0C0
E0C0
E0C0
E0C0
E0C0
E0C0
E0C0
E0C0
E0C0
E0C0
E0C0
61C0
7F80
1F00
ENDCHAR
STARTCHAR Ucircumflex
ENCODING 219
SWIDTH 610 0
DWIDTH 12 0
BBX 10 18 1 0
BITMAP
0C00
1E00
3300
0000
E0C0
E0C0
E0C0
E0C0
E0C0
E0C0
E0C0
E0C0
E0C0
E0C0
E0C0
61C0
7F80
1F00
ENDCHAR
STARTCHAR Udieresis
ENCODING 220
SWIDTH 610 0
DWIDTH 12 0
BBX 10 17 1 0
BITMAP
3380
3300
0000
E0C0
E0C0
E0C0
E0C0
E0C0
E0C0
E0C0
E0C0
E0C0
E0C0
E0C0
61C0
7F80
1F00
ENDCHAR
STARTCHAR Yacute
ENCODING 221
SWIDTH 572 0
DWIDTH 11 0
BBX 11 18 0 0
BITMAP
0380
0300
0600
0000
E0E0
60E0
70C0
31C0
3980
1B80
1F00
0F00
0E00
0E00
0E00
0E00
0E00
0E00
ENDCHAR
STARTCHAR Thorn
ENCODING 222
SWIDTH 562 0
DWIDTH 11 0
BBX 9 14 1 0
BITMAP
E000
E000
E000
FE00
FF80
E180
E180
E180
E180
FF80
FE00
E000
E000
E000
ENDCHAR
STARTCHAR germandbls
ENCODING 223
SWIDTH 578 0
DWIDTH 12 0
BBX 10 15 1 0
BITMAP
3C00
7F00
6700
E300
E300
E600
E600
E600
E700
E380
E1C0
E1C0
E1C0
EF80
EF00
ENDCHAR
STARTCHAR agrave
ENCODING 224
SWIDTH 506 0
DWIDTH 10 0
BBX 8 15 1 0
BITMAP
70
30
18
00
3C
7E
E7
03
3F
73
C3
C3
C7
FF
7B
ENDCHAR
STARTCHAR aacute
ENCODING 225
SWIDTH 506 0
DWIDTH 10 0
BBX 8 15 1 0
BITMAP
06
0C
18
00
3C
7E
E7
03
3F
73
C3
C3
C7
FF
7B
ENDCHAR
STARTCHAR acircumflex
ENCODING 226
SWIDTH 506 0
DWIDTH 10 0
BBX 8 15 1 0
BITMAP
18
3C
66
00
3C
7E
E7
03
3F
73
C3
C3
C7
FF
7B
ENDCHAR
STARTCHAR atilde
ENCODING 227
SWIDTH 506 0
DWIDTH 10 0
BBX 8 15 1 0
BITMAP
32
7E
4E
00
3C
7E
E7
03
3F
73
C3
C3
C7
FF
7B
ENDCHAR
STARTCHAR adieresis
ENCODING 228
SWIDTH 506 0
DWIDTH 10 0
BBX 8 15 1 0
BITMAP
67
66
00
00
3C
7E
E7
03
3F
73
C3
C3
C7
FF
7B
ENDCHAR
STARTCHAR aring
ENCODING 229
SWIDTH 506 0
DWIDTH 10 0
BBX 8 16 1 0
BITMAP
1C
24
24
1C
00
3C
7E
E7
03
3F
73
C3
C3
C7
FF
7B
ENDCHAR
STARTCHAR ae
ENCODING 230
SWIDTH 786 0
DWIDTH 16 0
BBX 14 11 1 0
BITMAP
3CF0
7FF8
E79C
030C
1FFC
7FFC
E300
C300
C780
FFFC
78F8
ENDCHAR
STARTCHAR ccedilla
ENCODING 231
SWIDTH 491 0
DWIDTH 10 0
BBX 8 15 1 -4
BITMAP
3C
7E
E3
C3
C0
C0
C0
C3
E3
7E
3C
18
0C
0C
18
ENDCHAR
STARTCHAR egrave
ENCODING 232
SWIDTH 504 0
DWIDTH 10 0
BBX 8 15 1 0
BITMAP
70
30
18
00
3C
7F
E3
C3
FF
FF
C0
C0
E1
7F
3E
ENDCHAR
STARTCHAR eacute
ENCODING 233
SWIDTH 504 0
DWIDTH 10 0
BBX 8 15 1 0
BITMAP
0E
0C
18
00
3C
7F
E3
C3
FF
FF
C0
C0
E1
7F
3E
ENDCHAR
STARTCHAR ecircumflex
ENCODING 234
SWIDTH 504 0
DWIDTH 10 0
BBX 8 15 1 0
BITMAP
18
3C
66
00
3C
7F
E3
C3
FF
FF
C0
C0
E1
7F
3E
ENDCHAR
STARTCHAR edieresis
ENCODING 235
SWIDTH 504 0
DWIDTH 10 0
BBX 8 15 1 0
BITMAP
67
66
00
00
3C
7F
E3
C3
FF
FF
C0
C0
E1
7F
3E
ENDCHAR
STARTCHAR igrave
ENCODING 236
SWIDTH 255 0
DWIDTH 5 0
BBX 4 16 0 0
BITMAP
C0
E0
60
00
00
70
70
70
70
70
70
70
70
70
70
70
ENDCHAR
STARTCHAR iacute
ENCODING 237
SWIDTH 255 0
DWIDTH 5 0
BBX 4 16 1 0
BITMAP
30
70
60
00
00
E0
E0
E0
E0
E0
E0
E0
E0
E0
E0
E0
ENDCHAR
STARTCHAR icircumflex
ENCODING 238
SWIDTH 255 0
DWIDTH 5 0
BBX 5 16 0 0
BITMAP
70
58
D8
00
00
70
70
70
70
70
70
70
70
70
70
70
ENDCHAR
STARTCHAR idieresis
ENCODING 239
SWIDTH 255 0
DWIDTH 5 0
BBX 7 15 -1 0
BITMAP
C6
C6
00
00
38
38
38
38
38
38
38
38
38
38
38
ENDCHAR
STARTCHAR eth
ENCODING 240
SWIDTH 543 0
DWIDTH 11 0
BBX 9 15 1 0
BITMAP
3000
7B00
1E00
1E00
3700
0300
3F80
7F80
E380
C180
C180
C380
E300
7F00
3C00
ENDCHAR
STARTCHAR ntilde
ENCODING 241
SWIDTH 522 0
DWIDTH 10 0
BBX 8 16 1 0
BITMAP
33
7E
4E
00
00
DE
FF
E3
C3
C3
C3
C3
C3
C3
C3
C3
ENDCHAR
STARTCHAR ograve
ENCODING 242
SWIDTH 533 0
DWIDTH 11 0
BBX 9 15 1 0
BITMAP
7000
3800
1800
0000
3C00
7F00
E300
C380
C180
C180
C180
C380
E300
7F00
3E00
ENDCHAR
STARTCHAR oacute
ENCODING 243
SWIDTH 533 0
DWIDTH 11 0
BBX 9 15 1 0
BITMAP
0600
0C00
1800
0000
3C00
7F00
E300
C380
C180
C180
C180
C380
E300
7F00
3E00
ENDCHAR
STARTCHAR ocircumflex
ENCODING 244
SWIDTH 533 0
DWIDTH 11 0
BBX 9 15 1 0
BITMAP
1800
3C00
6600
0000
3C00
7F00
E300
C380
C180
C180
C180
C380
E300
7F00
3E00
ENDCHAR
STARTCHAR otilde
ENCODING 245
SWIDTH 533 0
DWIDTH 11 0
BBX 9 15 1 0
BITMAP
3300
7E00
4E00
0000
3C00
7F00
E300
C380
C180
C180
C180
C380
E300
7F00
3E00
ENDCHAR
STARTCHAR odieresis
ENCODING 246
SWIDTH 533 0
DWIDTH 11 0
BBX 9 15 1 0
BITMAP
6700
6300
0000
0000
3C00
7F00
E300
C380
C180
C180
C180
C380
E300
7F00
3E00
ENDCHAR
STARTCHAR divide
ENCODING 247
SWIDTH 535 0
DWIDTH 11 0
BBX 9 12 1 1
BITMAP
0800
1C00
1800
0000
0000
FF80
FF80
0000
0000
1800
1C00
0800
ENDCHAR
STARTCHAR oslash
ENCODING 248
SWIDTH 531 0
DWIDTH 11 0
BBX 9 13 1 -1
BITMAP
0300
3E00
7F00
E700
C780
CD80
C980
D980
D380
F300
7F00
7C00
4000
ENDCHAR
STARTCHAR ugrave
ENCODING 249
SWIDTH 521 0
DWIDTH 10 0
BBX 8 16 1 0
BITMAP
70
30
18
00
00
C3
C3
C3
C3
C3
C3
C3
C3
E3
7F
3B
ENDCHAR
STARTCHAR uacute
ENCODING 250
SWIDTH 521 0
DWIDTH 10 0
BBX 8 16 1 0
BITMAP
06
0C
18
00
00
C3
C3
C3
C3
C3
C3
C3
C3
E3
7F
3B
ENDCHAR
STARTCHAR ucircumflex
ENCODING 251
SWIDTH 521 0
DWIDTH 10 0
BBX 8 16 1 0
BITMAP
18
3C
66
00
00
C3
C3
C3
C3
C3
C3
C3
C3
E3
7F
3B
ENDCHAR
STARTCHAR udieresis
ENCODING 252
SWIDTH 521 0
DWIDTH 10 0
BBX 8 15 1 0
BITMAP
67
67
00
00
C3
C3
C3
C3
C3
C3
C3
C3
E3
7F
3B
ENDCHAR
STARTCHAR yacute
ENCODING 253
SWIDTH 460 0
DWIDTH 9 0
BBX 9 20 0 -4
BITMAP
0700
0E00
0C00
0000
0000
E380
6380
6300
7300
3700
3600
3600
1E00
1C00
1C00
0C00
1800
1800
7800
7000
ENDCHAR
STARTCHAR thorn
ENCODING 254
SWIDTH 537 0
DWIDTH 11 0
BBX 9 19 1 -4
BITMAP
E000
E000
E000
E000
FE00
FF00
E300
E380
E380
E180
E380
E380
E300
FF00
FE00
E000
E000
E000
E000
ENDCHAR
STARTCHAR ydieresis
ENCODING 255
SWIDTH 460 0
DWIDTH 9 0
BBX 9 19 0 -4
BITMAP
7300
7300
0000
0000
E380
6380
6300
7300
3700
3600
3600
1E00
1C00
1C00
0C00
1800
1800
7800
7000
ENDCHAR
STARTCHAR Amacron
ENCODING 256
SWIDTH 625 0
DWIDTH 13 0
BBX 12 18 0 0
BITMAP
1F80
1F80
0000
0000
0700
0700
0F00
0F80
0D80
1980
19C0
18C0
38C0
3FE0
7FE0
7060
6070
E030
ENDCHAR
STARTCHAR amacron
ENCODING 257
SWIDTH 506 0
DWIDTH 10 0
BBX 8 15 1 0
BITMAP
7E
7E
00
00
3C
7E
E7
03
3F
73
C3
C3
C7
FF
7B
ENDCHAR
STARTCHAR Abreve
ENCODING 258
SWIDTH 625 0
DWIDTH 13 0
BBX 12 18 0 0
BITMAP
1880
1D80
0F00
0000
0700
0700
0F00
0F80
0D80
1980
19C0
18C0
38C0
3FE0
7FE0
7060
6070
E030
ENDCHAR
STARTCHAR abreve
ENCODING 259
SWIDTH 506 0
DWIDTH 10 0
BBX 8 15 1 0
BITMAP
62
76
3C
00
3C
7E
E7
03
3F
73
C3
C3
C7
FF
7B
ENDCHAR
STARTCHAR Aogonek
ENCODING 260
SWIDTH 625 0
DWIDTH 13 0
BBX 12 18 0 -4
BITMAP
0700
0700
0F00
0F80
0D80
1980
19C0
18C0
38C0
3FE0
7FE0
7060
6070
E030
0060
0040
00F0
0070
ENDCHAR
STARTCHAR aogonek
ENCODING 261
SWIDTH 506 0
DWIDTH 10 0
BBX 8 15 1 -4
BITMAP
3C
7E
E7
03
3F
73
C3
C3
C7
FF
7B
06
06
07
07
ENDCHAR
STARTCHAR Cacute
ENCODING 262
SWIDTH 610 0
DWIDTH 12 0
BBX 10 18 1 0
BITMAP
0300
0600
0C00
0000
1F00
3F80
71C0
E0C0
E0C0
C000
C000
C000
C000
E0C0
E0C0
71C0
3F80
1F00
ENDCHAR
STARTCHAR cacute
ENCODING 263
SWIDTH 491 0
DWIDTH 10 0
BBX 8 15 1 0
BITMAP
0E
0C
18
00
3C
7E
E3
C3
C0
C0
C0
C3
E3
7E
3C
ENDCHAR
STARTCHAR Ccircumflex
ENCODING 264
SWIDTH 610 0
DWIDTH 12 0
BBX 10 18 1 0
BITMAP
0C00
1E00
3300
0000
1F00
3F80
71C0
E0C0
E0C0
C000
C000
C000
C000
E0C0
E0C0
71C0
3F80
1F00
ENDCHAR
STARTCHAR ccircumflex
ENCODING 265
SWIDTH 491 0
DWIDTH 10 0
BBX 8 15 1 0
BITMAP
18
3C
66
00
3C
7E
E3
C3
C0
C0
C0
C3
E3
7E
3C
ENDCHAR
STARTCHAR Cdotaccent
ENCODING 266
SWIDTH 610 0
DWIDTH 12 0
BBX 10 17 1 0
BITMAP
0C00
0C00
0000
1F00
3F80
71C0
E0C0
E0C0
C000
C000
C000
C000
E0C0
E0C0
71C0
3F80
1F00
ENDCHAR
STARTCHAR cdotaccent
ENCODING 267
SWIDTH 491 0
DWIDTH 10 0
BBX 8 15 1 0
BITMAP
18
18
00
00
3C
7E
E3
C3
C0
C0
C0
C3
E3
7E
3C
ENDCHAR
STARTCHAR Ccaron
ENCODING 268
SWIDTH 610 0
DWIDTH 12 0
BBX 10 18 1 0
BITMAP
3300
1E00
0C00
0000
1F00
3F80
71C0
E0C0
E0C0
C000
C000
C000
C000
E0C0
E0C0
71C0
3F80
1F00
ENDCHAR
STARTCHAR ccaron
ENCODING 269
SWIDTH 491 0
DWIDTH 10 0
BBX 8 15 1 0
BITMAP
66
3C
18
00
3C
7E
E3
C3
C0
C0
C0
C3
E3
7E
3C
ENDCHAR
STARTCHAR Dcaron
ENCODING 270
SWIDTH 610 0
DWIDTH 12 0
BBX 10 18 1 0
BITMAP
6600
3C00
1800
0000
FE00
FF00
E380
E1C0
E0C0
E0C0
E0C0
E0C0
E0C0
E0C0
E1C0
E380
FF00
FE00
ENDCHAR
STARTCHAR dcaron
ENCODING 271
SWIDTH 602 0
DWIDTH 12 0
BBX 12 15 1 0
BITMAP
0330
0320
0360
0360
3B00
7F00
E300
C300
C300
C300
C300
C300
E300
7F00
3B00
ENDCHAR
STARTCHAR Dcroat
ENCODING 272
SWIDTH 625 0
DWIDTH 13 0
BBX 11 14 0 0
BITMAP
3F00
3FC0
30E0
3060
3060
3060
FC60
FC60
3060
3060
30E0
30C0
3FC0
3F00
ENDCHAR
STARTCHAR dcroat
ENCODING 273
SWIDTH 581 0
DWIDTH 12 0
BBX 10 15 1 0
BITMAP
0300
0FC0
0FC0
0300
3B00
7F00
E300
C300
C300
C300
C300
C300
E300
7F00
3B00
ENDCHAR
STARTCHAR Emacron
ENCODING 274
SWIDTH 529 0
DWIDTH 11 0
BBX 9 18 1 0
BITMAP
3F00
3F00
0000
0000
FF80
FF80
E000
E000
E000
E000
FF00
FF00
E000
E000
E000
E000
FF80
FF80
ENDCHAR
STARTCHAR emacron
ENCODING 275
SWIDTH 504 0
DWIDTH 10 0
BBX 8 15 1 0
BITMAP
7E
7E
00
00
3C
7F
E3
C3
FF
FF
C0
C0
E1
7F
3E
ENDCHAR
STARTCHAR Ebreve
ENCODING 276
SWIDTH 529 0
DWIDTH 11 0
BBX 9 18 1 0
BITMAP
2300
3700
1E00
0000
FF80
FF80
E000
E000
E000
E000
FF00
FF00
E000
E000
E000
E000
FF80
FF80
ENDCHAR
STARTCHAR ebreve
ENCODING 277
SWIDTH 504 0
DWIDTH 10 0
BBX 8 15 1 0
BITMAP
66
66
3C
00
3C
7F
E3
C3
FF
FF
C0
C0
E1
7F
3E
ENDCHAR
STARTCHAR Edotaccent
ENCODING 278
SWIDTH 529 0
DWIDTH 11 0
BBX 9 17 1 0
BITMAP
0C00
0C00
0000
FF80
FF80
E000
E000
E000
E000
FF00
FF00
E000
E000
E000
E000
FF80
FF80
ENDCHAR
STARTCHAR edotaccent
ENCODING 279
SWIDTH 504 0
DWIDTH 10 0
BBX 8 15 1 0
BITMAP
18
18
00
00
3C
7F
E3
C3
FF
FF
C0
C0
E1
7F
3E
ENDCHAR
STARTCHAR Eogonek
ENCODING 280
SWIDTH 529 0
DWIDTH 11 0
BBX 9 18 1 -4
BITMAP
FF80
FF80
E000
E000
E000
E000
FF00
FF00
E000
E000
E000
E000
FF80
FF80
0600
0600
0700
0700
ENDCHAR
STARTCHAR eogonek
ENCODING 281
SWIDTH 504 0
DWIDTH 10 0
BBX 8 15 1 -4
BITMAP
3C
7E
E3
C3
C3
FF
FF
C0
E1
7F
3E
0C
18
1E
0E
ENDCHAR
STARTCHAR Ecaron
ENCODING 282
SWIDTH 529 0
DWIDTH 11 0
BBX 9 18 1 0
BITMAP
3300
1E00
0C00
0000
FF80
FF80
E000
E000
E000
E000
FF00
FF00
E000
E000
E000
E000
FF80
FF80
ENDCHAR
STARTCHAR ecaron
ENCODING 283
SWIDTH 504 0
DWIDTH 10 0
BBX 8 15 1 0
BITMAP
66
3C
18
00
3C
7F
E3
C3
FF
FF
C0
C0
E1
7F
3E
ENDCHAR
STARTCHAR Gcircumflex
ENCODING 284
SWIDTH 634 0
DWIDTH 13 0
BBX 11 18 1 0
BITMAP
0C00
1E00
3300
0000
1F00
3F80
71C0
E0C0
E0C0
E000
C000
C7E0
E7E0
E0E0
E0E0
70E0
3FC0
1F80
ENDCHAR
STARTCHAR gcircumflex
ENCODING 285
SWIDTH 532 0
DWIDTH 11 0
BBX 8 19 1 -4
BITMAP
18
3C
66
00
3F
7F
E3
C3
C3
C3
C3
C3
E3
7F
3B
03
43
FF
3C
ENDCHAR
STARTCHAR Gbreve
ENCODING 286
SWIDTH 634 0
DWIDTH 13 0
BBX 11 18 1 0
BITMAP
3100
3B00
1E00
0000
1F00
3F80
71C0
E0C0
E0C0
E000
C000
C7E0
E7E0
E0E0
E0E0
70E0
3FC0
1F80
ENDCHAR
STARTCHAR gbreve
ENCODING 287
SWIDTH 532 0
DWIDTH 11 0
BBX 8 19 1 -4
BITMAP
66
66
3C
00
3F
7F
E3
C3
C3
C3
C3
C3
E3
7F
3B
03
43
FF
3C
ENDCHAR
STARTCHAR Gdotaccent
ENCODING 288
SWIDTH 634 0
DWIDTH 13 0
BBX 11 17 1 0
BITMAP
0C00
0C00
0000
1F00
3F80
71C0
E0C0
E0C0
E000
C000
C7E0
E7E0
E0E0
E0E0
70E0
3FC0
1F80
ENDCHAR
STARTCHAR gdotaccent
ENCODING 289
SWIDTH 532 0
DWIDTH 11 0
BBX 8 19 1 -4
BITMAP
18
18
00
00
3F
7F
E3
C3
C3
C3
C3
C3
E3
7F
3B
03
43
FF
3C
ENDCHAR
STARTCHAR uni0122
ENCODING 290
SWIDTH 634 0
DWIDTH 13 0
BBX 11 19 1 -5
BITMAP
1F00
3F80
71C0
E0C0
E0C0
E000
C000
C7E0
E7E0
E0E0
E0E0
70E0
3FC0
1F80
0000
0600
0600
0C00
0C00
ENDCHAR
STARTCHAR uni0123
ENCODING 291
SWIDTH 532 0
DWIDTH 11 0
BBX 8 20 1 -4
BITMAP
08
18
18
18
00
3F
7F
E3
C3
C3
C3
C3
C3
E3
7F
3B
03
43
FF
3C
ENDCHAR
STARTCHAR Hcircumflex
ENCODING 292
SWIDTH 663 0
DWIDTH 13 0
BBX 11 18 1 0
BITMAP
0E00
0B00
1B00
0000
E0E0
E0E0
E0E0
E0E0
E0E0
E0E0
FFE0
FFE0
E0E0
E0E0
E0E0
E0E0
E0E0
E0E0
ENDCHAR
STARTCHAR hcircumflex
ENCODING 293
SWIDTH 521 0
DWIDTH 10 0
BBX 8 19 1 0
BITMAP
18
3C
66
00
C0
C0
C0
C0
DE
FF
E3
C3
C3
C3
C3
C3
C3
C3
C3
ENDCHAR
STARTCHAR Hbar
ENCODING 294
SWIDTH 666 0
DWIDTH 13 0
BBX 13 14 0 0
BITMAP
7030
7030
FFF8
FFF8
7030
7030
7FF0
7FF0
7030
7030
7030
7030
7030
7030
ENDCHAR
STARTCHAR hbar
ENCODING 295
SWIDTH 536 0
DWIDTH 11 0
BBX 10 15 0 0
BITMAP
7000
FC00
FC00
7000
7700
7F80
7180
71C0
71C0
71C0
71C0
71C0
71C0
71C0
71C0
ENDCHAR
STARTCHAR Itilde
ENCODING 296
SWIDTH 271 0
DWIDTH 5 0
BBX 7 18 -1 0
BITMAP
62
7E
CC
00
18
18
18
18
18
18
18
18
18
18
18
18
18
18
ENDCHAR
STARTCHAR itilde
ENCODING 297
SWIDTH 255 0
DWIDTH 5 0
BBX 7 16 -1 0
BITMAP
66
FE
CC
00
00
38
38
38
38
38
38
38
38
38
38
38
ENDCHAR
STARTCHAR Imacron
ENCODING 298
SWIDTH 271 0
DWIDTH 5 0
BBX 6 18 0 0
BITMAP
FC
FC
00
00
30
30
30
30
30
30
30
30
30
30
30
30
30
30
ENDCHAR
STARTCHAR imacron
ENCODING 299
SWIDTH 255 0
DWIDTH 5 0
BBX 7 15 -1 0
BITMAP
FE
FE
00
00
38
38
38
38
38
38
38
38
38
38
38
ENDCHAR
STARTCHAR Ibreve
ENCODING 300
SWIDTH 271 0
DWIDTH 5 0
BBX 6 18 0 0
BITMAP
8C
DC
78
00
30
30
30
30
30
30
30
30
30
30
30
30
30
30
ENDCHAR
STARTCHAR ibreve
ENCODING 301
SWIDTH 255 0
DWIDTH 5 0
BBX 7 15 -1 0
BITMAP
C6
6C
38
00
38
38
38
38
38
38
38
38
38
38
38
ENDCHAR
STARTCHAR Iogonek
ENCODING 302
SWIDTH 271 0
DWIDTH 5 0
BBX 4 18 0 -4
BITMAP
30
30
30
30
30
30
30
30
30
30
30
30
30
30
60
C0
C0
70
ENDCHAR
STARTCHAR iogonek
ENCODING 303
SWIDTH 248 0
DWIDTH 5 0
BBX 4 20 0 -4
BITMAP
20
70
70
00
00
70
70
70
70
70
70
70
70
70
70
70
60
C0
C0
E0
ENDCHAR
STARTCHAR Idotaccent
ENCODING 304
SWIDTH 271 0
DWIDTH 5 0
BBX 3 17 1 0
BITMAP
E0
60
00
60
60
60
60
60
60
60
60
60
60
60
60
60
60
ENDCHAR
STARTCHAR dotlessi
ENCODING 305
SWIDTH 255 0
DWIDTH 5 0
BBX 3 11 1 0
BITMAP
E0
E0
E0
E0
E0
E0
E0
E0
E0
E0
E0
ENDCHAR
STARTCHAR IJ
ENCODING 306
SWIDTH 793 0
DWIDTH 16 0
BBX 13 14 2 0
BITMAP
C038
C038
C038
C038
C038
C038
C038
C038
C038
C038
CC30
CE30
C7F0
C3C0
ENDCHAR
STARTCHAR ij
ENCODING 307
SWIDTH 491 0
DWIDTH 10 0
BBX 8 20 1 -4
BITMAP
40
E7
E6
00
00
E7
E7
E7
E7
E7
E7
E7
E7
E7
E7
E7
07
07
1E
1C
ENDCHAR
STARTCHAR Jcircumflex
ENCODING 308
SWIDTH 521 0
DWIDTH 10 0
BBX 10 18 1 0
BITMAP
0300
0780
0CC0
0000
0300
0300
0300
0300
0300
0300
0300
0300
0300
0300
C300
C700
FE00
7C00
ENDCHAR
STARTCHAR jcircumflex
ENCODING 309
SWIDTH 261 0
DWIDTH 5 0
BBX 6 19 -1 -4
BITMAP
38
2C
64
00
18
18
18
18
18
18
18
18
18
18
18
18
38
70
E0
ENDCHAR
STARTCHAR uni0136
ENCODING 310
SWIDTH 590 0
DWIDTH 12 0
BBX 11 18 1 -4
BITMAP
E1C0
E180
E380
E700
EE00
EC00
FC00
FE00
F600
E700
E380
E380
E1C0
E0E0
0C00
0C00
0C00
0800
ENDCHAR
STARTCHAR uni0137
ENCODING 311
SWIDTH 493 0
DWIDTH 10 0
BBX 9 20 1 -5
BITMAP
E000
E000
E000
E000
E700
E600
EE00
FC00
F800
FC00
EC00
EE00
E600
E700
E380
0000
1800
1800
1800
1000
ENDCHAR
STARTCHAR kgreenlandic
ENCODING 312
SWIDTH 542 0
DWIDTH 11 0
BBX 9 11 1 0
BITMAP
E380
E700
E700
EE00
EC00
FC00
FC00
EE00
E700
E700
E380
ENDCHAR
STARTCHAR Lacute
ENCODING 313
SWIDTH 508 0
DWIDTH 10 0
BBX 9 18 1 0
BITMAP
3800
7000
6000
0000
E000
E000
E000
E000
E000
E000
E000
E000
E000
E000
E000
E000
FF80
FF80
ENDCHAR
STARTCHAR lacute
ENCODING 314
SWIDTH 248 0
DWIDTH 5 0
BBX 4 19 1 0
BITMAP
30
70
60
00
E0
E0
E0
E0
E0
E0
E0
E0
E0
E0
E0
E0
E0
E0
E0
ENDCHAR
STARTCHAR uni013B
ENCODING 315
SWIDTH 508 0
DWIDTH 10 0
BBX 9 19 1 -5
BITMAP
E000
E000
E000
E000
E000
E000
E000
E000
E000
E000
E000
E000
FF80
FF80
0000
0C00
0800
1800
1800
ENDCHAR
STARTCHAR uni013C
ENCODING 316
SWIDTH 248 0
DWIDTH 5 0
BBX 3 20 1 -5
BITMAP
E0
E0
E0
E0
E0
E0
E0
E0
E0
E0
E0
E0
E0
E0
E0
00
40
40
C0
C0
ENDCHAR
STARTCHAR Lcaron
ENCODING 317
SWIDTH 508 0
DWIDTH 10 0
BBX 9 14 1 0
BITMAP
E600
E600
E600
E400
E000
E000
E000
E000
E000
E000
E000
E000
FF80
FF80
ENDCHAR
STARTCHAR lcaron
ENCODING 318
SWIDTH 321 0
DWIDTH 6 0
BBX 6 15 1 0
BITMAP
EC
EC
EC
E8
E0
E0
E0
E0
E0
E0
E0
E0
E0
E0
E0
ENDCHAR
STARTCHAR Ldot
ENCODING 319
SWIDTH 508 0
DWIDTH 10 0
BBX 9 14 1 0
BITMAP
E000
E000
E000
E000
E000
EE00
E600
E000
E000
E000
E000
E000
FF80
FF80
ENDCHAR
STARTCHAR ldot
ENCODING 320
SWIDTH 355 0
DWIDTH 7 0
BBX 6 15 1 0
BITMAP
E0
E0
E0
E0
E0
E0
E0
EC
EC
E0
E0
E0
E0
E0
E0
ENDCHAR
STARTCHAR Lslash
ENCODING 321
SWIDTH 517 0
DWIDTH 10 0
BBX 10 14 0 0
BITMAP
3000
3000
3000
3000
3000
3C00
7800
F000
3000
3000
3000
3000
3FC0
3FC0
ENDCHAR
STARTCHAR lslash
ENCODING 322
SWIDTH 279 0
DWIDTH 6 0
BBX 5 15 0 0
BITMAP
30
30
30
30
30
30
38
70
F0
30
30
30
30
30
30
ENDCHAR
STARTCHAR Nacute
ENCODING 323
SWIDTH 662 0
DWIDTH 13 0
BBX 11 18 1 0
BITMAP
0380
0700
0600
0000
E0E0
F0E0
F0E0
F8E0
F8E0
ECE0
EEE0
E6E0
E7E0
E3E0
E3E0
E1E0
E0E0
E0E0
ENDCHAR
STARTCHAR nacute
ENCODING 324
SWIDTH 522 0
DWIDTH 10 0
BBX 8 16 1 0
BITMAP
06
0C
18
00
00
DE
FF
E3
C3
C3
C3
C3
C3
C3
C3
C3
ENDCHAR
STARTCHAR uni0145
ENCODING 325
SWIDTH 662 0
DWIDTH 13 0
BBX 11 19 1 -5
BITMAP
E0E0
F0E0
F0E0
F8E0
F8E0
ECE0
EEE0
E6E0
E7E0
E3E0
E3E0
E1E0
E0E0
E0E0
0000
0600
0400
0C00
0C00
ENDCHAR
STARTCHAR uni0146
ENCODING 326
SWIDTH 522 0
DWIDTH 10 0
BBX 8 16 1 -5
BITMAP
DE
FF
E3
C3
C3
C3
C3
C3
C3
C3
C3
00
18
18
18
10
ENDCHAR
STARTCHAR Ncaron
ENCODING 327
SWIDTH 662 0
DWIDTH 13 0
BBX 11 18 1 0
BITMAP
1980
0F00
0E00
0000
E0E0
F0E0
F0E0
F8E0
F8E0
ECE0
EEE0
E6E0
E7E0
E3E0
E3E0
E1E0
E0E0
E0E0
ENDCHAR
STARTCHAR ncaron
ENCODING 328
SWIDTH 522 0
DWIDTH 10 0
BBX 8 16 1 0
BITMAP
66
3C
18
00
00
DE
FF
E3
C3
C3
C3
C3
C3
C3
C3
C3
ENDCHAR
STARTCHAR napostrophe
ENCODING 329
SWIDTH 522 0
DWIDTH 10 0
BBX 9 16 0 0
BITMAP
C000
C000
8000
8000
0000
6F00
7F80
7180
6180
6180
6180
6180
6180
6180
6180
6180
ENDCHAR
STARTCHAR Eng
ENCODING 330
SWIDTH 651 0
DWIDTH 13 0
BBX 11 18 1 -4
BITMAP
E0E0
F0E0
F0E0
F8E0
F8E0
ECE0
ECE0
E6E0
E7E0
E3E0
E3E0
E1E0
E1E0
E0E0
00E0
00E0
03C0
0380
ENDCHAR
STARTCHAR eng
ENCODING 331
SWIDTH 531 0
DWIDTH 11 0
BBX 8 15 1 -4
BITMAP
CE
DF
E3
E3
E3
E3
E3
E3
E3
E3
E3
03
03
0F
0E
ENDCHAR
STARTCHAR Omacron
ENCODING 332
SWIDTH 645 0
DWIDTH 13 0
BBX 11 17 1 0
BITMAP
3F80
3F80
0000
1F00
3F80
71C0
E0C0
E0E0
C0E0
C0E0
C0E0
C0E0
E0E0
E0C0
71C0
3F80
1F00
ENDCHAR
STARTCHAR omacron
ENCODING 333
SWIDTH 533 0
DWIDTH 11 0
BBX 9 15 1 0
BITMAP
7E00
7E00
0000
0000
3C00
7F00
E300
C380
C180
C180
C180
C380
E300
7F00
3E00
ENDCHAR
STARTCHAR Obreve
ENCODING 334
SWIDTH 645 0
DWIDTH 13 0
BBX 11 18 1 0
BITMAP
3180
1B00
0E00
0000
1F00
3F80
71C0
E0C0
E0E0
C0E0
C0E0
C0E0
C0E0
E0E0
E0C0
71C0
3F80
1F00
ENDCHAR
STARTCHAR obreve
ENCODING 335
SWIDTH 533 0
DWIDTH 11 0
BBX 9 15 1 0
BITMAP
6200
7600
3C00
0000
3C00
7F00
E300
C380
C180
C180
C180
C380
E300
7F00
3E00
ENDCHAR
STARTCHAR Ohungarumlaut
ENCODING 336
SWIDTH 645 0
DWIDTH 13 0
BBX 11 18 1 0
BITMAP
0DC0
0D80
1B00
0000
1F00
3F80
71C0
E0C0
E0E0
C0E0
C0E0
C0E0
C0E0
E0E0
E0C0
71C0
3F80
1F00
ENDCHAR
STARTCHAR ohungarumlaut
ENCODING 337
SWIDTH 533 0
DWIDTH 11 0
BBX 9 15 1 0
BITMAP
1B00
3300
3600
0000
3C00
7F00
E300
C380
C180
C180
C180
C380
E300
7F00
3E00
ENDCHAR
STARTCHAR OE
ENCODING 338
SWIDTH 897 0
DWIDTH 18 0
BBX 16 14 1 0
BITMAP
1FFF
3FFF
6180
E180
C180
C180
C1FE
C1FE
C180
C180
E180
6180
3FFF
1FFF
ENDCHAR
STARTCHAR oe
ENCODING 339
SWIDTH 839 0
DWIDTH 17 0
BBX 15 11 1 0
BITMAP
3C78
7FFC
E3CE
C386
C1FE
C1FE
C180
C380
E3C0
7FFE
3C7C
ENDCHAR
STARTCHAR Racute
ENCODING 340
SWIDTH 586 0
DWIDTH 12 0
BBX 10 18 1 0
BITMAP
0600
0E00
0C00
0000
FF00
FF80
E180
E1C0
E1C0
E1C0
E180
FF80
FE00
E700
E380
E380
E1C0
E0C0
ENDCHAR
STARTCHAR racute
ENCODING 341
SWIDTH 336 0
DWIDTH 7 0
BBX 6 16 1 0
BITMAP
1C
18
30
00
00
D8
F8
E0
E0
E0
E0
E0
E0
E0
E0
E0
ENDCHAR
STARTCHAR uni0156
ENCODING 342
SWIDTH 586 0
DWIDTH 12 0
BBX 10 19 1 -5
BITMAP
FF00
FF80
E180
E1C0
E1C0
E1C0
E180
FF80
FE00
E700
E380
E380
E1C0
E0C0
0000
0C00
0800
1800
1800
ENDCHAR
STARTCHAR uni0157
ENCODING 343
SWIDTH 336 0
DWIDTH 7 0
BBX 5 16 1 -5
BITMAP
D8
F8
E0
E0
E0
E0
E0
E0
E0
E0
E0
00
C0
C0
C0
80
ENDCHAR
STARTCHAR Rcaron
ENCODING 344
SWIDTH 586 0
DWIDTH 12 0
BBX 10 18 1 0
BITMAP
3600
3600
1C00
0000
FF00
FF80
E180
E1C0
E1C0
E1C0
E180
FF80
FE00
E700
E380
E380
E1C0
E0C0
ENDCHAR
STARTCHAR rcaron
ENCODING 345
SWIDTH 336 0
DWIDTH 7 0
BBX 6 16 1 0
BITMAP
CC
78
30
00
00
D8
F8
E0
E0
E0
E0
E0
E0
E0
E0
E0
ENDCHAR
STARTCHAR Sacute
ENCODING 346
SWIDTH 567 0
DWIDTH 11 0
BBX 10 18 1 0
BITMAP
0700
0600
0C00
0000
3E00
7F80
E180
E1C0
E000
7000
3E00
0F00
0380
C1C0
C1C0
E180
7F80
1E00
ENDCHAR
STARTCHAR sacute
ENCODING 347
SWIDTH 484 0
DWIDTH 10 0
BBX 8 15 1 0
BITMAP
0E
0C
18
00
3C
7E
C7
C0
F0
7E
0F
07
C7
FE
3C
ENDCHAR
STARTCHAR Scircumflex
ENCODING 348
SWIDTH 567 0
DWIDTH 11 0
BBX 10 18 1 0
BITMAP
0C00
1E00
3300
0000
3E00
7F80
E180
E1C0
E000
7000
3E00
0F00
0380
C1C0
C1C0
E180
7F80
1E00
ENDCHAR
STARTCHAR scircumflex
ENCODING 349
SWIDTH 484 0
DWIDTH 10 0
BBX 8 15 1 0
BITMAP
18
3C
66
00
3C
7E
C7
C0
F0
7E
0F
07
C7
FE
3C
ENDCHAR
STARTCHAR Scedilla
ENCODING 350
SWIDTH 567 0
DWIDTH 11 0
BBX 10 18 1 -4
BITMAP
3E00
7F80
E180
E1C0
E000
7000
3E00
0F00
0380
C1C0
C1C0
E180
7F80
1E00
0C00
0600
0600
0C00
ENDCHAR
STARTCHAR scedilla
ENCODING 351
SWIDTH 484 0
DWIDTH 10 0
BBX 8 15 1 -4
BITMAP
3C
7E
C7
C0
F0
7E
0F
07
C7
FE
3C
18
0C
0C
18
ENDCHAR
STARTCHAR Scaron
ENCODING 352
SWIDTH 567 0
DWIDTH 11 0
BBX 10 18 1 0
BITMAP
3300
1E00
0C00
0000
3E00
7F80
E180
E1C0
E000
7000
3E00
0F00
0380
C1C0
C1C0
E180
7F80
1E00
ENDCHAR
STARTCHAR scaron
ENCODING 353
SWIDTH 484 0
DWIDTH 10 0
BBX 8 15 1 0
BITMAP
66
3C
18
00
3C
7E
C7
C0
F0
7E
0F
07
C7
FE
3C
ENDCHAR
STARTCHAR uni0162
ENCODING 354
SWIDTH 570 0
DWIDTH 11 0
BBX 11 18 0 -4
BITMAP
FFE0
FFE0
0E00
0E00
0E00
0E00
0E00
0E00
0E00
0E00
0E00
0E00
0E00
0E00
0400
0300
0300
0600
ENDCHAR
STARTCHAR uni0163
ENCODING 355
SWIDTH 317 0
DWIDTH 6 0
BBX 6 17 0 -4
BITMAP
30
30
FC
FC
30
30
30
30
30
30
30
3C
1C
18
0C
0C
18
ENDCHAR
STARTCHAR Tcaron
ENCODING 356
SWIDTH 570 0
DWIDTH 11 0
BBX 11 18 0 0
BITMAP
1980
0F00
0600
0000
FFE0
FFE0
0E00
0E00
0E00
0E00
0E00
0E00
0E00
0E00
0E00
0E00
0E00
0E00
ENDCHAR
STARTCHAR tcaron
ENCODING 357
SWIDTH 336 0
DWIDTH 7 0
BBX 8 16 0 0
BITMAP
03
02
06
36
30
FC
FC
30
30
30
30
30
30
30
3C
1C
ENDCHAR
STARTCHAR Tbar
ENCODING 358
SWIDTH 570 0
DWIDTH 11 0
BBX 11 14 0 0
BITMAP
FFE0
FFE0
0E00
0E00
0E00
1F80
1F80
0E00
0E00
0E00
0E00
0E00
0E00
0E00
ENDCHAR
STARTCHAR tbar
ENCODING 359
SWIDTH 317 0
DWIDTH 6 0
BBX 6 14 0 0
BITMAP
30
30
30
FC
FC
30
FC
FC
30
30
30
30
3C
1C
ENDCHAR
STARTCHAR Utilde
ENCODING 360
SWIDTH 610 0
DWIDTH 12 0
BBX 10 18 1 0
BITMAP
1900
3F00
2700
0000
E0C0
E0C0
E0C0
E0C0
E0C0
E0C0
E0C0
E0C0
E0C0
E0C0
E0C0
61C0
7F80
1F00
ENDCHAR
STARTCHAR utilde
ENCODING 361
SWIDTH 521 0
DWIDTH 10 0
BBX 8 16 1 0
BITMAP
33
7E
4E
00
00
C3
C3
C3
C3
C3
C3
C3
C3
E3
7F
3B
ENDCHAR
STARTCHAR Umacron
ENCODING 362
SWIDTH 610 0
DWIDTH 12 0
BBX 10 18 1 0
BITMAP
3F00
3F00
0000
0000
E0C0
E0C0
E0C0
E0C0
E0C0
E0C0
E0C0
E0C0
E0C0
E0C0
E0C0
61C0
7F80
1F00
ENDCHAR
STARTCHAR umacron
ENCODING 363
SWIDTH 521 0
DWIDTH 10 0
BBX 8 15 1 0
BITMAP
7E
7E
00
00
C3
C3
C3
C3
C3
C3
C3
C3
E3
7F
3B
ENDCHAR
STARTCHAR Ubreve
ENCODING 364
SWIDTH 610 0
DWIDTH 12 0
BBX 10 18 1 0
BITMAP
3300
3300
1E00
0000
E0C0
E0C0
E0C0
E0C0
E0C0
E0C0
E0C0
E0C0
E0C0
E0C0
E0C0
61C0
7F80
1F00
ENDCHAR
STARTCHAR ubreve
ENCODING 365
SWIDTH 521 0
DWIDTH 10 0
BBX 8 15 1 0
BITMAP
62
76
3C
00
C3
C3
C3
C3
C3
C3
C3
C3
E3
7F
3B
ENDCHAR
STARTCHAR Uring
ENCODING 366
SWIDTH 610 0
DWIDTH 12 0
BBX 10 19 1 0
BITMAP
0E00
1200
1200
0E00
0000
E0C0
E0C0
E0C0
E0C0
E0C0
E0C0
E0C0
E0C0
E0C0
E0C0
E0C0
61C0
7F80
1F00
ENDCHAR
STARTCHAR uring
ENCODING 367
SWIDTH 521 0
DWIDTH 10 0
BBX 8 16 1 0
BITMAP
1C
24
24
1C
00
C3
C3
C3
C3
C3
C3
C3
C3
E3
7F
3B
ENDCHAR
STARTCHAR Uhungarumlaut
ENCODING 368
SWIDTH 610 0
DWIDTH 12 0
BBX 10 18 1 0
BITMAP
0D80
1B00
1B00
0000
E0C0
E0C0
E0C0
E0C0
E0C0
E0C0
E0C0
E0C0
E0C0
E0C0
E0C0
61C0
7F80
1F00
ENDCHAR
STARTCHAR uhungarumlaut
ENCODING 369
SWIDTH 521 0
DWIDTH 10 0
BBX 8 15 1 0
BITMAP
1B
33
36
00
C3
C3
C3
C3
C3
C3
C3
C3
E3
7F
3B
ENDCHAR
STARTCHAR Uogonek
ENCODING 370
SWIDTH 610 0
DWIDTH 12 0
BBX 10 18 1 -4
BITMAP
E0C0
E0C0
E0C0
E0C0
E0C0
E0C0
E0C0
E0C0
E0C0
E0C0
E0C0
61C0
7F80
1F00
0600
0600
0700
0700
ENDCHAR
STARTCHAR uogonek
ENCODING 371
SWIDTH 521 0
DWIDTH 10 0
BBX 8 15 1 -4
BITMAP
C3
C3
C3
C3
C3
C3
C3
C3
E3
7F
3B
06
06
07
07
ENDCHAR
STARTCHAR Wcircumflex
ENCODING 372
SWIDTH 817 0
DWIDTH 16 0
BBX 15 18 1 0
BITMAP
0300
0780
0CC0
0000
C30E
C38E
C38C
E78C
E78C
66CC
66DC
6CD8
7CD8
3C58
3C78
3870
3870
3830
ENDCHAR
STARTCHAR wcircumflex
ENCODING 373
SWIDTH 691 0
DWIDTH 14 0
BBX 13 16 0 0
BITMAP
0300
0780
0CC0
0000
0000
E318
6318
6718
67B8
77B0
35B0
3CB0
3CF0
3CE0
18E0
1860
ENDCHAR
STARTCHAR Ycircumflex
ENCODING 374
SWIDTH 572 0
DWIDTH 11 0
BBX 11 18 0 0
BITMAP
0600
0F00
1980
0000
E0E0
60E0
70C0
31C0
3980
1B80
1F00
0F00
0E00
0E00
0E00
0E00
0E00
0E00
ENDCHAR
STARTCHAR ycircumflex
ENCODING 375
SWIDTH 460 0
DWIDTH 9 0
BBX 9 20 0 -4
BITMAP
0C00
1E00
3300
0000
0000
E380
6380
6300
7300
3700
3600
3600
1E00
1C00
1C00
0C00
1800
1800
7800
7000
ENDCHAR
STARTCHAR Ydieresis
ENCODING 376
SWIDTH 572 0
DWIDTH 11 0
BBX 11 17 0 0
BITMAP
3980
3980
0000
E0E0
60E0
70C0
31C0
3980
1B80
1F00
0F00
0E00
0E00
0E00
0E00
0E00
0E00
ENDCHAR
STARTCHAR Zacute
ENCODING 377
SWIDTH 564 0
DWIDTH 11 0
BBX 10 18 1 0
BITMAP
0700
0E00
0C00
0000
FF80
FF80
0380
0300
0600
0E00
0C00
1C00
3800
3000
7000
E000
FFC0
FFC0
ENDCHAR
STARTCHAR zacute
ENCODING 378
SWIDTH 474 0
DWIDTH 10 0
BBX 8 16 1 0
BITMAP
0E
0C
18
00
00
FF
FF
0E
0C
1C
38
30
70
E0
FF
FF
ENDCHAR
STARTCHAR Zdotaccent
ENCODING 379
SWIDTH 564 0
DWIDTH 11 0
BBX 10 17 1 0
BITMAP
1C00
0C00
0000
FF80
FF80
0380
0300
0600
0E00
0C00
1C00
3800
3000
7000
E000
FFC0
FFC0
ENDCHAR
STARTCHAR zdotaccent
ENCODING 380
SWIDTH 474 0
DWIDTH 10 0
BBX 8 15 1 0
BITMAP
18
18
00
00
FF
FF
0E
0C
1C
38
30
70
E0
FF
FF
ENDCHAR
STARTCHAR Zcaron
ENCODING 381
SWIDTH 564 0
DWIDTH 11 0
BBX 10 18 1 0
BITMAP
3300
1E00
0C00
0000
FF80
FF80
0380
0300
0600
0E00
0C00
1C00
3800
3000
7000
E000
FFC0
FFC0
ENDCHAR
STARTCHAR zcaron
ENCODING 382
SWIDTH 474 0
DWIDTH 10 0
BBX 8 16 1 0
BITMAP
66
3C
18
00
00
FF
FF
0E
0C
1C
38
30
70
E0
FF
FF
ENDCHAR
STARTCHAR longs
ENCODING 383
SWIDTH 247 0
DWIDTH 5 0
BBX 5 15 1 0
BITMAP
38
78
E0
E0
E0
E0
E0
E0
E0
E0
E0
E0
E0
E0
E0
ENDCHAR
STARTCHAR uni018F
ENCODING 399
SWIDTH 646 0
DWIDTH 13 0
BBX 11 14 1 0
BITMAP
3E00
7F80
41C0
00C0
00E0
00E0
FFE0
FFE0
C0E0
C0E0
E0C0
71C0
7F80
1F00
ENDCHAR
STARTCHAR florin
ENCODING 402
SWIDTH 336 0
DWIDTH 7 0
BBX 7 19 0 -4
BITMAP
1E
3C
30
30
FC
FC
30
30
30
30
30
30
30
30
30
30
30
F0
E0
ENDCHAR
STARTCHAR Ohorn
ENCODING 416
SWIDTH 648 0
DWIDTH 13 0
BBX 12 15 1 0
BITMAP
0030
1F30
3FB0
71E0
E0C0
E0E0
C0E0
C0E0
C0E0
C0E0
E0E0
E0C0
71C0
3F80
1F00
ENDCHAR
STARTCHAR ohorn
ENCODING 417
SWIDTH 542 0
DWIDTH 11 0
BBX 10 12 1 0
BITMAP
00C0
3CC0
7F80
E300
C380
C180
C180
C180
C380
E300
7F00
3C00
ENDCHAR
STARTCHAR Uhorn
ENCODING 431
SWIDTH 661 0
DWIDTH 13 0
BBX 14 15 1 0
BITMAP
000C
E0C8
E0D8
E0F8
E0E0
E0C0
E0C0
E0C0
E0C0
E0C0
E0C0
E1C0
61C0
7F80
1F00
ENDCHAR
STARTCHAR uhorn
ENCODING 432
SWIDTH 578 0
DWIDTH 12 0
BBX 11 12 1 0
BITMAP
0020
C360
C3C0
C380
C300
C300
C300
C300
C300
E300
7F00
3B00
ENDCHAR
STARTCHAR uni01F0
ENCODING 496
SWIDTH 261 0
DWIDTH 5 0
BBX 6 19 -1 -4
BITMAP
6C
2C
38
00
18
18
18
18
18
18
18
18
18
18
18
18
38
70
E0
ENDCHAR
STARTCHAR Aringacute
ENCODING 506
SWIDTH 625 0
DWIDTH 13 0
BBX 12 19 0 0
BITMAP
0180
0200
0000
0700
0500
0700
0700
0F00
0F80
0D80
1980
19C0
18C0
38C0
3FE0
7FE0
7060
6070
E030
ENDCHAR
STARTCHAR aringacute
ENCODING 507
SWIDTH 506 0
DWIDTH 10 0
BBX 8 17 1 0
BITMAP
0E
08
00
1C
24
18
3C
7E
E7
03
3F
73
C3
C3
C7
FF
7B
ENDCHAR
STARTCHAR AEacute
ENCODING 508
SWIDTH 875 0
DWIDTH 18 0
BBX 17 18 0 0
BITMAP
006000
00E000
00C000
000000
01FF00
01FF00
03E000
03E000
066000
066000
0C7F00
1C7F00
186000
3FE000
3FE000
706000
707F80
E07F80
ENDCHAR
STARTCHAR aeacute
ENCODING 509
SWIDTH 786 0
DWIDTH 16 0
BBX 14 15 1 0
BITMAP
01C0
0180
0300
0000
3CF0
7FF8
E79C
030C
1FFC
7FFC
E300
C300
C780
FFFC
78F8
ENDCHAR
STARTCHAR Oslashacute
ENCODING 510
SWIDTH 644 0
DWIDTH 13 0
BBX 11 19 1 -1
BITMAP
0300
0700
0600
0000
1F40
3FC0
71C0
61C0
E3E0
C2E0
C660
C460
ECE0
F8E0
70C0
71C0
3F80
7F00
4000
ENDCHAR
STARTCHAR oslashacute
ENCODING 511
SWIDTH 531 0
DWIDTH 11 0
BBX 9 16 1 -1
BITMAP
0E00
0C00
1800
0300
3E00
7F00
E700
C780
CD80
C980
D980
D380
F300
7F00
7C00
4000
ENDCHAR
STARTCHAR uni0218
ENCODING 536
SWIDTH 567 0
DWIDTH 11 0
BBX 10 19 1 -5
BITMAP
3E00
7F80
E180
E1C0
E000
7000
3E00
0F00
0380
C1C0
C1C0
E180
7F80
1E00
0000
0C00
0C00
0800
0800
ENDCHAR
STARTCHAR uni0219
ENCODING 537
SWIDTH 484 0
DWIDTH 10 0
BBX 8 16 1 -5
BITMAP
3C
7E
C7
C0
F0
7E
0F
07
C7
FE
3C
00
18
18
18
10
ENDCHAR
STARTCHAR uni021A
ENCODING 538
SWIDTH 570 0
DWIDTH 11 0
BBX 11 19 0 -5
BITMAP
FFE0
FFE0
0E00
0E00
0E00
0E00
0E00
0E00
0E00
0E00
0E00
0E00
0E00
0E00
0000
0600
0600
0C00
0C00
ENDCHAR
STARTCHAR uni021B
ENCODING 539
SWIDTH 317 0
DWIDTH 6 0
BBX 6 18 0 -5
BITMAP
30
30
FC
FC
30
30
30
30
30
30
30
3C
1C
00
18
18
18
10
ENDCHAR
STARTCHAR uni0237
ENCODING 567
SWIDTH 261 0
DWIDTH 5 0
BBX 5 15 -1 -4
BITMAP
18
18
18
18
18
18
18
18
18
18
18
18
38
70
E0
ENDCHAR
STARTCHAR uni0259
ENCODING 601
SWIDTH 497 0
DWIDTH 10 0
BBX 8 11 1 0
BITMAP
7C
FE
07
03
03
FF
FF
C3
E7
7E
3C
ENDCHAR
STARTCHAR uni02BC
ENCODING 700
SWIDTH 213 0
DWIDTH 4 0
BBX 2 5 1 10
BITMAP
C0
C0
C0
C0
80
ENDCHAR
STARTCHAR circumflex
ENCODING 710
SWIDTH 462 0
DWIDTH 9 0
BBX 5 3 2 12
BITMAP
70
58
D8
ENDCHAR
STARTCHAR caron
ENCODING 711
SWIDTH 438 0
DWIDTH 9 0
BBX 6 3 1 12
BITMAP
CC
78
30
ENDCHAR
STARTCHAR uni02C9
ENCODING 713
SWIDTH 459 0
DWIDTH 9 0
BBX 6 2 2 13
BITMAP
FC
FC
ENDCHAR
STARTCHAR breve
ENCODING 728
SWIDTH 436 0
DWIDTH 9 0
BBX 6 3 1 12
BITMAP
C4
EC
78
ENDCHAR
STARTCHAR dotaccent
ENCODING 729
SWIDTH 254 0
DWIDTH 5 0
BBX 3 2 1 12
BITMAP
E0
E0
ENDCHAR
STARTCHAR ring
ENCODING 730
SWIDTH 333 0
DWIDTH 7 0
BBX 4 4 1 11
BITMAP
70
90
90
70
ENDCHAR
STARTCHAR ogonek
ENCODING 731
SWIDTH 278 0
DWIDTH 6 0
BBX 4 5 0 -4
BITMAP
30
60
C0
70
70
ENDCHAR
STARTCHAR tilde
ENCODING 732
SWIDTH 454 0
DWIDTH 9 0
BBX 7 3 1 12
BITMAP
66
FE
CC
ENDCHAR
STARTCHAR hungarumlaut
ENCODING 733
SWIDTH 373 0
DWIDTH 7 0
BBX 6 3 1 12
BITMAP
6C
CC
D8
ENDCHAR
STARTCHAR uni02F3
ENCODING 755
SWIDTH 290 0
DWIDTH 6 0
BBX 4 3 1 -4
BITMAP
60
90
60
ENDCHAR
STARTCHAR gravecomb
ENCODING 768
SWIDTH 0 0
DWIDTH 0 0
BBX 3 3 -7 12
BITMAP
C0
E0
60
ENDCHAR
STARTCHAR acutecomb
ENCODING 769
SWIDTH 0 0
DWIDTH 0 0
BBX 4 3 -6 12
BITMAP
70
60
C0
ENDCHAR
STARTCHAR tildecomb
ENCODING 771
SWIDTH 0 0
DWIDTH 0 0
BBX 6 3 -8 12
BITMAP
64
FC
9C
ENDCHAR
STARTCHAR hookabovecomb
ENCODING 777
SWIDTH 0 0
DWIDTH 0 0
BBX 3 4 -6 12
BITMAP
C0
60
E0
C0
ENDCHAR
STARTCHAR uni030F
ENCODING 783
SWIDTH 0 0
DWIDTH 0 0
BBX 7 3 -9 12
BITMAP
EC
6E
36
ENDCHAR
STARTCHAR dotbelowcomb
ENCODING 803
SWIDTH 0 0
DWIDTH 0 0
BBX 2 2 -7 -4
BITMAP
C0
C0
ENDCHAR
STARTCHAR tonos
ENCODING 900
SWIDTH 301 0
DWIDTH 6 0
BBX 3 3 2 13
BITMAP
60
C0
C0
ENDCHAR
STARTCHAR dieresistonos
ENCODING 901
SWIDTH 502 0
DWIDTH 10 0
BBX 8 5 1 12
BITMAP
0C
18
18
C3
C3
ENDCHAR
STARTCHAR Alphatonos
ENCODING 902
SWIDTH 625 0
DWIDTH 13 0
BBX 12 16 0 0
BITMAP
3000
6000
6700
0700
0F00
0F80
0D80
1980
19C0
18C0
38C0
3FE0
7FE0
7060
6070
E030
ENDCHAR
STARTCHAR anoteleia
ENCODING 903
SWIDTH 274 0
DWIDTH 5 0
BBX 3 3 1 6
BITMAP
40
E0
60
ENDCHAR
STARTCHAR Epsilontonos
ENCODING 904
SWIDTH 578 0
DWIDTH 12 0
BBX 13 16 -2 0
BITMAP
6000
4000
CFF8
0FF8
0E00
0E00
0E00
0E00
0FF0
0FF0
0E00
0E00
0E00
0E00
0FF8
0FF8
ENDCHAR
STARTCHAR Etatonos
ENCODING 905
SWIDTH 711 0
DWIDTH 14 0
BBX 15 16 -2 0
BITMAP
6000
4000
CE0E
0E0E
0E0E
0E0E
0E0E
0E0E
0FFE
0FFE
0E0E
0E0E
0E0E
0E0E
0E0E
0E0E
ENDCHAR
STARTCHAR Iotatonos
ENCODING 906
SWIDTH 320 0
DWIDTH 6 0
BBX 7 16 -2 0
BITMAP
60
40
C6
06
06
06
06
06
06
06
06
06
06
06
06
06
ENDCHAR
STARTCHAR Omicrontonos
ENCODING 908
SWIDTH 655 0
DWIDTH 13 0
BBX 13 15 -1 0
BITMAP
6000
47C0
CFE0
1C70
1838
3818
3818
3818
3818
3818
3818
1838
1C70
0FE0
07C0
ENDCHAR
STARTCHAR Upsilontonos
ENCODING 910
SWIDTH 621 0
DWIDTH 12 0
BBX 14 15 -2 0
BITMAP
6000
5C1C
CC1C
0E18
0638
0730
0370
03E0
01E0
01C0
01C0
01C0
01C0
01C0
01C0
ENDCHAR
STARTCHAR Omegatonos
ENCODING 911
SWIDTH 636 0
DWIDTH 13 0
BBX 13 15 -1 0
BITMAP
6000
47C0
CFE0
1C70
1830
3830
3838
3838
3838
3830
1830
1870
0C60
3EF0
3EF0
ENDCHAR
STARTCHAR iotadieresistonos
ENCODING 912
SWIDTH 318 0
DWIDTH 6 0
BBX 8 18 -1 0
BITMAP
18
18
18
C7
C3
00
00
18
18
18
18
18
18
18
18
18
1E
0E
ENDCHAR
STARTCHAR Alpha
ENCODING 913
SWIDTH 625 0
DWIDTH 13 0
BBX 12 14 0 0
BITMAP
0700
0700
0F00
0F80
0D80
1980
19C0
18C0
38C0
3FE0
7FE0
7060
6070
E030
ENDCHAR
STARTCHAR Beta
ENCODING 914
SWIDTH 592 0
DWIDTH 12 0
BBX 10 14 1 0
BITMAP
FF00
FF80
E180
E1C0
E180
E180
FF00
FF80
E180
E1C0
E1C0
E1C0
FF80
FF00
ENDCHAR
STARTCHAR Gamma
ENCODING 915
SWIDTH 522 0
DWIDTH 10 0
BBX 9 14 1 0
BITMAP
FF80
FF80
E000
E000
E000
E000
E000
E000
E000
E000
E000
E000
E000
E000
ENDCHAR
STARTCHAR uni0394
ENCODING 916
SWIDTH 674 0
DWIDTH 13 0
BBX 13 14 0 0
BITMAP
0700
0780
0780
0F80
0DC0
0CC0
1CC0
18E0
3860
3070
3070
7030
7FF8
FFF8
ENDCHAR
STARTCHAR Epsilon
ENCODING 917
SWIDTH 529 0
DWIDTH 11 0
BBX 9 14 1 0
BITMAP
FF80
FF80
E000
E000
E000
E000
FF00
FF00
E000
E000
E000
E000
FF80
FF80
ENDCHAR
STARTCHAR Zeta
ENCODING 918
SWIDTH 564 0
DWIDTH 11 0
BBX 10 14 1 0
BITMAP
FF80
FF80
0380
0300
0600
0E00
0C00
1C00
3800
3000
7000
E000
FFC0
FFC0
ENDCHAR
STARTCHAR Eta
ENCODING 919
SWIDTH 663 0
DWIDTH 13 0
BBX 11 14 1 0
BITMAP
E0E0
E0E0
E0E0
E0E0
E0E0
E0E0
FFE0
FFE0
E0E0
E0E0
E0E0
E0E0
E0E0
E0E0
ENDCHAR
STARTCHAR Theta
ENCODING 920
SWIDTH 641 0
DWIDTH 13 0
BBX 11 14 1 0
BITMAP
1F00
3F80
71C0
E0C0
E0E0
C0E0
CEE0
CEE0
C0E0
E0E0
E0C0
71C0
3F80
1F00
ENDCHAR
STARTCHAR Iota
ENCODING 921
SWIDTH 271 0
DWIDTH 5 0
BBX 2 14 2 0
BITMAP
C0
C0
C0
C0
C0
C0
C0
C0
C0
C0
C0
C0
C0
C0
ENDCHAR
STARTCHAR Kappa
ENCODING 922
SWIDTH 590 0
DWIDTH 12 0
BBX 11 14 1 0
BITMAP
E1C0
E180
E380
E700
EE00
EC00
FC00
FE00
F600
E700
E380
E380
E1C0
E0E0
ENDCHAR
STARTCHAR Lambda
ENCODING 923
SWIDTH 609 0
DWIDTH 12 0
BBX 11 14 1 0
BITMAP
0C00
1E00
1E00
1E00
3F00
3300
3300
7380
7180
6180
E1C0
E1C0
C0C0
C0E0
ENDCHAR
STARTCHAR Mu
ENCODING 924
SWIDTH 815 0
DWIDTH 16 0
BBX 14 14 1 0
BITMAP
F01C
F03C
F03C
F83C
F86C
F86C
EC6C
ECCC
ECCC
E6CC
E78C
E78C
E38C
E30C
ENDCHAR
STARTCHAR Nu
ENCODING 925
SWIDTH 662 0
DWIDTH 13 0
BBX 11 14 1 0
BITMAP
E0E0
F0E0
F0E0
F8E0
F8E0
ECE0
EEE0
E6E0
E7E0
E3E0
E3E0
E1E0
E0E0
E0E0
ENDCHAR
STARTCHAR Xi
ENCODING 926
SWIDTH 534 0
DWIDTH 11 0
BBX 9 14 1 0
BITMAP
FF00
FF00
0000
0000
0000
0000
7F00
7F00
0000
0000
0000
0000
FF80
FF80
ENDCHAR
STARTCHAR Omicron
ENCODING 927
SWIDTH 645 0
DWIDTH 13 0
BBX 11 14 1 0
BITMAP
1F00
3F80
71C0
E0C0
E0E0
C0E0
C0E0
C0E0
C0E0
E0E0
E0C0
71C0
3F80
1F00
ENDCHAR
STARTCHAR Pi
ENCODING 928
SWIDTH 663 0
DWIDTH 13 0
BBX 11 14 1 0
BITMAP
FFE0
FFE0
E0E0
E0E0
E0E0
E0E0
E0E0
E0E0
E0E0
E0E0
E0E0
E0E0
E0E0
E0E0
ENDCHAR
STARTCHAR Rho
ENCODING 929
SWIDTH 600 0
DWIDTH 12 0
BBX 10 14 1 0
BITMAP
FF00
FF80
E1C0
E0C0
E0C0
E0C0
E1C0
FF80
FF00
E000
E000
E000
E000
E000
ENDCHAR
STARTCHAR Sigma
ENCODING 931
SWIDTH 534 0
DWIDTH 11 0
BBX 9 14 1 0
BITMAP
FF80
FF80
6000
7000
3800
1800
1C00
1C00
1800
3800
7000
6000
FF80
FF80
ENDCHAR
STARTCHAR Tau
ENCODING 932
SWIDTH 570 0
DWIDTH 11 0
BBX 11 14 0 0
BITMAP
FFE0
FFE0
0E00
0E00
0E00
0E00
0E00
0E00
0E00
0E00
0E00
0E00
0E00
0E00
ENDCHAR
STARTCHAR Upsilon
ENCODING 933
SWIDTH 572 0
DWIDTH 11 0
BBX 11 14 0 0
BITMAP
E0E0
60E0
70C0
31C0
3980
1B80
1F00
0F00
0E00
0E00
0E00
0E00
0E00
0E00
ENDCHAR
STARTCHAR Phi
ENCODING 934
SWIDTH 698 0
DWIDTH 14 0
BBX 12 14 1 0
BITMAP
0600
0600
1FC0
7FE0
E670
C630
C630
C630
C630
E670
7FE0
1FC0
0600
0600
ENDCHAR
STARTCHAR Chi
ENCODING 935
SWIDTH 593 0
DWIDTH 12 0
BBX 10 14 1 0
BITMAP
E1C0
E1C0
7380
3300
3F00
1E00
1E00
1E00
1E00
3F00
7300
7380
E1C0
C1C0
ENDCHAR
STARTCHAR Psi
ENCODING 936
SWIDTH 665 0
DWIDTH 13 0
BBX 12 14 1 0
BITMAP
CE70
CE70
CE70
CE70
CE70
CE70
CE60
EEE0
7FC0
3F80
0E00
0E00
0E00
0E00
ENDCHAR
STARTCHAR uni03A9
ENCODING 937
SWIDTH 626 0
DWIDTH 13 0
BBX 10 14 1 0
BITMAP
1E00
3F80
7180
E1C0
E0C0
E0C0
E0C0
E0C0
E0C0
61C0
6180
3380
FBC0
FBC0
ENDCHAR
STARTCHAR Iotadieresis
ENCODING 938
SWIDTH 271 0
DWIDTH 5 0
BBX 7 17 -1 0
BITMAP
E6
E6
00
18
18
18
18
18
18
18
18
18
18
18
18
18
18
ENDCHAR
STARTCHAR Upsilondieresis
ENCODING 939
SWIDTH 572 0
DWIDTH 11 0
BBX 11 17 0 0
BITMAP
3980
3980
0000
E0E0
60E0
70C0
31C0
3980
1B80
1F00
0F00
0E00
0E00
0E00
0E00
0E00
0E00
ENDCHAR
STARTCHAR alphatonos
ENCODING 940
SWIDTH 529 0
DWIDTH 11 0
BBX 9 16 1 0
BITMAP
0C00
0C00
0800
0000
0000
3B00
7F00
E300
C300
C300
C300
C300
C300
E300
7F80
3980
ENDCHAR
STARTCHAR epsilontonos
ENCODING 941
SWIDTH 515 0
DWIDTH 10 0
BBX 8 16 1 0
BITMAP
0C
08
18
00
00
3E
7F
E3
E0
7C
7C
E0
C0
E3
7F
3E
ENDCHAR
STARTCHAR etatonos
ENCODING 942
SWIDTH 531 0
DWIDTH 11 0
BBX 8 20 1 -4
BITMAP
0C
0C
08
00
00
DE
FF
E3
E3
E3
E3
E3
E3
E3
E3
E3
03
03
03
03
ENDCHAR
STARTCHAR iotatonos
ENCODING 943
SWIDTH 318 0
DWIDTH 6 0
BBX 4 16 2 0
BITMAP
E0
C0
C0
00
00
C0
C0
C0
C0
C0
C0
C0
C0
C0
F0
70
ENDCHAR
STARTCHAR upsilondieresistonos
ENCODING 944
SWIDTH 513 0
DWIDTH 10 0
BBX 8 18 1 0
BITMAP
0C
08
18
E3
C3
00
00
E7
E3
E3
E3
E3
E3
E3
E3
E7
7E
3C
ENDCHAR
STARTCHAR alpha
ENCODING 945
SWIDTH 529 0
DWIDTH 11 0
BBX 9 11 1 0
BITMAP
3B00
7F00
E300
C300
C300
C300
C300
C300
E300
7F80
3980
ENDCHAR
STARTCHAR beta
ENCODING 946
SWIDTH 560 0
DWIDTH 11 0
BBX 9 18 1 -4
BITMAP
1E00
7F00
6380
E380
E380
EF00
EF00
E380
E180
E180
E180
E380
FF80
FE00
E000
E000
E000
E000
ENDCHAR
STARTCHAR gamma
ENCODING 947
SWIDTH 478 0
DWIDTH 10 0
BBX 8 15 1 -4
BITMAP
C3
C7
C6
E6
66
6E
7C
3C
3C
38
18
18
18
18
18
ENDCHAR
STARTCHAR delta
ENCODING 948
SWIDTH 531 0
DWIDTH 11 0
BBX 9 15 1 0
BITMAP
3E00
7E00
6000
6000
7800
1E00
7700
E300
C380
C180
C380
C380
E300
7F00
3C00
ENDCHAR
STARTCHAR epsilon
ENCODING 949
SWIDTH 515 0
DWIDTH 10 0
BBX 8 11 1 0
BITMAP
3E
7F
E3
E0
7C
7C
E0
C0
E3
7F
3E
ENDCHAR
STARTCHAR zeta
ENCODING 950
SWIDTH 480 0
DWIDTH 10 0
BBX 8 18 1 -4
BITMAP
FF
FF
06
0C
1C
38
30
60
60
60
E0
60
78
3E
06
06
06
04
ENDCHAR
STARTCHAR eta
ENCODING 951
SWIDTH 531 0
DWIDTH 11 0
BBX 8 15 1 -4
BITMAP
DE
FF
E3
E3
E3
E3
E3
E3
E3
E3
E3
03
03
03
03
ENDCHAR
STARTCHAR theta
ENCODING 952
SWIDTH 544 0
DWIDTH 11 0
BBX 9 14 1 0
BITMAP
3C00
7F00
6300
E380
C380
C380
FF80
FF80
C380
C380
E300
6300
7F00
3C00
ENDCHAR
STARTCHAR iota
ENCODING 953
SWIDTH 318 0
DWIDTH 6 0
BBX 4 11 2 0
BITMAP
C0
C0
C0
C0
C0
C0
C0
C0
C0
F0
70
ENDCHAR
STARTCHAR kappa
ENCODING 954
SWIDTH 542 0
DWIDTH 11 0
BBX 9 11 1 0
BITMAP
E380
E700
E700
EE00
EC00
FC00
FC00
EE00
E700
E700
E380
ENDCHAR
STARTCHAR lambda
ENCODING 955
SWIDTH 517 0
DWIDTH 10 0
BBX 10 15 0 0
BITMAP
7000
7800
1800
1C00
0C00
1C00
1E00
1E00
3E00
3700
3300
7380
7380
61C0
E0C0
ENDCHAR
STARTCHAR uni03BC
ENCODING 956
SWIDTH 560 0
DWIDTH 11 0
BBX 9 15 1 -4
BITMAP
E380
E380
E380
E380
E380
E380
E380
E380
E380
FF80
FD80
E000
E000
E000
E000
ENDCHAR
STARTCHAR nu
ENCODING 957
SWIDTH 467 0
DWIDTH 9 0
BBX 9 11 0 0
BITMAP
E180
6380
6300
7300
3300
3600
3600
1E00
1C00
1C00
1C00
ENDCHAR
STARTCHAR xi
ENCODING 958
SWIDTH 482 0
DWIDTH 10 0
BBX 8 18 1 -4
BITMAP
1F
7E
60
60
60
3E
3E
60
E0
C0
C0
E0
78
3E
07
03
06
06
ENDCHAR
STARTCHAR omicron
ENCODING 959
SWIDTH 533 0
DWIDTH 11 0
BBX 9 11 1 0
BITMAP
3C00
7F00
E300
C380
C180
C180
C180
C380
E300
7F00
3E00
ENDCHAR
STARTCHAR pi
ENCODING 960
SWIDTH 584 0
DWIDTH 12 0
BBX 10 11 1 0
BITMAP
FFC0
FFC0
6380
6380
6380
6380
6380
6380
6380
63C0
61C0
ENDCHAR
STARTCHAR rho
ENCODING 961
SWIDTH 531 0
DWIDTH 11 0
BBX 9 15 1 -4
BITMAP
3E00
7F00
6300
E380
E380
E380
E380
E380
E300
FF00
FE00
E000
E000
E000
E000
ENDCHAR
STARTCHAR sigma1
ENCODING 962
SWIDTH 492 0
DWIDTH 10 0
BBX 8 15 1 -4
BITMAP
3C
7E
E3
C3
C0
C0
C0
C0
E0
78
3E
06
06
06
04
ENDCHAR
STARTCHAR sigma
ENCODING 963
SWIDTH 535 0
DWIDTH 11 0
BBX 9 11 1 0
BITMAP
3F80
7F80
E300
C300
C380
C380
C380
C380
E300
7F00
3C00
ENDCHAR
STARTCHAR tau
ENCODING 964
SWIDTH 490 0
DWIDTH 10 0
BBX 8 11 1 0
BITMAP
FF
FF
18
18
18
18
18
18
18
1E
0E
ENDCHAR
STARTCHAR upsilon
ENCODING 965
SWIDTH 513 0
DWIDTH 10 0
BBX 8 11 1 0
BITMAP
E7
E3
E3
E3
E3
E3
E3
E3
E7
7E
3C
ENDCHAR
STARTCHAR phi
ENCODING 966
SWIDTH 683 0
DWIDTH 14 0
BBX 12 16 1 -5
BITMAP
4380
67E0
E660
C670
C630
C630
C670
E670
66E0
7FC0
1F80
0600
0600
0600
0600
0600
ENDCHAR
STARTCHAR chi
ENCODING 967
SWIDTH 512 0
DWIDTH 10 0
BBX 9 15 1 -4
BITMAP
C380
E300
7700
3600
3E00
1C00
1C00
1C00
1C00
3C00
3600
7600
6700
6380
C180
ENDCHAR
STARTCHAR psi
ENCODING 968
SWIDTH 680 0
DWIDTH 14 0
BBX 12 16 1 -5
BITMAP
C660
C660
C670
C670
C630
C630
C670
E660
76E0
7FC0
1F80
0600
0600
0600
0600
0600
ENDCHAR
STARTCHAR omega
ENCODING 969
SWIDTH 766 0
DWIDTH 15 0
BBX 13 11 1 0
BITMAP
6030
6038
E018
C718
C718
C718
C718
E718
E738
7DF0
38E0
ENDCHAR
STARTCHAR iotadieresis
ENCODING 970
SWIDTH 318 0
DWIDTH 6 0
BBX 7 15 -1 0
BITMAP
E6
66
00
00
18
18
18
18
18
18
18
18
18
1E
0E
ENDCHAR
STARTCHAR upsilondieresis
ENCODING 971
SWIDTH 513 0
DWIDTH 10 0
BBX 8 15 1 0
BITMAP
67
66
00
00
E7
E3
E3
E3
E3
E3
E3
E3
E7
7E
3C
ENDCHAR
STARTCHAR omicrontonos
ENCODING 972
SWIDTH 533 0
DWIDTH 11 0
BBX 9 16 1 0
BITMAP
0C00
0C00
0800
0000
0000
3C00
7F00
E300
C380
C180
C180
C180
C380
E300
7F00
3E00
ENDCHAR
STARTCHAR upsilontonos
ENCODING 973
SWIDTH 513 0
DWIDTH 10 0
BBX 8 16 1 0
BITMAP
0C
08
18
00
00
E7
E3
E3
E3
E3
E3
E3
E3
E7
7E
3C
ENDCHAR
STARTCHAR omegatonos
ENCODING 974
SWIDTH 766 0
DWIDTH 15 0
BBX 13 15 1 0
BITMAP
0300
0300
0200
0000
6030
6038
E018
C718
C718
C718
C718
E718
E738
7DF0
38E0
ENDCHAR
STARTCHAR theta1
ENCODING 977
SWIDTH 552 0
DWIDTH 11 0
BBX 10 14 1 0
BITMAP
0E00
1F00
3B80
3380
3380
3B80
1F80
CFC0
C7C0
C380
E380
E300
7F00
3E00
ENDCHAR
STARTCHAR Upsilon1
ENCODING 978
SWIDTH 531 0
DWIDTH 11 0
BBX 11 14 0 0
BITMAP
E0E0
E1E0
7180
3180
3B00
1B00
1F00
0E00
0E00
0E00
0E00
0E00
0E00
0E00
ENDCHAR
STARTCHAR omega1
ENCODING 982
SWIDTH 755 0
DWIDTH 15 0
BBX 15 11 0 0
BITMAP
FFFE
FFFE
701C
700C
638C
638C
638C
738C
739C
3EF8
1C70
ENDCHAR
STARTCHAR uni0400
ENCODING 1024
SWIDTH 529 0
DWIDTH 11 0
BBX 9 18 1 0
BITMAP
3000
1800
0C00
0000
FF80
FF80
E000
E000
E000
E000
FF00
FF00
E000
E000
E000
E000
FF80
FF80
ENDCHAR
STARTCHAR uni0401
ENCODING 1025
SWIDTH 529 0
DWIDTH 11 0
BBX 9 17 1 0
BITMAP
7300
7300
0000
FF80
FF80
E000
E000
E000
E000
FF00
FF00
E000
E000
E000
E000
FF80
FF80
ENDCHAR
STARTCHAR uni0402
ENCODING 1026
SWIDTH 699 0
DWIDTH 14 0
BBX 13 14 0 0
BITMAP
FFE0
FFE0
0C00
0C00
0C00
0FE0
0FF0
0C38
0C18
0C18
0C18
0C38
0CF0
0CE0
ENDCHAR
STARTCHAR uni0403
ENCODING 1027
SWIDTH 522 0
DWIDTH 10 0
BBX 9 18 1 0
BITMAP
0700
0E00
0C00
0000
FF80
FF80
E000
E000
E000
E000
E000
E000
E000
E000
E000
E000
E000
E000
ENDCHAR
STARTCHAR uni0404
ENCODING 1028
SWIDTH 624 0
DWIDTH 12 0
BBX 10 14 1 0
BITMAP
1F00
3F80
71C0
E0C0
E0C0
C000
FE00
FE00
C000
E0C0
E0C0
71C0
3F80
1F00
ENDCHAR
STARTCHAR uni0405
ENCODING 1029
SWIDTH 567 0
DWIDTH 11 0
BBX 10 14 1 0
BITMAP
3E00
7F80
E180
E1C0
E000
7000
3E00
1F00
0380
C1C0
C1C0
E180
7F80
1F00
ENDCHAR
STARTCHAR uni0406
ENCODING 1030
SWIDTH 271 0
DWIDTH 5 0
BBX 2 14 2 0
BITMAP
C0
C0
C0
C0
C0
C0
C0
C0
C0
C0
C0
C0
C0
C0
ENDCHAR
STARTCHAR uni0407
ENCODING 1031
SWIDTH 271 0
DWIDTH 5 0
BBX 7 17 -1 0
BITMAP
E6
E6
00
18
18
18
18
18
18
18
18
18
18
18
18
18
18
ENDCHAR
STARTCHAR uni0408
ENCODING 1032
SWIDTH 521 0
DWIDTH 10 0
BBX 8 14 1 0
BITMAP
03
03
03
03
03
03
03
03
03
03
C3
C7
FE
7C
ENDCHAR
STARTCHAR uni0409
ENCODING 1033
SWIDTH 990 0
DWIDTH 20 0
BBX 19 14 0 0
BITMAP
1FF000
1FF000
1C7000
187000
187000
187F80
187FC0
1870E0
187060
187060
187060
3870E0
F07FC0
E07F80
ENDCHAR
STARTCHAR uni040A
ENCODING 1034
SWIDTH 991 0
DWIDTH 20 0
BBX 18 14 1 0
BITMAP
E0E000
E0E000
E0E000
E0E000
E0E000
E0FF00
FFFF80
FFE1C0
E0E0C0
E0E0C0
E0E0C0
E0E1C0
E0FF80
E0FF00
ENDCHAR
STARTCHAR uni040B
ENCODING 1035
SWIDTH 736 0
DWIDTH 15 0
BBX 12 14 1 0
BITMAP
FFC0
FFC0
1800
1800
1800
1FC0
1FE0
1870
1830
1830
1830
1830
1830
1830
ENDCHAR
STARTCHAR uni040C
ENCODING 1036
SWIDTH 590 0
DWIDTH 12 0
BBX 11 18 1 0
BITMAP
0600
0E00
0C00
0000
E1C0
E180
E380
E700
EE00
EC00
FC00
FE00
F600
E700
E380
E380
E1C0
E0E0
ENDCHAR
STARTCHAR uni040D
ENCODING 1037
SWIDTH 659 0
DWIDTH 13 0
BBX 11 18 1 0
BITMAP
1800
0C00
0E00
0000
E0E0
E0E0
E1E0
E3E0
E3E0
E7E0
E6E0
ECE0
ECE0
F8E0
F8E0
F0E0
F0E0
E0E0
ENDCHAR
STARTCHAR uni040E
ENCODING 1038
SWIDTH 589 0
DWIDTH 12 0
BBX 10 18 1 0
BITMAP
3300
3300
1E00
0000
C1C0
E1C0
6180
7380
3380
3300
3F00
1E00
1E00
0E00
0C00
1C00
7800
7000
ENDCHAR
STARTCHAR uni040F
ENCODING 1039
SWIDTH 659 0
DWIDTH 13 0
BBX 11 18 1 -4
BITMAP
E0E0
E0E0
E0E0
E0E0
E0E0
E0E0
E0E0
E0E0
E0E0
E0E0
E0E0
E0E0
FFE0
FFE0
0E00
0E00
0E00
0E00
ENDCHAR
STARTCHAR uni0410
ENCODING 1040
SWIDTH 625 0
DWIDTH 13 0
BBX 12 14 0 0
BITMAP
0700
0700
0F00
0F80
0D80
1980
19C0
18C0
38C0
3FE0
7FE0
7060
6070
E030
ENDCHAR
STARTCHAR uni0411
ENCODING 1041
SWIDTH 587 0
DWIDTH 12 0
BBX 10 14 1 0
BITMAP
FF80
FF80
E000
E000
E000
FF00
FF80
E1C0
E0C0
E0C0
E0C0
E1C0
FF80
FF00
ENDCHAR
STARTCHAR uni0412
ENCODING 1042
SWIDTH 592 0
DWIDTH 12 0
BBX 10 14 1 0
BITMAP
FF00
FF80
E180
E1C0
E180
E180
FF00
FF80
E180
E1C0
E1C0
E1C0
FF80
FF00
ENDCHAR
STARTCHAR uni0413
ENCODING 1043
SWIDTH 522 0
DWIDTH 10 0
BBX 9 14 1 0
BITMAP
FF80
FF80
E000
E000
E000
E000
E000
E000
E000
E000
E000
E000
E000
E000
ENDCHAR
STARTCHAR uni0414
ENCODING 1044
SWIDTH 703 0
DWIDTH 14 0
BBX 14 18 0 -4
BITMAP
0FF0
0FF0
1C30
1C30
1C30
1C30
1C30
1C30
1830
1830
3830
3030
FFFC
FFFC
E01C
E01C
E01C
E018
ENDCHAR
STARTCHAR uni0415
ENCODING 1045
SWIDTH 529 0
DWIDTH 11 0
BBX 9 14 1 0
BITMAP
FF80
FF80
E000
E000
E000
E000
FF00
FF00
E000
E000
E000
E000
FF80
FF80
ENDCHAR
STARTCHAR uni0416
ENCODING 1046
SWIDTH 898 0
DWIDTH 18 0
BBX 17 14 1 0
BITMAP
E18700
E18700
718E00
318C00
399C00
199800
1FF800
1FF800
399C00
398C00
718E00
718600
E18700
E18380
ENDCHAR
STARTCHAR uni0417
ENCODING 1047
SWIDTH 568 0
DWIDTH 11 0
BBX 9 14 1 0
BITMAP
3E00
7F00
E380
C180
0180
0380
1F00
1F00
0380
0180
C180
E380
7F80
3E00
ENDCHAR
STARTCHAR uni0418
ENCODING 1048
SWIDTH 659 0
DWIDTH 13 0
BBX 11 14 1 0
BITMAP
E0E0
E0E0
E1E0
E3E0
E3E0
E7E0
E6E0
ECE0
ECE0
F8E0
F8E0
F0E0
F0E0
E0E0
ENDCHAR
STARTCHAR uni0419
ENCODING 1049
SWIDTH 659 0
DWIDTH 13 0
BBX 11 18 1 0
BITMAP
3180
1B00
0E00
0000
E0E0
E0E0
E1E0
E3E0
E3E0
E7E0
E6E0
ECE0
ECE0
F8E0
F8E0
F0E0
F0E0
E0E0
ENDCHAR
STARTCHAR uni041A
ENCODING 1050
SWIDTH 603 0
DWIDTH 12 0
BBX 11 14 1 0
BITMAP
E1C0
E1C0
E380
E300
E700
EE00
FC00
FE00
E600
E700
E380
E180
E1C0
E0E0
ENDCHAR
STARTCHAR uni041B
ENCODING 1051
SWIDTH 661 0
DWIDTH 13 0
BBX 12 14 0 0
BITMAP
1FF0
1FF0
1C70
1870
1870
1870
1870
1870
1870
1870
1870
3870
F070
E070
ENDCHAR
STARTCHAR uni041C
ENCODING 1052
SWIDTH 815 0
DWIDTH 16 0
BBX 14 14 1 0
BITMAP
F01C
F03C
F03C
F83C
F86C
F86C
EC6C
ECCC
ECCC
E6CC
E78C
E78C
E38C
E30C
ENDCHAR
STARTCHAR uni041D
ENCODING 1053
SWIDTH 663 0
DWIDTH 13 0
BBX 11 14 1 0
BITMAP
E0E0
E0E0
E0E0
E0E0
E0E0
E0E0
FFE0
FFE0
E0E0
E0E0
E0E0
E0E0
E0E0
E0E0
ENDCHAR
STARTCHAR uni041E
ENCODING 1054
SWIDTH 645 0
DWIDTH 13 0
BBX 11 14 1 0
BITMAP
1F00
3F80
71C0
E0C0
E0E0
C0E0
C0E0
C0E0
C0E0
E0E0
E0C0
71C0
3F80
1F00
ENDCHAR
STARTCHAR uni041F
ENCODING 1055
SWIDTH 663 0
DWIDTH 13 0
BBX 11 14 1 0
BITMAP
FFE0
FFE0
E0E0
E0E0
E0E0
E0E0
E0E0
E0E0
E0E0
E0E0
E0E0
E0E0
E0E0
E0E0
ENDCHAR
STARTCHAR uni0420
ENCODING 1056
SWIDTH 600 0
DWIDTH 12 0
BBX 10 14 1 0
BITMAP
FF00
FF80
E1C0
E0C0
E0C0
E0C0
E1C0
FF80
FF00
E000
E000
E000
E000
E000
ENDCHAR
STARTCHAR uni0421
ENCODING 1057
SWIDTH 610 0
DWIDTH 12 0
BBX 10 14 1 0
BITMAP
1F00
3F80
71C0
E0C0
E0C0
C000
C000
C000
C000
E0C0
E0C0
71C0
3F80
1F00
ENDCHAR
STARTCHAR uni0422
ENCODING 1058
SWIDTH 570 0
DWIDTH 11 0
BBX 11 14 0 0
BITMAP
FFE0
FFE0
0E00
0E00
0E00
0E00
0E00
0E00
0E00
0E00
0E00
0E00
0E00
0E00
ENDCHAR
STARTCHAR uni0423
ENCODING 1059
SWIDTH 589 0
DWIDTH 12 0
BBX 10 14 1 0
BITMAP
C1C0
E1C0
6180
7380
3380
3300
3F00
1E00
1E00
0E00
0C00
1C00
7800
7000
ENDCHAR
STARTCHAR uni0424
ENCODING 1060
SWIDTH 749 0
DWIDTH 15 0
BBX 13 15 1 -1
BITMAP
0700
0700
1FC0
7FF0
6730
E718
C718
C718
C718
C718
6730
7FF0
1FC0
0700
0700
ENDCHAR
STARTCHAR uni0425
ENCODING 1061
SWIDTH 593 0
DWIDTH 12 0
BBX 10 14 1 0
BITMAP
E1C0
E1C0
7380
3300
3F00
1E00
1E00
1E00
1E00
3F00
7300
7380
E1C0
C1C0
ENDCHAR
STARTCHAR uni0426
ENCODING 1062
SWIDTH 700 0
DWIDTH 14 0
BBX 12 17 1 -3
BITMAP
E0E0
E0E0
E0E0
E0E0
E0E0
E0E0
E0E0
E0E0
E0E0
E0E0
E0E0
E0E0
FFF0
FFF0
0030
0030
0030
ENDCHAR
STARTCHAR uni0427
ENCODING 1063
SWIDTH 647 0
DWIDTH 13 0
BBX 11 14 1 0
BITMAP
E0E0
E0E0
E0E0
E0E0
E0E0
E0E0
60E0
7FE0
1FE0
00E0
00E0
00E0
00E0
00E0
ENDCHAR
STARTCHAR uni0428
ENCODING 1064
SWIDTH 887 0
DWIDTH 18 0
BBX 15 14 1 0
BITMAP
E186
E186
E186
E186
E186
E186
E186
E186
E186
E186
E186
E186
FFFE
FFFE
ENDCHAR
STARTCHAR uni0429
ENCODING 1065
SWIDTH 933 0
DWIDTH 19 0
BBX 17 17 1 -3
BITMAP
E18600
E18600
E18600
E18600
E18600
E18600
E18600
E18600
E18600
E18600
E18600
E18600
FFFF80
FFFF80
000180
000180
000180
ENDCHAR
STARTCHAR uni042A
ENCODING 1066
SWIDTH 712 0
DWIDTH 14 0
BBX 14 14 0 0
BITMAP
FC00
FC00
0C00
0C00
0C00
0FE0
0FF8
0C38
0C18
0C1C
0C18
0C38
0FF8
0FE0
ENDCHAR
STARTCHAR uni042B
ENCODING 1067
SWIDTH 812 0
DWIDTH 16 0
BBX 14 14 1 0
BITMAP
E01C
E01C
E01C
E01C
E01C
FF1C
FF9C
E1DC
E0DC
E0DC
E0DC
E1DC
FF9C
FF1C
ENDCHAR
STARTCHAR uni042C
ENCODING 1068
SWIDTH 587 0
DWIDTH 12 0
BBX 10 14 1 0
BITMAP
E000
E000
E000
E000
E000
FF00
FF80
E1C0
E0C0
E0C0
E0C0
E1C0
FF80
FF00
ENDCHAR
STARTCHAR uni042D
ENCODING 1069
SWIDTH 618 0
DWIDTH 12 0
BBX 10 14 1 0
BITMAP
1E00
7F80
61C0
E1C0
C0C0
00C0
0FC0
0FC0
00C0
C0C0
E0C0
61C0
7F80
1E00
ENDCHAR
STARTCHAR uni042E
ENCODING 1070
SWIDTH 857 0
DWIDTH 17 0
BBX 15 14 1 0
BITMAP
E0F0
E3FC
E70C
E60E
E606
EE06
FE06
FE06
EE06
E606
E60E
E70C
E3FC
E0F0
ENDCHAR
STARTCHAR uni042F
ENCODING 1071
SWIDTH 577 0
DWIDTH 12 0
BBX 9 14 1 0
BITMAP
3F80
7F80
E180
C180
C180
C180
E180
7F80
3F80
3180
7180
6180
E180
C180
ENDCHAR
STARTCHAR uni0430
ENCODING 1072
SWIDTH 506 0
DWIDTH 10 0
BBX 8 11 1 0
BITMAP
3C
7E
E7
03
3F
73
C3
C3
C7
FF
7B
ENDCHAR
STARTCHAR uni0431
ENCODING 1073
SWIDTH 527 0
DWIDTH 11 0
BBX 9 15 1 0
BITMAP
0300
0F00
3E00
7000
6000
DE00
FF00
E300
C380
C180
C180
C380
E300
7F00
3E00
ENDCHAR
STARTCHAR uni0432
ENCODING 1074
SWIDTH 534 0
DWIDTH 11 0
BBX 9 11 1 0
BITMAP
FE00
FF00
E300
E300
FF00
FF00
E380
E180
E380
FF00
FE00
ENDCHAR
STARTCHAR uni0433
ENCODING 1075
SWIDTH 395 0
DWIDTH 8 0
BBX 7 11 1 0
BITMAP
FE
FE
E0
E0
E0
E0
E0
E0
E0
E0
E0
ENDCHAR
STARTCHAR uni0434
ENCODING 1076
SWIDTH 584 0
DWIDTH 12 0
BBX 11 14 0 -3
BITMAP
1FC0
1FC0
18C0
18C0
18C0
18C0
18C0
38C0
30C0
FFE0
FFE0
E060
E060
E060
ENDCHAR
STARTCHAR uni0435
ENCODING 1077
SWIDTH 504 0
DWIDTH 10 0
BBX 8 11 1 0
BITMAP
3C
7F
E3
C3
FF
FF
C0
C0
E1
7F
3E
ENDCHAR
STARTCHAR uni0436
ENCODING 1078
SWIDTH 763 0
DWIDTH 15 0
BBX 14 11 1 0
BITMAP
E718
E738
6730
7770
3760
1FE0
3FE0
7770
7730
E738
C71C
ENDCHAR
STARTCHAR uni0437
ENCODING 1079
SWIDTH 480 0
DWIDTH 10 0
BBX 8 11 1 0
BITMAP
3C
FE
C7
07
3E
3E
07
07
C7
FE
7C
ENDCHAR
STARTCHAR uni0438
ENCODING 1080
SWIDTH 537 0
DWIDTH 11 0
BBX 9 11 1 0
BITMAP
E380
E780
E780
EF80
EF80
FB80
FB80
F380
F380
E380
E380
ENDCHAR
STARTCHAR uni0439
ENCODING 1081
SWIDTH 537 0
DWIDTH 11 0
BBX 9 15 1 0
BITMAP
6300
3600
1C00
0000
E380
E780
E780
EF80
EF80
FB80
FB80
F380
F380
E380
E380
ENDCHAR
STARTCHAR uni043A
ENCODING 1082
SWIDTH 522 0
DWIDTH 10 0
BBX 9 11 1 0
BITMAP
E380
E700
E600
EE00
EC00
FC00
FC00
EE00
E700
E700
E380
ENDCHAR
STARTCHAR uni043B
ENCODING 1083
SWIDTH 538 0
DWIDTH 11 0
BBX 10 11 0 0
BITMAP
3FC0
3FC0
39C0
39C0
31C0
31C0
31C0
31C0
31C0
F1C0
E1C0
ENDCHAR
STARTCHAR uni043C
ENCODING 1084
SWIDTH 703 0
DWIDTH 14 0
BBX 12 11 1 0
BITMAP
E070
F0F0
F0F0
F0F0
F9F0
F9F0
EF70
EF70
EF70
E670
E670
ENDCHAR
STARTCHAR uni043D
ENCODING 1085
SWIDTH 537 0
DWIDTH 11 0
BBX 9 11 1 0
BITMAP
E380
E380
E380
E380
E380
FF80
FF80
E380
E380
E380
E380
ENDCHAR
STARTCHAR uni043E
ENCODING 1086
SWIDTH 533 0
DWIDTH 11 0
BBX 9 11 1 0
BITMAP
3C00
7F00
E300
C380
C180
C180
C180
C380
E300
7F00
3E00
ENDCHAR
STARTCHAR uni043F
ENCODING 1087
SWIDTH 537 0
DWIDTH 11 0
BBX 9 11 1 0
BITMAP
FF80
FF80
E380
E380
E380
E380
E380
E380
E380
E380
E380
ENDCHAR
STARTCHAR uni0440
ENCODING 1088
SWIDTH 528 0
DWIDTH 11 0
BBX 9 15 1 -4
BITMAP
DE00
FF00
E300
E380
E380
E380
E380
E380
E300
FF00
FE00
E000
E000
E000
E000
ENDCHAR
STARTCHAR uni0441
ENCODING 1089
SWIDTH 491 0
DWIDTH 10 0
BBX 8 11 1 0
BITMAP
3C
7E
E3
C3
C0
C0
C0
C3
E3
7E
3C
ENDCHAR
STARTCHAR uni0442
ENCODING 1090
SWIDTH 468 0
DWIDTH 9 0
BBX 9 11 0 0
BITMAP
FF80
FF80
1C00
1C00
1C00
1C00
1C00
1C00
1C00
1C00
1C00
ENDCHAR
STARTCHAR uni0443
ENCODING 1091
SWIDTH 460 0
DWIDTH 9 0
BBX 9 15 0 -4
BITMAP
E380
6380
6300
7300
3700
3600
3600
1E00
1C00
1C00
0C00
1800
1800
7800
7000
ENDCHAR
STARTCHAR uni0444
ENCODING 1092
SWIDTH 680 0
DWIDTH 14 0
BBX 12 19 1 -4
BITMAP
0600
0600
0600
0600
3FC0
7FE0
E660
C670
C670
C670
C670
C670
E660
7FE0
3FC0
0600
0600
0600
0600
ENDCHAR
STARTCHAR uni0445
ENCODING 1093
SWIDTH 474 0
DWIDTH 10 0
BBX 8 11 1 0
BITMAP
C7
E6
6E
7C
3C
38
3C
7C
6E
E6
C7
ENDCHAR
STARTCHAR uni0446
ENCODING 1094
SWIDTH 567 0
DWIDTH 11 0
BBX 10 14 1 -3
BITMAP
E380
E380
E380
E380
E380
E380
E380
E380
E380
FFC0
FFC0
00C0
00C0
00C0
ENDCHAR
STARTCHAR uni0447
ENCODING 1095
SWIDTH 517 0
DWIDTH 10 0
BBX 8 11 1 0
BITMAP
C3
C3
C3
C3
C3
E3
7F
3F
03
03
03
ENDCHAR
STARTCHAR uni0448
ENCODING 1096
SWIDTH 766 0
DWIDTH 15 0
BBX 13 11 1 0
BITMAP
E718
E718
E718
E718
E718
E718
E718
E718
E718
FFF8
FFF8
ENDCHAR
STARTCHAR uni0449
ENCODING 1097
SWIDTH 814 0
DWIDTH 16 0
BBX 15 14 1 -3
BITMAP
E718
E718
E718
E718
E718
E718
E718
E718
E718
FFFE
FFFE
000E
000E
000E
ENDCHAR
STARTCHAR uni044A
ENCODING 1098
SWIDTH 599 0
DWIDTH 12 0
BBX 11 11 0 0
BITMAP
F800
F800
1800
1FC0
1FE0
1860
1860
1860
1860
1FE0
1FC0
ENDCHAR
STARTCHAR uni044B
ENCODING 1099
SWIDTH 756 0
DWIDTH 15 0
BBX 13 11 1 0
BITMAP
E038
E038
E038
FE38
FF38
E338
E3B8
E3B8
E338
FF38
FE38
ENDCHAR
STARTCHAR uni044C
ENCODING 1100
SWIDTH 519 0
DWIDTH 10 0
BBX 9 11 1 0
BITMAP
E000
E000
E000
FE00
FF00
E300
E380
E380
E300
FF00
FE00
ENDCHAR
STARTCHAR uni044D
ENCODING 1101
SWIDTH 495 0
DWIDTH 10 0
BBX 8 11 1 0
BITMAP
3C
7E
C7
C3
1F
1F
03
C3
C7
7E
3C
ENDCHAR
STARTCHAR uni044E
ENCODING 1102
SWIDTH 758 0
DWIDTH 15 0
BBX 13 11 1 0
BITMAP
E1E0
E3F0
E638
E618
FE18
FE18
EE18
E618
E638
E3F0
E1E0
ENDCHAR
STARTCHAR uni044F
ENCODING 1103
SWIDTH 521 0
DWIDTH 10 0
BBX 8 11 1 0
BITMAP
3F
FF
C3
C3
C3
FF
3F
73
63
E3
C3
ENDCHAR
STARTCHAR uni0450
ENCODING 1104
SWIDTH 504 0
DWIDTH 10 0
BBX 8 15 1 0
BITMAP
70
30
18
00
3C
7F
E3
C3
FF
FF
C0
C0
E1
7F
3E
ENDCHAR
STARTCHAR uni0451
ENCODING 1105
SWIDTH 504 0
DWIDTH 10 0
BBX 8 15 1 0
BITMAP
67
66
00
00
3C
7F
E3
C3
FF
FF
C0
C0
E1
7F
3E
ENDCHAR
STARTCHAR uni0452
ENCODING 1106
SWIDTH 521 0
DWIDTH 10 0
BBX 9 19 0 -4
BITMAP
6000
FC00
FC00
6000
6F00
7F80
7180
6180
6180
6180
6180
6180
6180
6180
6180
0180
0180
0780
0700
ENDCHAR
STARTCHAR uni0453
ENCODING 1107
SWIDTH 395 0
DWIDTH 8 0
BBX 7 15 1 0
BITMAP
1C
18
30
00
FE
FE
E0
E0
E0
E0
E0
E0
E0
E0
E0
ENDCHAR
STARTCHAR uni0454
ENCODING 1108
SWIDTH 495 0
DWIDTH 10 0
BBX 8 11 1 0
BITMAP
3C
7E
E3
C3
F8
F8
C0
C3
E3
7E
3C
ENDCHAR
STARTCHAR uni0455
ENCODING 1109
SWIDTH 484 0
DWIDTH 10 0
BBX 8 11 1 0
BITMAP
3C
7E
C7
C0
F0
7E
0F
07
C7
FE
3C
ENDCHAR
STARTCHAR uni0456
ENCODING 1110
SWIDTH 248 0
DWIDTH 5 0
BBX 3 16 1 0
BITMAP
40
E0
E0
00
00
E0
E0
E0
E0
E0
E0
E0
E0
E0
E0
E0
ENDCHAR
STARTCHAR uni0457
ENCODING 1111
SWIDTH 255 0
DWIDTH 5 0
BBX 7 15 -1 0
BITMAP
C6
C6
00
00
38
38
38
38
38
38
38
38
38
38
38
ENDCHAR
STARTCHAR uni0458
ENCODING 1112
SWIDTH 243 0
DWIDTH 5 0
BBX 5 19 -1 -4
BITMAP
38
30
00
00
38
38
38
38
38
38
38
38
38
38
38
38
38
F0
E0
ENDCHAR
STARTCHAR uni0459
ENCODING 1113
SWIDTH 794 0
DWIDTH 16 0
BBX 15 11 0 0
BITMAP
3F80
3F80
3980
3980
31F8
31FE
3186
3186
3186
F1FE
E1FC
ENDCHAR
STARTCHAR uni045A
ENCODING 1114
SWIDTH 802 0
DWIDTH 16 0
BBX 15 11 1 0
BITMAP
E380
E380
E380
E380
FFF8
FFFC
E38C
E38E
E38C
E3FC
E3F8
ENDCHAR
STARTCHAR uni045B
ENCODING 1115
SWIDTH 531 0
DWIDTH 11 0
BBX 9 15 0 0
BITMAP
6000
FC00
FC00
6000
6F00
7F80
7180
6180
6180
6180
6180
6180
6180
6180
6180
ENDCHAR
STARTCHAR uni045C
ENCODING 1116
SWIDTH 522 0
DWIDTH 10 0
BBX 9 15 1 0
BITMAP
0600
0C00
1800
0000
E380
E700
E600
EE00
EC00
FC00
FC00
EE00
E700
E700
E380
ENDCHAR
STARTCHAR uni045D
ENCODING 1117
SWIDTH 537 0
DWIDTH 11 0
BBX 9 15 1 0
BITMAP
7000
3800
1800
0000
E380
E780
E780
EF80
EF80
FB80
FB80
F380
F380
E380
E380
ENDCHAR
STARTCHAR uni045E
ENCODING 1118
SWIDTH 460 0
DWIDTH 9 0
BBX 9 19 0 -4
BITMAP
2300
3700
1E00
0000
E380
6380
6300
7300
3700
3600
3600
1E00
1C00
1C00
0C00
1800
1800
7800
7000
ENDCHAR
STARTCHAR uni045F
ENCODING 1119
SWIDTH 537 0
DWIDTH 11 0
BBX 9 14 1 -3
BITMAP
E380
E380
E380
E380
E380
E380
E380
E380
E380
FF80
FF80
1C00
1C00
1C00
ENDCHAR
STARTCHAR uni0460
ENCODING 1120
SWIDTH 854 0
DWIDTH 17 0
BBX 15 14 1 0
BITMAP
E38E
E38E
E38E
E38E
E38E
E38E
E38E
E38E
E38E
E38E
E38E
638E
7FFC
3C78
ENDCHAR
STARTCHAR uni0461
ENCODING 1121
SWIDTH 739 0
DWIDTH 15 0
BBX 13 11 1 0
BITMAP
C718
C718
C718
C718
C718
C718
C718
C718
E738
7FF0
3DE0
ENDCHAR
STARTCHAR uni0462
ENCODING 1122
SWIDTH 587 0
DWIDTH 12 0
BBX 11 14 0 0
BITMAP
7000
FC00
FC00
7000
7000
7F80
7FC0
70E0
7060
7060
7060
70E0
7FC0
7F80
ENDCHAR
STARTCHAR uni0463
ENCODING 1123
SWIDTH 518 0
DWIDTH 10 0
BBX 10 15 0 0
BITMAP
7000
7000
7000
FC00
FC00
7000
7000
7F00
7F80
7180
71C0
71C0
7180
7F80
7F00
ENDCHAR
STARTCHAR uni0464
ENCODING 1124
SWIDTH 833 0
DWIDTH 17 0
BBX 15 14 1 0
BITMAP
E1F0
E3FC
E71C
E60E
E60E
EE00
FFE0
FFE0
EE00
E60E
E60E
E71C
E3FC
E1F0
ENDCHAR
STARTCHAR uni0465
ENCODING 1125
SWIDTH 701 0
DWIDTH 14 0
BBX 12 11 1 0
BITMAP
E3C0
E7F0
EE30
EC30
FFC0
FFC0
EC00
EC30
EE30
E7E0
E3C0
ENDCHAR
STARTCHAR uni0466
ENCODING 1126
SWIDTH 597 0
DWIDTH 12 0
BBX 12 14 0 0
BITMAP
0700
0F00
0F00
0F00
1F80
1980
1980
39C0
3FC0
3FC0
76E0
7660
6660
E670
ENDCHAR
STARTCHAR uni0467
ENCODING 1127
SWIDTH 516 0
DWIDTH 10 0
BBX 10 11 0 0
BITMAP
0C00
1E00
1E00
1E00
3B00
3300
3F00
7F80
6D80
6D80
EDC0
ENDCHAR
STARTCHAR uni0468
ENCODING 1128
SWIDTH 851 0
DWIDTH 17 0
BBX 15 14 2 0
BITMAP
C0C0
C1E0
C1E0
C1E0
C3F0
C330
C330
C738
FFF8
FFF8
CEDC
CCDC
CCCC
DCCE
ENDCHAR
STARTCHAR uni0469
ENCODING 1129
SWIDTH 729 0
DWIDTH 15 0
BBX 13 11 1 0
BITMAP
E1C0
E1C0
E3C0
E3E0
E360
E760
FFF0
FFF0
EFB0
EDB8
ED98
ENDCHAR
STARTCHAR uni046A
ENCODING 1130
SWIDTH 810 0
DWIDTH 16 0
BBX 14 14 1 0
BITMAP
3FF8
3FF0
1C70
0CE0
0EC0
07C0
3FF0
7FF8
E31C
E30C
E30C
E30C
E30C
E30C
ENDCHAR
STARTCHAR uni046B
ENCODING 1131
SWIDTH 689 0
DWIDTH 14 0
BBX 12 11 1 0
BITMAP
3FC0
3FC0
1980
1980
0F00
3F80
7FE0
E660
E670
E670
E670
ENDCHAR
STARTCHAR uni046C
ENCODING 1132
SWIDTH 1072 0
DWIDTH 21 0
BBX 18 14 2 0
BITMAP
C3FF80
C1FF00
C1C700
C0C600
C0EE00
C06C00
FFFF00
FFFF80
C739C0
C638C0
CE38C0
CE38C0
CE38C0
CE38C0
ENDCHAR
STARTCHAR uni046D
ENCODING 1133
SWIDTH 931 0
DWIDTH 19 0
BBX 16 11 1 0
BITMAP
E3FE
E1FE
E1CC
E0DC
E0F8
FFFC
FFFF
E733
E633
E633
E633
ENDCHAR
STARTCHAR uni046E
ENCODING 1134
SWIDTH 484 0
DWIDTH 10 0
BBX 9 23 0 -4
BITMAP
3300
1E00
0C00
0000
0000
7C00
7E00
0700
0300
0300
0700
3E00
3E00
0700
0300
0380
0300
3F00
7E00
E000
E000
7000
2000
ENDCHAR
STARTCHAR uni046F
ENCODING 1135
SWIDTH 464 0
DWIDTH 9 0
BBX 7 20 1 -4
BITMAP
CC
78
30
00
00
F8
FE
0E
06
7C
7C
06
06
0E
FE
F8
C0
C0
E0
40
ENDCHAR
STARTCHAR uni0470
ENCODING 1136
SWIDTH 665 0
DWIDTH 13 0
BBX 12 14 1 0
BITMAP
CE70
CE70
CE70
CE70
CE70
CE70
CE60
EEE0
7FC0
3F80
0E00
0E00
0E00
0E00
ENDCHAR
STARTCHAR uni0471
ENCODING 1137
SWIDTH 680 0
DWIDTH 14 0
BBX 12 16 1 -5
BITMAP
C660
C660
C670
C670
C630
C630
C670
E660
76E0
7FC0
1F80
0600
0600
0600
0600
0600
ENDCHAR
STARTCHAR uni0472
ENCODING 1138
SWIDTH 641 0
DWIDTH 13 0
BBX 11 14 1 0
BITMAP
1F00
3F80
71C0
E0C0
E0E0
C0E0
FFE0
FFE0
C0E0
E0E0
E0C0
71C0
3F80
1F00
ENDCHAR
STARTCHAR uni0473
ENCODING 1139
SWIDTH 530 0
DWIDTH 11 0
BBX 9 11 1 0
BITMAP
3C00
7F00
E300
C380
FF80
FF80
C380
C380
E300
7F00
3C00
ENDCHAR
STARTCHAR uni0474
ENCODING 1140
SWIDTH 598 0
DWIDTH 12 0
BBX 12 14 0 0
BITMAP
E030
6070
60E0
70C0
30C0
31C0
3980
1980
1980
1B00
0F00
0F00
0E00
0600
ENDCHAR
STARTCHAR uni0475
ENCODING 1141
SWIDTH 477 0
DWIDTH 10 0
BBX 9 11 1 0
BITMAP
C380
C700
C600
E600
6E00
6C00
6C00
3C00
3800
3800
3800
ENDCHAR
STARTCHAR uni0476
ENCODING 1142
SWIDTH 598 0
DWIDTH 12 0
BBX 12 18 0 0
BITMAP
7600
3600
1B00
0000
E030
6070
60E0
70C0
30C0
31C0
3980
1980
1980
1B00
0F00
0F00
0E00
0600
ENDCHAR
STARTCHAR uni0477
ENCODING 1143
SWIDTH 477 0
DWIDTH 10 0
BBX 10 15 0 0
BITMAP
EC00
6E00
3600
0000
61C0
6380
6300
7300
3700
3600
3600
1E00
1C00
1C00
1C00
ENDCHAR
STARTCHAR uni0478
ENCODING 1144
SWIDTH 1106 0
DWIDTH 22 0
BBX 21 18 1 -4
BITMAP
1F0000
3F8000
71C000
E0CE38
E0E630
C0E630
C0E730
C0E370
C0E360
E0E360
E0C3E0
71C1C0
3F81C0
1F01C0
000180
000180
000780
000700
ENDCHAR
STARTCHAR uni0479
ENCODING 1145
SWIDTH 994 0
DWIDTH 20 0
BBX 19 15 1 -4
BITMAP
3C30E0
7F38C0
E318C0
C399C0
C19D80
C18D80
C18F80
C38F00
E30700
7F0700
3E0600
000600
000600
001C00
001800
ENDCHAR
STARTCHAR uni047A
ENCODING 1146
SWIDTH 641 0
DWIDTH 13 0
BBX 11 16 1 -1
BITMAP
0400
1F00
3F80
75C0
E4C0
E0E0
C0E0
C0E0
C0E0
C0E0
E0E0
E4C0
75C0
3F80
1F00
0400
ENDCHAR
STARTCHAR uni047B
ENCODING 1147
SWIDTH 531 0
DWIDTH 11 0
BBX 9 13 1 -1
BITMAP
0800
3C00
7F00
EB00
C380
C180
C180
C180
DB80
FB00
7F00
3C00
1800
ENDCHAR
STARTCHAR uni047C
ENCODING 1148
SWIDTH 853 0
DWIDTH 17 0
BBX 15 18 1 0
BITMAP
07C0
0470
0180
0100
3318
701C
600C
E00E
E00E
E00E
E38E
E38E
E38E
E38E
E38E
638C
7FFC
3C78
ENDCHAR
STARTCHAR uni047D
ENCODING 1149
SWIDTH 734 0
DWIDTH 15 0
BBX 13 15 1 0
BITMAP
0F80
08E0
0300
0200
3260
7070
E030
C038
C038
C638
C638
C738
E730
7FF0
39E0
ENDCHAR
STARTCHAR uni047E
ENCODING 1150
SWIDTH 854 0
DWIDTH 17 0
BBX 15 18 1 0
BITMAP
0FE0
0100
0000
0000
E38E
E38E
E38E
E38E
E38E
E38E
E38E
E38E
E38E
E38E
E38E
638E
7FFC
3C78
ENDCHAR
STARTCHAR uni047F
ENCODING 1151
SWIDTH 739 0
DWIDTH 15 0
BBX 13 15 1 0
BITMAP
1FC0
0200
0000
0000
C718
C718
C718
C718
C718
C718
C718
C718
E738
7FF0
3DE0
ENDCHAR
STARTCHAR uni0480
ENCODING 1152
SWIDTH 593 0
DWIDTH 12 0
BBX 10 17 1 -3
BITMAP
1E00
7F80
7180
E1C0
E0C0
C000
C000
C000
C000
E000
E000
7000
7E00
1E00
0E00
0E00
0E00
ENDCHAR
STARTCHAR uni0481
ENCODING 1153
SWIDTH 503 0
DWIDTH 10 0
BBX 8 14 1 -3
BITMAP
3C
7E
E3
C3
C0
C0
C0
C0
E0
7C
3C
1C
1C
1C
ENDCHAR
STARTCHAR uni0482
ENCODING 1154
SWIDTH 584 0
DWIDTH 12 0
BBX 9 13 1 0
BITMAP
0180
0100
1B00
0E00
0700
0580
0C80
E800
3800
3C00
3600
6000
4000
ENDCHAR
STARTCHAR uni0483
ENCODING 1155
SWIDTH 0 0
DWIDTH 0 0
BBX 6 4 -8 12
BITMAP
04
04
FC
80
ENDCHAR
STARTCHAR uni0484
ENCODING 1156
SWIDTH 0 0
DWIDTH 0 0
BBX 7 2 -8 13
BITMAP
3C
E6
ENDCHAR
STARTCHAR uni0485
ENCODING 1157
SWIDTH 0 0
DWIDTH 0 0
BBX 2 3 -6 13
BITMAP
C0
40
40
ENDCHAR
STARTCHAR uni0486
ENCODING 1158
SWIDTH 0 0
DWIDTH 0 0
BBX 2 3 -5 13
BITMAP
C0
C0
80
ENDCHAR
STARTCHAR uni0488
ENCODING 1160
SWIDTH 0 0
DWIDTH 0 0
BBX 18 17 -14 -3
BITMAP
01C000
012000
100200
680500
000000
000000
000000
400080
A00340
000000
000000
000000
300200
480500
000000
00C000
012000
ENDCHAR
STARTCHAR uni0489
ENCODING 1161
SWIDTH 0 0
DWIDTH 0 0
BBX 18 18 -14 -4
BITMAP
004000
00C000
108000
100700
180C00
000000
000000
000000
E00180
2000C0
000000
000000
000400
080400
300600
00C200
008000
008000
ENDCHAR
STARTCHAR uni048A
ENCODING 1162
SWIDTH 722 0
DWIDTH 14 0
BBX 13 23 1 -5
BITMAP
1180
1B80
0F00
0000
E0E0
E0E0
E1E0
E3E0
E3E0
E7E0
E6E0
ECE0
ECE0
F8E0
F8E0
F0E0
F0E0
E0F8
0018
0018
0030
0030
0020
ENDCHAR
STARTCHAR uni048B
ENCODING 1163
SWIDTH 602 0
DWIDTH 12 0
BBX 11 20 1 -5
BITMAP
2300
3600
1E00
0000
E380
E780
E780
EF80
EF80
FB80
FB80
F380
F380
E380
E3E0
00E0
00C0
00C0
00C0
0080
ENDCHAR
STARTCHAR uni048C
ENCODING 1164
SWIDTH 587 0
DWIDTH 12 0
BBX 11 14 0 0
BITMAP
7000
FC00
FC00
7000
7000
7F80
7FC0
70E0
7060
7060
7060
70E0
7FC0
7F80
ENDCHAR
STARTCHAR uni048D
ENCODING 1165
SWIDTH 518 0
DWIDTH 10 0
BBX 10 16 0 0
BITMAP
7000
7000
FC00
FC00
7000
7000
7000
7000
7F00
7F80
7180
71C0
71C0
7180
7F80
7F00
ENDCHAR
STARTCHAR uni048E
ENCODING 1166
SWIDTH 592 0
DWIDTH 12 0
BBX 10 14 1 0
BITMAP
FF00
FF80
E1C0
E0C0
E0C0
E2C0
E3C0
FF80
FFC0
E040
E000
E000
E000
E000
ENDCHAR
STARTCHAR uni048F
ENCODING 1167
SWIDTH 530 0
DWIDTH 11 0
BBX 9 15 1 -4
BITMAP
DE00
FF00
E300
E380
E380
E380
E380
EF80
E700
FF00
FF80
E000
E000
E000
E000
ENDCHAR
STARTCHAR uni0490
ENCODING 1168
SWIDTH 518 0
DWIDTH 10 0
BBX 9 17 1 0
BITMAP
0380
0380
0380
FF80
FF80
E000
E000
E000
E000
E000
E000
E000
E000
E000
E000
E000
E000
ENDCHAR
STARTCHAR uni0491
ENCODING 1169
SWIDTH 429 0
DWIDTH 9 0
BBX 7 14 1 0
BITMAP
06
06
06
FE
FE
E0
E0
E0
E0
E0
E0
E0
E0
E0
ENDCHAR
STARTCHAR uni0492
ENCODING 1170
SWIDTH 522 0
DWIDTH 10 0
BBX 10 14 0 0
BITMAP
7FC0
7FC0
7000
7000
7000
7000
FC00
FC00
7000
7000
7000
7000
7000
7000
ENDCHAR
STARTCHAR uni0493
ENCODING 1171
SWIDTH 395 0
DWIDTH 8 0
BBX 8 11 0 0
BITMAP
7F
7F
70
70
FC
FC
70
70
70
70
70
ENDCHAR
STARTCHAR uni0494
ENCODING 1172
SWIDTH 581 0
DWIDTH 12 0
BBX 10 17 1 -3
BITMAP
FF80
FF80
E000
E000
E000
E000
FE00
FF00
E380
E1C0
E1C0
E1C0
E1C0
E1C0
0180
0780
0600
ENDCHAR
STARTCHAR uni0495
ENCODING 1173
SWIDTH 487 0
DWIDTH 10 0
BBX 8 14 1 -3
BITMAP
FE
FE
E0
E0
FC
FE
E7
E7
E3
E3
E3
06
0E
0C
ENDCHAR
STARTCHAR uni0496
ENCODING 1174
SWIDTH 956 0
DWIDTH 19 0
BBX 18 18 1 -4
BITMAP
E18700
E18700
718E00
318C00
399C00
199800
1FF800
1FF800
399C00
398C00
718E00
718600
E18700
E183C0
0000C0
0000C0
0000C0
0000C0
ENDCHAR
STARTCHAR uni0497
ENCODING 1175
SWIDTH 808 0
DWIDTH 16 0
BBX 15 15 1 -4
BITMAP
E718
E738
6730
7770
3760
1FE0
3FE0
7770
7730
E738
C71E
000E
000E
000E
000E
ENDCHAR
STARTCHAR uni0498
ENCODING 1176
SWIDTH 568 0
DWIDTH 11 0
BBX 9 19 1 -5
BITMAP
3E00
7F00
E380
C180
0180
0380
1F00
1F00
0380
0180
C180
E380
7F80
3E00
1C00
1C00
1C00
1C00
1C00
ENDCHAR
STARTCHAR uni0499
ENCODING 1177
SWIDTH 480 0
DWIDTH 10 0
BBX 8 16 1 -5
BITMAP
3C
FE
C7
07
3E
3E
07
07
C7
FE
7C
18
18
18
18
18
ENDCHAR
STARTCHAR uni049A
ENCODING 1178
SWIDTH 682 0
DWIDTH 14 0
BBX 12 17 1 -3
BITMAP
E1C0
E1C0
E380
E300
E700
EE00
FC00
FE00
E600
E700
E380
E180
E1F0
E0F0
0030
0030
0030
ENDCHAR
STARTCHAR uni049B
ENCODING 1179
SWIDTH 589 0
DWIDTH 12 0
BBX 10 14 1 -3
BITMAP
E380
E700
E600
EE00
EC00
FC00
FC00
EE00
E700
E7C0
E3C0
00C0
00C0
00C0
ENDCHAR
STARTCHAR uni049C
ENCODING 1180
SWIDTH 609 0
DWIDTH 12 0
BBX 11 14 1 0
BITMAP
E0E0
E1C0
E1C0
EB80
EB00
EB00
FE00
FF00
EB00
EB80
E180
E1C0
E0C0
E0E0
ENDCHAR
STARTCHAR uni049D
ENCODING 1181
SWIDTH 552 0
DWIDTH 11 0
BBX 10 11 1 0
BITMAP
E1C0
E380
E300
FB00
FE00
FE00
FE00
FF00
FB80
E380
E1C0
ENDCHAR
STARTCHAR uni049E
ENCODING 1182
SWIDTH 613 0
DWIDTH 12 0
BBX 12 14 0 0
BITMAP
3070
30E0
FDC0
FDC0
3380
3700
3F00
3F00
3380
3180
31C0
30E0
30E0
3070
ENDCHAR
STARTCHAR uni049F
ENCODING 1183
SWIDTH 504 0
DWIDTH 10 0
BBX 10 15 0 0
BITMAP
7000
7000
FC00
FC00
7180
7380
7300
7600
7E00
7E00
7600
7700
7380
7180
71C0
ENDCHAR
STARTCHAR uni04A0
ENCODING 1184
SWIDTH 768 0
DWIDTH 15 0
BBX 14 14 1 0
BITMAP
FC1C
FC38
0C30
0C70
0CE0
0CC0
0FC0
0FC0
0CE0
0C60
0C70
0C38
0C18
0C1C
ENDCHAR
STARTCHAR uni04A1
ENCODING 1185
SWIDTH 662 0
DWIDTH 13 0
BBX 12 11 1 0
BITMAP
FC70
FCE0
1CC0
1DC0
1D80
1F00
1F80
1DC0
1CC0
1CE0
1C70
ENDCHAR
STARTCHAR uni04A2
ENCODING 1186
SWIDTH 722 0
DWIDTH 14 0
BBX 13 18 1 -4
BITMAP
E0E0
E0E0
E0E0
E0E0
E0E0
E0E0
FFE0
FFE0
E0E0
E0E0
E0E0
E0E0
E0E0
E0F8
0038
0038
0038
0038
ENDCHAR
STARTCHAR uni04A3
ENCODING 1187
SWIDTH 596 0
DWIDTH 12 0
BBX 10 15 1 -4
BITMAP
E380
E380
E380
E380
E380
FF80
FF80
E380
E380
E380
E3C0
00C0
00C0
00C0
00C0
ENDCHAR
STARTCHAR uni04A4
ENCODING 1188
SWIDTH 908 0
DWIDTH 18 0
BBX 16 14 1 0
BITMAP
E0FF
E0FF
E0E0
E0E0
E0E0
E0E0
FFE0
FFE0
E0E0
E0E0
E0E0
E0E0
E0E0
E0E0
ENDCHAR
STARTCHAR uni04A5
ENCODING 1189
SWIDTH 660 0
DWIDTH 13 0
BBX 12 11 1 0
BITMAP
E3F0
E3F0
E300
E300
E300
FF00
FF00
E300
E300
E300
E300
ENDCHAR
STARTCHAR uni04A6
ENCODING 1190
SWIDTH 963 0
DWIDTH 19 0
BBX 17 17 1 -3
BITMAP
FFE000
FFE000
E0E000
E0E000
E0E000
E0E000
E0FE00
E0FF00
E0E380
E0E180
E0E180
E0E180
E0E180
E0E180
000380
000700
000600
ENDCHAR
STARTCHAR uni04A7
ENCODING 1191
SWIDTH 810 0
DWIDTH 16 0
BBX 15 14 1 -3
BITMAP
FF00
FF00
E300
E300
E3F0
E3F8
E31C
E30C
E30E
E30E
E30C
000C
0038
0010
ENDCHAR
STARTCHAR uni04A8
ENCODING 1192
SWIDTH 726 0
DWIDTH 15 0
BBX 13 14 1 0
BITMAP
11C0
73E0
6730
E630
E638
E638
E638
E638
E630
E730
6370
73E0
3FF8
0FF8
ENDCHAR
STARTCHAR uni04A9
ENCODING 1193
SWIDTH 589 0
DWIDTH 12 0
BBX 10 11 1 0
BITMAP
3700
7F80
EDC0
CCC0
CCC0
CCC0
CCC0
EDC0
6780
7FC0
1FC0
ENDCHAR
STARTCHAR uni04AA
ENCODING 1194
SWIDTH 610 0
DWIDTH 12 0
BBX 10 19 1 -5
BITMAP
1F00
3F80
71C0
E0C0
E0C0
C000
C000
C000
C000
E0C0
E0C0
71C0
3F80
1F00
0C00
0C00
0C00
0C00
0C00
ENDCHAR
STARTCHAR uni04AB
ENCODING 1195
SWIDTH 491 0
DWIDTH 10 0
BBX 8 16 1 -5
BITMAP
3C
7E
E3
C3
C0
C0
C0
C3
E3
7E
3C
18
18
18
18
18
ENDCHAR
STARTCHAR uni04AC
ENCODING 1196
SWIDTH 570 0
DWIDTH 11 0
BBX 11 18 0 -4
BITMAP
FFE0
FFE0
0E00
0E00
0E00
0E00
0E00
0E00
0E00
0E00
0E00
0E00
0E00
0F80
0380
0380
0380
0380
ENDCHAR
STARTCHAR uni04AD
ENCODING 1197
SWIDTH 468 0
DWIDTH 9 0
BBX 9 15 0 -4
BITMAP
FF80
FF80
1C00
1C00
1C00
1C00
1C00
1C00
1C00
1C00
1F00
0700
0700
0700
0700
ENDCHAR
STARTCHAR uni04AE
ENCODING 1198
SWIDTH 572 0
DWIDTH 11 0
BBX 11 14 0 0
BITMAP
E0E0
60E0
70C0
31C0
3980
1B80
1F00
0F00
0E00
0E00
0E00
0E00
0E00
0E00
ENDCHAR
STARTCHAR uni04AF
ENCODING 1199
SWIDTH 478 0
DWIDTH 10 0
BBX 8 15 1 -4
BITMAP
C3
C7
C6
E6
66
6E
7C
3C
3C
38
18
18
18
18
18
ENDCHAR
STARTCHAR uni04B0
ENCODING 1200
SWIDTH 572 0
DWIDTH 11 0
BBX 11 14 0 0
BITMAP
E0E0
60E0
70C0
31C0
3980
1B80
1F00
1F80
1F80
0E00
0E00
0E00
0E00
0E00
ENDCHAR
STARTCHAR uni04B1
ENCODING 1201
SWIDTH 478 0
DWIDTH 10 0
BBX 8 15 1 -4
BITMAP
C3
C7
C6
E6
66
6C
7C
3C
3C
7E
7E
18
18
18
18
ENDCHAR
STARTCHAR uni04B2
ENCODING 1202
SWIDTH 614 0
DWIDTH 12 0
BBX 11 18 1 -4
BITMAP
E1C0
E1C0
7380
3300
3F00
1E00
1E00
1E00
1E00
3F00
7300
7380
E1C0
C1E0
0060
0060
0060
0060
ENDCHAR
STARTCHAR uni04B3
ENCODING 1203
SWIDTH 504 0
DWIDTH 10 0
BBX 9 15 1 -4
BITMAP
C700
E600
6E00
7C00
3C00
3800
3C00
7C00
6E00
E600
C780
0380
0380
0380
0380
ENDCHAR
STARTCHAR uni04B4
ENCODING 1204
SWIDTH 837 0
DWIDTH 17 0
BBX 16 17 0 -3
BITMAP
FF8C
FF8C
0C0C
0C0C
0C0C
0C0C
0C0C
0C0C
0C0C
0C0C
0C0C
0C0C
0FFF
0FFF
0007
0007
0006
ENDCHAR
STARTCHAR uni04B5
ENCODING 1205
SWIDTH 638 0
DWIDTH 13 0
BBX 12 14 0 -3
BITMAP
FE60
FE60
1860
1860
1860
1860
1860
1860
1860
1FF0
1FF0
0030
0030
0030
ENDCHAR
STARTCHAR uni04B6
ENCODING 1206
SWIDTH 704 0
DWIDTH 14 0
BBX 12 18 1 -4
BITMAP
E0E0
E0E0
E0E0
E0E0
E0E0
E0E0
60E0
7FE0
1FE0
00E0
00E0
00E0
00E0
00F0
0030
0030
0030
0030
ENDCHAR
STARTCHAR uni04B7
ENCODING 1207
SWIDTH 576 0
DWIDTH 12 0
BBX 10 15 1 -4
BITMAP
C300
C300
C300
C300
C300
E300
7F00
3F00
0300
0300
03C0
00C0
00C0
00C0
00C0
ENDCHAR
STARTCHAR uni04B8
ENCODING 1208
SWIDTH 637 0
DWIDTH 13 0
BBX 10 14 1 0
BITMAP
E0C0
E0C0
E0C0
E0C0
E4C0
E4C0
64C0
7FC0
3FC0
04C0
04C0
00C0
00C0
00C0
ENDCHAR
STARTCHAR uni04B9
ENCODING 1209
SWIDTH 522 0
DWIDTH 10 0
BBX 8 11 1 0
BITMAP
C3
C3
C3
DB
DB
FB
7F
3F
1B
1B
03
ENDCHAR
STARTCHAR uni04BA
ENCODING 1210
SWIDTH 648 0
DWIDTH 13 0
BBX 10 14 1 0
BITMAP
E000
E000
E000
E000
E000
FF00
FFC0
E1C0
E0C0
E0C0
E0C0
E0C0
E0C0
E0C0
ENDCHAR
STARTCHAR uni04BB
ENCODING 1211
SWIDTH 521 0
DWIDTH 10 0
BBX 8 15 1 0
BITMAP
C0
C0
C0
C0
DE
FF
E3
C3
C3
C3
C3
C3
C3
C3
C3
ENDCHAR
STARTCHAR uni04BC
ENCODING 1212
SWIDTH 714 0
DWIDTH 14 0
BBX 13 14 0 0
BITMAP
03E0
07F0
0E30
1C38
DC18
DC18
7FF8
3FF8
1C00
1C00
1C00
0E10
07F0
03F0
ENDCHAR
STARTCHAR uni04BD
ENCODING 1213
SWIDTH 558 0
DWIDTH 11 0
BBX 11 11 0 0
BITMAP
0F80
1FC0
98C0
B8E0
FFE0
7FE0
3000
3800
1840
1FC0
0780
ENDCHAR
STARTCHAR uni04BE
ENCODING 1214
SWIDTH 714 0
DWIDTH 14 0
BBX 13 18 0 -4
BITMAP
03E0
07F0
0E30
1C38
DC18
DC18
7FF8
3FF8
1C00
1C00
1C00
0E10
07F0
03F0
00C0
00C0
00C0
00C0
ENDCHAR
STARTCHAR uni04BF
ENCODING 1215
SWIDTH 558 0
DWIDTH 11 0
BBX 11 15 0 -4
BITMAP
0F80
1FC0
98C0
B8E0
FFE0
7FE0
3000
3800
1840
1FC0
0780
0700
0700
0700
0700
ENDCHAR
STARTCHAR uni04C0
ENCODING 1216
SWIDTH 271 0
DWIDTH 5 0
BBX 2 14 2 0
BITMAP
C0
C0
C0
C0
C0
C0
C0
C0
C0
C0
C0
C0
C0
C0
ENDCHAR
STARTCHAR uni04C1
ENCODING 1217
SWIDTH 898 0
DWIDTH 18 0
BBX 17 18 1 0
BITMAP
066000
066000
03C000
000000
E18700
E18700
718E00
318C00
399C00
199800
1FF800
1FF800
399C00
398C00
718E00
718600
E18700
E18380
ENDCHAR
STARTCHAR uni04C2
ENCODING 1218
SWIDTH 763 0
DWIDTH 15 0
BBX 14 15 1 0
BITMAP
08C0
0DC0
0780
0000
E718
E738
6730
7770
3760
1FE0
3FE0
7770
7730
E738
C71C
ENDCHAR
STARTCHAR uni04C3
ENCODING 1219
SWIDTH 602 0
DWIDTH 12 0
BBX 11 17 1 -3
BITMAP
E1C0
E180
E380
E700
E600
EE00
FE00
FF80
E1C0
E0C0
E0C0
E0E0
E0C0
E0C0
01C0
0380
0300
ENDCHAR
STARTCHAR uni04C4
ENCODING 1220
SWIDTH 527 0
DWIDTH 11 0
BBX 9 14 1 -3
BITMAP
E380
E700
E600
EE00
EC00
FC00
FF00
E380
E380
E180
E380
0300
0700
0600
ENDCHAR
STARTCHAR uni04C5
ENCODING 1221
SWIDTH 722 0
DWIDTH 14 0
BBX 14 19 0 -5
BITMAP
1FF0
1FF0
1C70
1870
1870
1870
1870
1870
1870
1870
1870
3870
F070
E07C
000C
000C
0018
0018
0010
ENDCHAR
STARTCHAR uni04C6
ENCODING 1222
SWIDTH 603 0
DWIDTH 12 0
BBX 12 16 0 -5
BITMAP
3FC0
3FC0
39C0
39C0
31C0
31C0
31C0
31C0
31C0
F1C0
E1F0
0070
0070
0060
0060
0040
ENDCHAR
STARTCHAR uni04C7
ENCODING 1223
SWIDTH 663 0
DWIDTH 13 0
BBX 11 18 1 -4
BITMAP
E0E0
E0E0
E0E0
E0E0
E0E0
E0E0
FFE0
FFE0
E0E0
E0E0
E0E0
E0E0
E0E0
E0E0
00E0
00E0
03C0
0380
ENDCHAR
STARTCHAR uni04C8
ENCODING 1224
SWIDTH 531 0
DWIDTH 11 0
BBX 8 15 1 -4
BITMAP
E3
E3
E3
E3
FF
FF
E3
E3
E3
E3
E3
03
03
0F
0E
ENDCHAR
STARTCHAR uni04C9
ENCODING 1225
SWIDTH 728 0
DWIDTH 15 0
BBX 13 19 1 -5
BITMAP
E0E0
E0E0
E0E0
E0E0
E0E0
E0E0
FFE0
FFE0
E0E0
E0E0
E0E0
E0E0
E0E0
E0F8
0018
0018
0018
0030
0030
ENDCHAR
STARTCHAR uni04CA
ENCODING 1226
SWIDTH 601 0
DWIDTH 12 0
BBX 11 16 1 -5
BITMAP
E380
E380
E380
E380
E380
FF80
FF80
E380
E380
E380
E3E0
00E0
00C0
00C0
00C0
0080
ENDCHAR
STARTCHAR uni04CB
ENCODING 1227
SWIDTH 647 0
DWIDTH 13 0
BBX 11 17 1 -3
BITMAP
E0E0
E0E0
E0E0
E0E0
E0E0
E0E0
60E0
7FE0
1FE0
00E0
00E0
00E0
03E0
03E0
0380
0380
0380
ENDCHAR
STARTCHAR uni04CC
ENCODING 1228
SWIDTH 517 0
DWIDTH 10 0
BBX 8 14 1 -3
BITMAP
C3
C3
C3
C3
C3
E3
7F
3F
03
0F
0F
0C
0C
0C
ENDCHAR
STARTCHAR uni04CD
ENCODING 1229
SWIDTH 876 0
DWIDTH 18 0
BBX 16 19 1 -5
BITMAP
F01C
F03C
F03C
F83C
F86C
F86C
EC6C
ECCC
ECCC
E6CC
E78C
E78C
E38C
E30F
0003
0003
0003
0006
0006
ENDCHAR
STARTCHAR uni04CE
ENCODING 1230
SWIDTH 760 0
DWIDTH 15 0
BBX 14 16 1 -5
BITMAP
E070
F0F0
F0F0
F0F0
F9F0
F9F0
EF70
EF70
EF70
E670
E67C
000C
000C
0018
0018
0010
ENDCHAR
STARTCHAR uni04CF
ENCODING 1231
SWIDTH 271 0
DWIDTH 5 0
BBX 2 14 2 0
BITMAP
C0
C0
C0
C0
C0
C0
C0
C0
C0
C0
C0
C0
C0
C0
ENDCHAR
STARTCHAR uni04D0
ENCODING 1232
SWIDTH 625 0
DWIDTH 13 0
BBX 12 18 0 0
BITMAP
1880
1D80
0F00
0000
0700
0700
0F00
0F80
0D80
1980
19C0
18C0
38C0
3FE0
7FE0
7060
6070
E030
ENDCHAR
STARTCHAR uni04D1
ENCODING 1233
SWIDTH 506 0
DWIDTH 10 0
BBX 8 15 1 0
BITMAP
62
76
3C
00
3C
7E
E7
03
3F
73
C3
C3
C7
FF
7B
ENDCHAR
STARTCHAR uni04D2
ENCODING 1234
SWIDTH 625 0
DWIDTH 13 0
BBX 12 17 0 0
BITMAP
19C0
18C0
0000
0700
0700
0F00
0F80
0D80
1980
19C0
18C0
38C0
3FE0
7FE0
7060
6070
E030
ENDCHAR
STARTCHAR uni04D3
ENCODING 1235
SWIDTH 506 0
DWIDTH 10 0
BBX 8 15 1 0
BITMAP
67
66
00
00
3C
7E
E7
03
3F
73
C3
C3
C7
FF
7B
ENDCHAR
STARTCHAR uni04D4
ENCODING 1236
SWIDTH 875 0
DWIDTH 18 0
BBX 17 14 0 0
BITMAP
01FF00
01FF00
03E000
03E000
066000
066000
0C7F00
1C7F00
186000
3FE000
3FE000
706000
707F80
E07F80
ENDCHAR
STARTCHAR uni04D5
ENCODING 1237
SWIDTH 786 0
DWIDTH 16 0
BBX 14 11 1 0
BITMAP
3CF0
7FF8
E79C
030C
1FFC
7FFC
E300
C300
C780
FFFC
78F8
ENDCHAR
STARTCHAR uni04D6
ENCODING 1238
SWIDTH 529 0
DWIDTH 11 0
BBX 9 18 1 0
BITMAP
2300
3700
1E00
0000
FF80
FF80
E000
E000
E000
E000
FF00
FF00
E000
E000
E000
E000
FF80
FF80
ENDCHAR
STARTCHAR uni04D7
ENCODING 1239
SWIDTH 504 0
DWIDTH 10 0
BBX 8 15 1 0
BITMAP
66
66
3C
00
3C
7F
E3
C3
FF
FF
C0
C0
E1
7F
3E
ENDCHAR
STARTCHAR uni04D8
ENCODING 1240
SWIDTH 646 0
DWIDTH 13 0
BBX 11 14 1 0
BITMAP
3E00
7F80
41C0
00C0
00E0
00E0
FFE0
FFE0
C0E0
C0E0
E0C0
71C0
7F80
1F00
ENDCHAR
STARTCHAR uni04D9
ENCODING 1241
SWIDTH 497 0
DWIDTH 10 0
BBX 8 11 1 0
BITMAP
7C
FE
07
03
03
FF
FF
C3
E7
7E
3C
ENDCHAR
STARTCHAR uni04DA
ENCODING 1242
SWIDTH 646 0
DWIDTH 13 0
BBX 11 17 1 0
BITMAP
7300
3300
0000
3E00
7F80
41C0
00C0
00E0
00E0
FFE0
FFE0
C0E0
C0E0
E0C0
71C0
7F80
1F00
ENDCHAR
STARTCHAR uni04DB
ENCODING 1243
SWIDTH 497 0
DWIDTH 10 0
BBX 8 15 1 0
BITMAP
66
66
00
00
7C
FE
07
03
03
FF
FF
C3
E7
7E
3C
ENDCHAR
STARTCHAR uni04DC
ENCODING 1244
SWIDTH 898 0
DWIDTH 18 0
BBX 17 17 1 0
BITMAP
066000
066000
000000
E18700
E18700
718E00
318C00
399C00
199800
1FF800
1FF800
399C00
398C00
718E00
718600
E18700
E18380
ENDCHAR
STARTCHAR uni04DD
ENCODING 1245
SWIDTH 763 0
DWIDTH 15 0
BBX 14 15 1 0
BITMAP
1CC0
18C0
0000
0000
E718
E738
6730
7770
3760
1FE0
3FE0
7770
7730
E738
C71C
ENDCHAR
STARTCHAR uni04DE
ENCODING 1246
SWIDTH 568 0
DWIDTH 11 0
BBX 9 17 1 0
BITMAP
7300
6300
0000
3E00
7F00
E380
C180
0180
0380
1F00
1F00
0380
0180
C180
E380
7F80
3E00
ENDCHAR
STARTCHAR uni04DF
ENCODING 1247
SWIDTH 480 0
DWIDTH 10 0
BBX 8 15 1 0
BITMAP
E6
66
00
00
3C
FE
C7
07
3E
3E
07
07
C7
FE
7C
ENDCHAR
STARTCHAR uni04E0
ENCODING 1248
SWIDTH 543 0
DWIDTH 11 0
BBX 9 14 1 0
BITMAP
FF80
FF80
0700
0600
0C00
1800
1F00
0700
0380
0180
C180
E380
7F00
3E00
ENDCHAR
STARTCHAR uni04E1
ENCODING 1249
SWIDTH 544 0
DWIDTH 11 0
BBX 9 15 1 -4
BITMAP
FF80
FF80
0700
0600
0E00
1C00
1C00
1F00
0380
0180
0180
C180
E380
7F00
3E00
ENDCHAR
STARTCHAR uni04E2
ENCODING 1250
SWIDTH 659 0
DWIDTH 13 0
BBX 11 18 1 0
BITMAP
1F80
1F80
0000
0000
E0E0
E0E0
E1E0
E3E0
E3E0
E7E0
E6E0
ECE0
ECE0
F8E0
F8E0
F0E0
F0E0
E0E0
ENDCHAR
STARTCHAR uni04E3
ENCODING 1251
SWIDTH 537 0
DWIDTH 11 0
BBX 9 15 1 0
BITMAP
7F00
7F00
0000
0000
E380
E780
E780
EF80
EF80
FB80
FB80
F380
F380
E380
E380
ENDCHAR
STARTCHAR uni04E4
ENCODING 1252
SWIDTH 659 0
DWIDTH 13 0
BBX 11 17 1 0
BITMAP
3980
3180
0000
E0E0
E0E0
E1E0
E3E0
E3E0
E7E0
E6E0
ECE0
ECE0
F8E0
F8E0
F0E0
F0E0
E0E0
ENDCHAR
STARTCHAR uni04E5
ENCODING 1253
SWIDTH 537 0
DWIDTH 11 0
BBX 9 15 1 0
BITMAP
6300
6300
0000
0000
E380
E780
E780
EF80
EF80
FB80
FB80
F380
F380
E380
E380
ENDCHAR
STARTCHAR uni04E6
ENCODING 1254
SWIDTH 645 0
DWIDTH 13 0
BBX 11 17 1 0
BITMAP
3180
3180
0000
1F00
3F80
71C0
E0C0
E0E0
C0E0
C0E0
C0E0
C0E0
E0E0
E0C0
71C0
3F80
1F00
ENDCHAR
STARTCHAR uni04E7
ENCODING 1255
SWIDTH 533 0
DWIDTH 11 0
BBX 9 15 1 0
BITMAP
6700
6300
0000
0000
3C00
7F00
E300
C380
C180
C180
C180
C380
E300
7F00
3E00
ENDCHAR
STARTCHAR uni04E8
ENCODING 1256
SWIDTH 641 0
DWIDTH 13 0
BBX 11 14 1 0
BITMAP
1F00
3F80
71C0
E0C0
E0E0
C0E0
FFE0
FFE0
C0E0
E0E0
E0C0
71C0
3F80
1F00
ENDCHAR
STARTCHAR uni04E9
ENCODING 1257
SWIDTH 530 0
DWIDTH 11 0
BBX 9 11 1 0
BITMAP
3C00
7F00
E300
C380
FF80
FF80
C380
C380
E300
7F00
3C00
ENDCHAR
STARTCHAR uni04EA
ENCODING 1258
SWIDTH 641 0
DWIDTH 13 0
BBX 11 17 1 0
BITMAP
3980
3180
0000
1F00
3F80
71C0
E0C0
E0E0
C0E0
FFE0
FFE0
C0E0
E0E0
E0C0
71C0
3F80
1F00
ENDCHAR
STARTCHAR uni04EB
ENCODING 1259
SWIDTH 530 0
DWIDTH 11 0
BBX 9 15 1 0
BITMAP
6700
6600
0000
0000
3C00
7F00
E300
C380
FF80
FF80
C380
C380
E300
7F00
3C00
ENDCHAR
STARTCHAR uni04EC
ENCODING 1260
SWIDTH 618 0
DWIDTH 12 0
BBX 10 17 1 0
BITMAP
3380
3300
0000
1E00
7F80
61C0
E1C0
C0C0
00C0
0FC0
0FC0
00C0
C0C0
E0C0
61C0
7F80
1E00
ENDCHAR
STARTCHAR uni04ED
ENCODING 1261
SWIDTH 495 0
DWIDTH 10 0
BBX 8 15 1 0
BITMAP
E6
66
00
00
3C
7E
C7
C3
1F
1F
03
C3
C7
7E
3C
ENDCHAR
STARTCHAR uni04EE
ENCODING 1262
SWIDTH 589 0
DWIDTH 12 0
BBX 10 18 1 0
BITMAP
3F00
3F00
0000
0000
C1C0
E1C0
6180
7380
3380
3300
3F00
1E00
1E00
0E00
0C00
1C00
7800
7000
ENDCHAR
STARTCHAR uni04EF
ENCODING 1263
SWIDTH 460 0
DWIDTH 9 0
BBX 9 19 0 -4
BITMAP
3F00
3F00
0000
0000
E380
6380
6300
7300
3700
3600
3600
1E00
1C00
1C00
0C00
1800
1800
7800
7000
ENDCHAR
STARTCHAR uni04F0
ENCODING 1264
SWIDTH 589 0
DWIDTH 12 0
BBX 10 17 1 0
BITMAP
3300
3300
0000
C1C0
E1C0
6180
7380
3380
3300
3F00
1E00
1E00
0E00
0C00
1C00
7800
7000
ENDCHAR
STARTCHAR uni04F1
ENCODING 1265
SWIDTH 460 0
DWIDTH 9 0
BBX 9 19 0 -4
BITMAP
7300
7300
0000
0000
E380
6380
6300
7300
3700
3600
3600
1E00
1C00
1C00
0C00
1800
1800
7800
7000
ENDCHAR
STARTCHAR uni04F2
ENCODING 1266
SWIDTH 589 0
DWIDTH 12 0
BBX 10 18 1 0
BITMAP
0D80
1B00
1B00
0000
C1C0
E1C0
6180
7380
3380
3300
3F00
1E00
1E00
0E00
0C00
1C00
7800
7000
ENDCHAR
STARTCHAR uni04F3
ENCODING 1267
SWIDTH 460 0
DWIDTH 9 0
BBX 9 19 0 -4
BITMAP
1D80
1B00
3600
0000
E380
6380
6300
7300
3700
3600
3600
1E00
1C00
1C00
0C00
1800
1800
7800
7000
ENDCHAR
STARTCHAR uni04F4
ENCODING 1268
SWIDTH 647 0
DWIDTH 13 0
BBX 11 17 1 0
BITMAP
3980
3180
0000
E0E0
E0E0
E0E0
E0E0
E0E0
E0E0
60E0
7FE0
1FE0
00E0
00E0
00E0
00E0
00E0
ENDCHAR
STARTCHAR uni04F5
ENCODING 1269
SWIDTH 517 0
DWIDTH 10 0
BBX 8 15 1 0
BITMAP
67
66
00
00
C3
C3
C3
C3
C3
E3
7F
3F
03
03
03
ENDCHAR
STARTCHAR uni04F6
ENCODING 1270
SWIDTH 522 0
DWIDTH 10 0
BBX 9 18 1 -4
BITMAP
FF80
FF80
E000
E000
E000
E000
E000
E000
E000
E000
E000
E000
E000
F800
3800
3800
3800
3800
ENDCHAR
STARTCHAR uni04F7
ENCODING 1271
SWIDTH 395 0
DWIDTH 8 0
BBX 7 15 1 -4
BITMAP
FE
FE
E0
E0
E0
E0
E0
E0
E0
E0
F0
30
30
30
30
ENDCHAR
STARTCHAR uni04F8
ENCODING 1272
SWIDTH 812 0
DWIDTH 16 0
BBX 14 17 1 0
BITMAP
0CE0
0CC0
0000
E01C
E01C
E01C
E01C
E01C
FF1C
FF9C
E1DC
E0DC
E0DC
E0DC
E1DC
FF9C
FF1C
ENDCHAR
STARTCHAR uni04F9
ENCODING 1273
SWIDTH 756 0
DWIDTH 15 0
BBX 13 15 1 0
BITMAP
18C0
18C0
0000
0000
E038
E038
E038
FE38
FF38
E338
E3B8
E3B8
E338
FF38
FE38
ENDCHAR
STARTCHAR uni04FA
ENCODING 1274
SWIDTH 561 0
DWIDTH 11 0
BBX 10 18 1 -4
BITMAP
7FC0
7FC0
7000
7000
7000
7000
FC00
FC00
7000
7000
7000
7000
7C00
7C00
1C00
1C00
7800
7000
ENDCHAR
STARTCHAR uni04FB
ENCODING 1275
SWIDTH 434 0
DWIDTH 9 0
BBX 8 15 0 -4
BITMAP
3F
3F
30
30
FE
FE
30
30
30
3C
3C
0C
0C
3C
38
ENDCHAR
STARTCHAR uni04FC
ENCODING 1276
SWIDTH 637 0
DWIDTH 13 0
BBX 11 18 1 -4
BITMAP
E1C0
E1C0
7380
3300
3F00
1E00
1E00
1E00
1E00
3F00
7300
7380
E1E0
C1E0
0060
0060
01E0
01C0
ENDCHAR
STARTCHAR uni04FD
ENCODING 1277
SWIDTH 527 0
DWIDTH 11 0
BBX 9 15 1 -4
BITMAP
C700
E600
6E00
7C00
3C00
3800
3C00
7C00
6E00
E780
C780
0180
0180
0780
0700
ENDCHAR
STARTCHAR uni04FE
ENCODING 1278
SWIDTH 593 0
DWIDTH 12 0
BBX 10 14 1 0
BITMAP
E1C0
E1C0
7380
7300
3F00
3E00
3F00
3F00
1E00
3F00
3300
7380
E1C0
E1C0
ENDCHAR
STARTCHAR uni04FF
ENCODING 1279
SWIDTH 474 0
DWIDTH 10 0
BBX 8 11 1 0
BITMAP
C7
E6
6E
7C
7E
7E
3C
7C
6E
E6
C7
ENDCHAR
STARTCHAR uni0500
ENCODING 1280
SWIDTH 589 0
DWIDTH 12 0
BBX 10 14 1 0
BITMAP
01C0
01C0
01C0
01C0
01C0
3FC0
7FC0
E1C0
C1C0
C1C0
C1C0
E1C0
7FC0
3FC0
ENDCHAR
STARTCHAR uni0501
ENCODING 1281
SWIDTH 529 0
DWIDTH 11 0
BBX 8 15 1 0
BITMAP
03
03
03
03
3B
7F
E3
C3
C3
C3
C3
C3
E3
7F
3B
ENDCHAR
STARTCHAR uni0502
ENCODING 1282
SWIDTH 819 0
DWIDTH 16 0
BBX 15 14 1 0
BITMAP
01C0
01C0
01C0
01C0
01C0
3FC0
7FCC
E1CC
E1CE
C1CE
E1CE
E1CC
7FFC
3FF8
ENDCHAR
STARTCHAR uni0503
ENCODING 1283
SWIDTH 798 0
DWIDTH 16 0
BBX 14 15 1 0
BITMAP
0300
0300
0300
0300
3B00
7F00
E31C
E30C
C30C
C30C
C30C
C31C
E39C
7DF8
39F0
ENDCHAR
STARTCHAR uni0504
ENCODING 1284
SWIDTH 736 0
DWIDTH 15 0
BBX 13 14 1 0
BITMAP
F800
FE00
0600
0600
0600
0630
7C30
7C38
0E38
0638
0630
0770
07F0
03C0
ENDCHAR
STARTCHAR uni0505
ENCODING 1285
SWIDTH 603 0
DWIDTH 12 0
BBX 11 11 1 0
BITMAP
F000
F800
1C00
0C00
1CC0
F8C0
FCE0
0CE0
0CC0
0FC0
0780
ENDCHAR
STARTCHAR uni0506
ENCODING 1286
SWIDTH 531 0
DWIDTH 11 0
BBX 9 17 1 -3
BITMAP
F800
FC00
0E00
0600
0600
0E00
FC00
FC00
0E00
0600
0600
0600
0780
0780
0180
0300
0300
ENDCHAR
STARTCHAR uni0507
ENCODING 1287
SWIDTH 504 0
DWIDTH 10 0
BBX 9 14 1 -3
BITMAP
F800
FC00
0E00
0600
0E00
7C00
7C00
0E00
0600
0780
0780
0180
0300
0200
ENDCHAR
STARTCHAR uni0508
ENCODING 1288
SWIDTH 899 0
DWIDTH 18 0
BBX 16 14 1 0
BITMAP
3FE0
3FE0
38E0
38E0
38E0
38E3
38E3
38E3
30E3
30E3
30E3
70E7
E07E
C03C
ENDCHAR
STARTCHAR uni0509
ENCODING 1289
SWIDTH 775 0
DWIDTH 16 0
BBX 14 11 1 0
BITMAP
3F00
3F00
3318
331C
331C
331C
731C
731C
6398
E1F8
C0F0
ENDCHAR
STARTCHAR uni050A
ENCODING 1290
SWIDTH 928 0
DWIDTH 19 0
BBX 16 14 1 0
BITMAP
E0E0
E0E0
E0E0
E0E0
E0E0
E0E3
FFE3
FFE3
E0E3
E0E3
E0E3
E067
E07E
E03C
ENDCHAR
STARTCHAR uni050B
ENCODING 1291
SWIDTH 770 0
DWIDTH 15 0
BBX 14 11 1 0
BITMAP
C300
C300
C318
C31C
FF1C
FF1C
C31C
C31C
C398
C1F8
C0F0
ENDCHAR
STARTCHAR uni050C
ENCODING 1292
SWIDTH 588 0
DWIDTH 12 0
BBX 10 14 1 0
BITMAP
1F00
3F00
7000
E000
C000
C000
C1C0
C1C0
C0C0
C0C0
E1C0
71C0
3F80
1F00
ENDCHAR
STARTCHAR uni050D
ENCODING 1293
SWIDTH 491 0
DWIDTH 10 0
BBX 8 11 1 0
BITMAP
3E
7E
E0
C0
C0
C0
C3
C3
E3
7F
3E
ENDCHAR
STARTCHAR uni050E
ENCODING 1294
SWIDTH 660 0
DWIDTH 13 0
BBX 12 14 0 0
BITMAP
FFE0
FFE0
0E00
0E00
0E00
0E30
0E30
0E30
0E30
0E30
0E30
0670
07E0
03C0
ENDCHAR
STARTCHAR uni050F
ENCODING 1295
SWIDTH 597 0
DWIDTH 12 0
BBX 10 11 1 0
BITMAP
FF00
FF00
1800
1800
19C0
18C0
18C0
18C0
19C0
1F80
0F00
ENDCHAR
STARTCHAR uni0510
ENCODING 1296
SWIDTH 621 0
DWIDTH 12 0
BBX 11 14 1 0
BITMAP
1F00
7F80
71C0
E0C0
E000
6000
3E00
3E00
6000
E000
E0E0
E1C0
7FC0
1F00
ENDCHAR
STARTCHAR uni0511
ENCODING 1297
SWIDTH 515 0
DWIDTH 10 0
BBX 8 11 1 0
BITMAP
3E
7F
E3
E0
7C
7C
E0
C0
E3
7F
3E
ENDCHAR
STARTCHAR uni0512
ENCODING 1298
SWIDTH 740 0
DWIDTH 15 0
BBX 14 18 0 -4
BITMAP
1FF0
1FF0
1C70
1870
1870
1870
1870
1870
1870
1870
1870
3870
F07C
E07C
000C
000C
003C
0038
ENDCHAR
STARTCHAR uni0513
ENCODING 1299
SWIDTH 621 0
DWIDTH 12 0
BBX 12 15 0 -4
BITMAP
3FC0
3FC0
39C0
39C0
31C0
31C0
31C0
31C0
31C0
F1F0
E1F0
0030
0070
00E0
01C0
ENDCHAR
STARTCHAR uni1E00
ENCODING 7680
SWIDTH 625 0
DWIDTH 13 0
BBX 12 18 0 -4
BITMAP
0700
0700
0F00
0F80
0D80
1980
19C0
18C0
38C0
3FE0
7FE0
7060
6070
E030
0000
0700
0500
0700
ENDCHAR
STARTCHAR uni1E01
ENCODING 7681
SWIDTH 506 0
DWIDTH 10 0
BBX 8 15 1 -4
BITMAP
3C
7E
E7
03
3F
73
C3
C3
C7
FF
7B
00
38
28
38
ENDCHAR
STARTCHAR uni1E3E
ENCODING 7742
SWIDTH 815 0
DWIDTH 16 0
BBX 14 18 1 0
BITMAP
00C0
0180
0300
0000
F01C
F03C
F03C
F83C
F86C
F86C
EC6C
ECCC
ECCC
E6CC
E78C
E78C
E38C
E30C
ENDCHAR
STARTCHAR uni1E3F
ENCODING 7743
SWIDTH 809 0
DWIDTH 16 0
BBX 14 16 1 0
BITMAP
00C0
0180
0300
0000
0000
DE78
FFFC
E39C
E30C
E30C
E30C
E30C
E30C
E30C
E30C
E30C
ENDCHAR
STARTCHAR Wgrave
ENCODING 7808
SWIDTH 817 0
DWIDTH 16 0
BBX 15 18 1 0
BITMAP
0E00
0700
0300
0000
C30E
C38E
C38C
E78C
E78C
66CC
66DC
6CD8
7CD8
3C58
3C78
3870
3870
3830
ENDCHAR
STARTCHAR wgrave
ENCODING 7809
SWIDTH 691 0
DWIDTH 14 0
BBX 13 16 0 0
BITMAP
0E00
0600
0300
0000
0000
E318
6318
6718
67B8
77B0
35B0
3CB0
3CF0
3CE0
18E0
1860
ENDCHAR
STARTCHAR Wacute
ENCODING 7810
SWIDTH 817 0
DWIDTH 16 0
BBX 15 18 1 0
BITMAP
00C0
0180
0300
0000
C30E
C38E
C38C
E78C
E78C
66CC
66DC
6CD8
7CD8
3C58
3C78
3870
3870
3830
ENDCHAR
STARTCHAR wacute
ENCODING 7811
SWIDTH 691 0
DWIDTH 14 0
BBX 13 16 0 0
BITMAP
01C0
0180
0300
0000
0000
E318
6318
6718
67B8
77B0
35B0
3CB0
3CF0
3CE0
18E0
1860
ENDCHAR
STARTCHAR Wdieresis
ENCODING 7812
SWIDTH 817 0
DWIDTH 16 0
BBX 15 17 1 0
BITMAP
0CE0
0C60
0000
C30E
C38E
C38C
E78C
E78C
66CC
66DC
6CD8
7CD8
3C58
3C78
3870
3870
3830
ENDCHAR
STARTCHAR wdieresis
ENCODING 7813
SWIDTH 691 0
DWIDTH 14 0
BBX 13 15 0 0
BITMAP
1CC0
0CC0
0000
0000
E318
6318
6718
67B8
77B0
35B0
3CB0
3CF0
3CE0
18E0
1860
ENDCHAR
STARTCHAR uni1EA0
ENCODING 7840
SWIDTH 625 0
DWIDTH 13 0
BBX 12 17 0 -3
BITMAP
0700
0700
0F00
0F80
0D80
1980
19C0
18C0
38C0
3FE0
7FE0
7060
6070
E030
0000
0600
0700
ENDCHAR
STARTCHAR uni1EA1
ENCODING 7841
SWIDTH 506 0
DWIDTH 10 0
BBX 8 14 1 -3
BITMAP
3C
7E
E7
03
3F
73
C3
C3
C7
FF
7B
00
38
38
ENDCHAR
STARTCHAR uni1EA2
ENCODING 7842
SWIDTH 625 0
DWIDTH 13 0
BBX 12 19 0 0
BITMAP
0700
0300
0300
0600
0000
0700
0700
0F00
0F80
0D80
1980
19C0
18C0
38C0
3FE0
7FE0
7060
6070
E030
ENDCHAR
STARTCHAR uni1EA3
ENCODING 7843
SWIDTH 506 0
DWIDTH 10 0
BBX 8 17 1 0
BITMAP
1C
0C
0C
18
00
00
3C
7E
E7
03
3F
73
C3
C3
C7
FF
7B
ENDCHAR
STARTCHAR uni1EA4
ENCODING 7844
SWIDTH 625 0
DWIDTH 13 0
BBX 12 20 0 0
BITMAP
0030
0020
0060
0700
0980
0000
0700
0700
0F00
0F80
0D80
1980
19C0
18C0
38C0
3FE0
7FE0
7060
6070
E030
ENDCHAR
STARTCHAR uni1EA5
ENCODING 7845
SWIDTH 506 0
DWIDTH 10 0
BBX 10 17 1 0
BITMAP
00C0
0080
0180
1C00
6600
0000
3C00
7E00
E700
0300
3F00
7300
C300
C300
C700
FF00
7B00
ENDCHAR
STARTCHAR uni1EA6
ENCODING 7846
SWIDTH 625 0
DWIDTH 13 0
BBX 12 20 0 0
BITMAP
4000
6000
2000
0700
0980
0000
0700
0700
0F00
0F80
0D80
1980
19C0
18C0
38C0
3FE0
7FE0
7060
6070
E030
ENDCHAR
STARTCHAR uni1EA7
ENCODING 7847
SWIDTH 506 0
DWIDTH 10 0
BBX 10 17 -1 0
BITMAP
C000
6000
2000
0700
1980
0000
0F00
1F80
39C0
00C0
0FC0
1CC0
30C0
30C0
31C0
3FC0
1EC0
ENDCHAR
STARTCHAR uni1EA8
ENCODING 7848
SWIDTH 625 0
DWIDTH 13 0
BBX 12 19 0 0
BITMAP
0060
0060
0740
0980
0000
0700
0700
0F00
0F80
0D80
1980
19C0
18C0
38C0
3FE0
7FE0
7060
6070
E030
ENDCHAR
STARTCHAR uni1EA9
ENCODING 7849
SWIDTH 506 0
DWIDTH 10 0
BBX 9 16 1 0
BITMAP
0380
0180
1D00
6600
0000
3C00
7E00
E700
0300
3F00
7300
C300
C300
C700
FF00
7B00
ENDCHAR
STARTCHAR uni1EAA
ENCODING 7850
SWIDTH 625 0
DWIDTH 13 0
BBX 12 20 0 0
BITMAP
0400
0B00
0000
0700
0980
0000
0700
0700
0F00
0F80
0D80
1980
19C0
18C0
38C0
3FE0
7FE0
7060
6070
E030
ENDCHAR
STARTCHAR uni1EAB
ENCODING 7851
SWIDTH 506 0
DWIDTH 10 0
BBX 8 17 1 0
BITMAP
10
2C
00
1C
66
00
3C
7E
E7
03
3F
73
C3
C3
C7
FF
7B
ENDCHAR
STARTCHAR uni1EAC
ENCODING 7852
SWIDTH 625 0
DWIDTH 13 0
BBX 12 21 0 -3
BITMAP
0600
0F00
1980
0000
0700
0700
0F00
0F80
0D80
1980
19C0
18C0
38C0
3FE0
7FE0
7060
6070
E030
0000
0600
0700
ENDCHAR
STARTCHAR uni1EAD
ENCODING 7853
SWIDTH 506 0
DWIDTH 10 0
BBX 8 18 1 -3
BITMAP
18
3C
66
00
3C
7E
E7
03
3F
73
C3
C3
C7
FF
7B
00
38
38
ENDCHAR
STARTCHAR uni1EAE
ENCODING 7854
SWIDTH 625 0
DWIDTH 13 0
BBX 12 20 0 0
BITMAP
0300
0200
1880
0980
0F00
0000
0700
0700
0F00
0F80
0D80
1980
19C0
18C0
38C0
3FE0
7FE0
7060
6070
E030
ENDCHAR
STARTCHAR uni1EAF
ENCODING 7855
SWIDTH 506 0
DWIDTH 10 0
BBX 8 17 1 0
BITMAP
0C
08
66
66
3C
00
3C
7E
E7
03
3F
73
C3
C3
C7
FF
7B
ENDCHAR
STARTCHAR uni1EB0
ENCODING 7856
SWIDTH 625 0
DWIDTH 13 0
BBX 12 21 0 0
BITMAP
0400
0600
0000
1880
0980
0F00
0000
0700
0700
0F00
0F80
0D80
1980
19C0
18C0
38C0
3FE0
7FE0
7060
6070
E030
ENDCHAR
STARTCHAR uni1EB1
ENCODING 7857
SWIDTH 506 0
DWIDTH 10 0
BBX 8 18 1 0
BITMAP
10
18
00
66
66
3C
00
3C
7E
E7
03
3F
73
C3
C3
C7
FF
7B
ENDCHAR
STARTCHAR uni1EB2
ENCODING 7858
SWIDTH 625 0
DWIDTH 13 0
BBX 12 21 0 0
BITMAP
0700
0100
0600
1980
0980
0F00
0000
0700
0700
0F00
0F80
0D80
1980
19C0
18C0
38C0
3FE0
7FE0
7060
6070
E030
ENDCHAR
STARTCHAR uni1EB3
ENCODING 7859
SWIDTH 506 0
DWIDTH 10 0
BBX 8 19 1 0
BITMAP
1C
0C
18
66
66
3C
00
00
3C
7E
E7
03
3F
73
C3
C3
C7
FF
7B
ENDCHAR
STARTCHAR uni1EB4
ENCODING 7860
SWIDTH 625 0
DWIDTH 13 0
BBX 12 20 0 0
BITMAP
0C80
0B00
0000
1980
0F00
0000
0700
0700
0F00
0F80
0D80
1980
19C0
18C0
38C0
3FE0
7FE0
7060
6070
E030
ENDCHAR
STARTCHAR uni1EB5
ENCODING 7861
SWIDTH 506 0
DWIDTH 10 0
BBX 8 18 1 0
BITMAP
32
2C
00
66
3C
00
00
3C
7E
E7
03
3F
73
C3
C3
C7
FF
7B
ENDCHAR
STARTCHAR uni1EB6
ENCODING 7862
SWIDTH 625 0
DWIDTH 13 0
BBX 12 21 0 -3
BITMAP
1880
1D80
0F00
0000
0700
0700
0F00
0F80
0D80
1980
19C0
18C0
38C0
3FE0
7FE0
7060
6070
E030
0000
0600
0700
ENDCHAR
STARTCHAR uni1EB7
ENCODING 7863
SWIDTH 506 0
DWIDTH 10 0
BBX 8 18 1 -3
BITMAP
62
76
3C
00
3C
7E
E7
03
3F
73
C3
C3
C7
FF
7B
00
38
38
ENDCHAR
STARTCHAR uni1EB8
ENCODING 7864
SWIDTH 529 0
DWIDTH 11 0
BBX 9 17 1 -3
BITMAP
FF80
FF80
E000
E000
E000
E000
FF00
FF00
E000
E000
E000
E000
FF80
FF80
0000
0C00
1C00
ENDCHAR
STARTCHAR uni1EB9
ENCODING 7865
SWIDTH 504 0
DWIDTH 10 0
BBX 8 14 1 -3
BITMAP
3C
7F
E3
C3
FF
FF
C0
C0
E1
7F
3E
00
18
18
ENDCHAR
STARTCHAR uni1EBA
ENCODING 7866
SWIDTH 529 0
DWIDTH 11 0
BBX 9 19 1 0
BITMAP
0C00
0600
0600
0C00
0000
FF80
FF80
E000
E000
E000
E000
FF00
FF00
E000
E000
E000
E000
FF80
FF80
ENDCHAR
STARTCHAR uni1EBB
ENCODING 7867
SWIDTH 504 0
DWIDTH 10 0
BBX 8 17 1 0
BITMAP
18
0C
0C
18
00
00
3C
7F
E3
C3
FF
FF
C0
C0
E1
7F
3E
ENDCHAR
STARTCHAR uni1EBC
ENCODING 7868
SWIDTH 529 0
DWIDTH 11 0
BBX 9 18 1 0
BITMAP
3100
3F00
6600
0000
FF80
FF80
E000
E000
E000
E000
FF00
FF00
E000
E000
E000
E000
FF80
FF80
ENDCHAR
STARTCHAR uni1EBD
ENCODING 7869
SWIDTH 504 0
DWIDTH 10 0
BBX 8 15 1 0
BITMAP
32
7E
4E
00
3C
7F
E3
C3
FF
FF
C0
C0
E1
7F
3E
ENDCHAR
STARTCHAR uni1EBE
ENCODING 7870
SWIDTH 529 0
DWIDTH 11 0
BBX 11 20 1 0
BITMAP
0060
00C0
0080
1C00
3200
0000
FF80
FF80
E000
E000
E000
E000
FF00
FF00
E000
E000
E000
E000
FF80
FF80
ENDCHAR
STARTCHAR uni1EBF
ENCODING 7871
SWIDTH 504 0
DWIDTH 10 0
BBX 10 17 1 0
BITMAP
00C0
0180
0180
1800
6600
0000
3C00
7F00
E300
C300
FF00
FF00
C000
C000
E100
7F00
3E00
ENDCHAR
STARTCHAR uni1EC0
ENCODING 7872
SWIDTH 529 0
DWIDTH 11 0
BBX 10 20 0 0
BITMAP
C000
4000
6000
0E00
1900
0000
7FC0
7FC0
7000
7000
7000
7000
7F80
7F80
7000
7000
7000
7000
7FC0
7FC0
ENDCHAR
STARTCHAR uni1EC1
ENCODING 7873
SWIDTH 504 0
DWIDTH 10 0
BBX 10 17 -1 0
BITMAP
C000
6000
2000
0600
1980
0000
0F00
1FC0
38C0
30C0
3FC0
3FC0
3000
3000
3840
1FC0
0F80
ENDCHAR
STARTCHAR uni1EC2
ENCODING 7874
SWIDTH 529 0
DWIDTH 11 0
BBX 10 19 1 0
BITMAP
0180
01C0
1D80
3200
0000
FF80
FF80
E000
E000
E000
E000
FF00
FF00
E000
E000
E000
E000
FF80
FF80
ENDCHAR
STARTCHAR uni1EC3
ENCODING 7875
SWIDTH 504 0
DWIDTH 10 0
BBX 9 16 1 0
BITMAP
0380
0180
1D00
6600
0000
3C00
7F00
E300
C300
FF00
FF00
C000
C000
E100
7F00
3E00
ENDCHAR
STARTCHAR uni1EC4
ENCODING 7876
SWIDTH 529 0
DWIDTH 11 0
BBX 9 20 1 0
BITMAP
1200
1E00
0000
1C00
3200
0000
FF80
FF80
E000
E000
E000
E000
FF00
FF00
E000
E000
E000
E000
FF80
FF80
ENDCHAR
STARTCHAR uni1EC5
ENCODING 7877
SWIDTH 504 0
DWIDTH 10 0
BBX 8 17 1 0
BITMAP
10
2C
00
18
66
00
3C
7F
E3
C3
FF
FF
C0
C0
E1
7F
3E
ENDCHAR
STARTCHAR uni1EC6
ENCODING 7878
SWIDTH 529 0
DWIDTH 11 0
BBX 9 21 1 -3
BITMAP
0C00
1E00
3300
0000
FF80
FF80
E000
E000
E000
E000
FF00
FF00
E000
E000
E000
E000
FF80
FF80
0000
0C00
1C00
ENDCHAR
STARTCHAR uni1EC7
ENCODING 7879
SWIDTH 504 0
DWIDTH 10 0
BBX 8 18 1 -3
BITMAP
18
3C
66
00
3C
7F
E3
C3
FF
FF
C0
C0
E1
7F
3E
00
18
18
ENDCHAR
STARTCHAR uni1EC8
ENCODING 7880
SWIDTH 271 0
DWIDTH 5 0
BBX 3 19 2 0
BITMAP
C0
60
E0
C0
00
C0
C0
C0
C0
C0
C0
C0
C0
C0
C0
C0
C0
C0
C0
ENDCHAR
STARTCHAR uni1EC9
ENCODING 7881
SWIDTH 255 0
DWIDTH 5 0
BBX 4 17 1 0
BITMAP
60
30
70
40
00
00
E0
E0
E0
E0
E0
E0
E0
E0
E0
E0
E0
ENDCHAR
STARTCHAR uni1ECA
ENCODING 7882
SWIDTH 271 0
DWIDTH 5 0
BBX 3 17 1 -3
BITMAP
60
60
60
60
60
60
60
60
60
60
60
60
60
60
00
60
E0
ENDCHAR
STARTCHAR uni1ECB
ENCODING 7883
SWIDTH 248 0
DWIDTH 5 0
BBX 3 19 1 -3
BITMAP
40
E0
E0
00
00
E0
E0
E0
E0
E0
E0
E0
E0
E0
E0
E0
00
E0
E0
ENDCHAR
STARTCHAR uni1ECC
ENCODING 7884
SWIDTH 645 0
DWIDTH 13 0
BBX 11 17 1 -3
BITMAP
1F00
3F80
71C0
E0C0
E0E0
C0E0
C0E0
C0E0
C0E0
E0E0
E0C0
71C0
3F80
1F00
0000
0E00
0E00
ENDCHAR
STARTCHAR uni1ECD
ENCODING 7885
SWIDTH 533 0
DWIDTH 11 0
BBX 9 14 1 -3
BITMAP
3C00
7F00
E300
C380
C180
C180
C180
C380
E300
7F00
3E00
0000
1800
1C00
ENDCHAR
STARTCHAR uni1ECE
ENCODING 7886
SWIDTH 645 0
DWIDTH 13 0
BBX 11 19 1 0
BITMAP
0E00
0300
0700
0400
0000
1F00
3F80
71C0
E0C0
E0E0
C0E0
C0E0
C0E0
C0E0
E0E0
E0C0
71C0
3F80
1F00
ENDCHAR
STARTCHAR uni1ECF
ENCODING 7887
SWIDTH 533 0
DWIDTH 11 0
BBX 9 17 1 0
BITMAP
1C00
0C00
0C00
1800
0000
0000
3C00
7F00
E300
C380
C180
C180
C180
C380
E300
7F00
3E00
ENDCHAR
STARTCHAR uni1ED0
ENCODING 7888
SWIDTH 645 0
DWIDTH 13 0
BBX 11 20 1 0
BITMAP
0060
0060
00C0
0E00
1B00
0000
1F00
3F80
71C0
E0C0
E0E0
C0E0
C0E0
C0E0
C0E0
E0E0
E0C0
71C0
3F80
1F00
ENDCHAR
STARTCHAR uni1ED1
ENCODING 7889
SWIDTH 533 0
DWIDTH 11 0
BBX 10 17 1 0
BITMAP
00C0
0080
0180
1C00
2600
0000
3C00
7F00
E300
C380
C180
C180
C180
C380
E300
7F00
3E00
ENDCHAR
STARTCHAR uni1ED2
ENCODING 7890
SWIDTH 645 0
DWIDTH 13 0
BBX 11 20 1 0
BITMAP
C000
C000
6000
0E00
1B00
0000
1F00
3F80
71C0
E0C0
E0E0
C0E0
C0E0
C0E0
C0E0
E0E0
E0C0
71C0
3F80
1F00
ENDCHAR
STARTCHAR uni1ED3
ENCODING 7891
SWIDTH 533 0
DWIDTH 11 0
BBX 10 17 0 0
BITMAP
8000
C000
4000
0E00
1300
0000
1E00
3F80
7180
61C0
60C0
60C0
60C0
61C0
7180
3F80
1F00
ENDCHAR
STARTCHAR uni1ED4
ENCODING 7892
SWIDTH 645 0
DWIDTH 13 0
BBX 11 19 1 0
BITMAP
00C0
00C0
0E80
1300
0000
1F00
3F80
71C0
E0C0
E0E0
C0E0
C0E0
C0E0
C0E0
E0E0
E0C0
71C0
3F80
1F00
ENDCHAR
STARTCHAR uni1ED5
ENCODING 7893
SWIDTH 533 0
DWIDTH 11 0
BBX 9 16 1 0
BITMAP
0180
0180
1D00
2600
0000
3C00
7F00
E300
C380
C180
C180
C180
C380
E300
7F00
3E00
ENDCHAR
STARTCHAR uni1ED6
ENCODING 7894
SWIDTH 645 0
DWIDTH 13 0
BBX 11 20 1 0
BITMAP
0900
1700
0000
0E00
1B00
0000
1F00
3F80
71C0
E0C0
E0E0
C0E0
C0E0
C0E0
C0E0
E0E0
E0C0
71C0
3F80
1F00
ENDCHAR
STARTCHAR uni1ED7
ENCODING 7895
SWIDTH 533 0
DWIDTH 11 0
BBX 9 17 1 0
BITMAP
1000
2C00
0000
1C00
2600
0000
3C00
7F00
E300
C380
C180
C180
C180
C380
E300
7F00
3E00
ENDCHAR
STARTCHAR uni1ED8
ENCODING 7896
SWIDTH 645 0
DWIDTH 13 0
BBX 11 21 1 -3
BITMAP
0E00
0A00
1B00
0000
1F00
3F80
71C0
E0C0
E0E0
C0E0
C0E0
C0E0
C0E0
E0E0
E0C0
71C0
3F80
1F00
0000
0E00
0E00
ENDCHAR
STARTCHAR uni1ED9
ENCODING 7897
SWIDTH 533 0
DWIDTH 11 0
BBX 9 18 1 -3
BITMAP
1800
3C00
6600
0000
3C00
7F00
E300
C380
C180
C180
C180
C380
E300
7F00
3E00
0000
1800
1C00
ENDCHAR
STARTCHAR uni1EDA
ENCODING 7898
SWIDTH 648 0
DWIDTH 13 0
BBX 12 18 1 0
BITMAP
0300
0600
0600
0030
1F30
3FB0
71E0
E0C0
E0E0
C0E0
C0E0
C0E0
C0E0
E0E0
E0C0
71C0
3F80
1F00
ENDCHAR
STARTCHAR uni1EDB
ENCODING 7899
SWIDTH 542 0
DWIDTH 11 0
BBX 10 15 1 0
BITMAP
0600
0C00
1800
00C0
3CC0
7F80
E300
C380
C180
C180
C180
C380
E300
7F00
3C00
ENDCHAR
STARTCHAR uni1EDC
ENCODING 7900
SWIDTH 648 0
DWIDTH 13 0
BBX 12 18 1 0
BITMAP
3800
1C00
0C00
0030
1F30
3FB0
71E0
E0C0
E0E0
C0E0
C0E0
C0E0
C0E0
E0E0
E0C0
71C0
3F80
1F00
ENDCHAR
STARTCHAR uni1EDD
ENCODING 7901
SWIDTH 542 0
DWIDTH 11 0
BBX 10 15 1 0
BITMAP
7000
3800
1800
00C0
3CC0
7F80
E300
C380
C180
C180
C180
C380
E300
7F00
3C00
ENDCHAR
STARTCHAR uni1EDE
ENCODING 7902
SWIDTH 648 0
DWIDTH 13 0
BBX 12 19 1 0
BITMAP
0E00
0300
0700
0400
0030
1F30
3FB0
71E0
E0C0
E0E0
C0E0
C0E0
C0E0
C0E0
E0E0
E0C0
71C0
3F80
1F00
ENDCHAR
STARTCHAR uni1EDF
ENCODING 7903
SWIDTH 542 0
DWIDTH 11 0
BBX 10 17 1 0
BITMAP
1C00
0C00
0C00
1800
0000
00C0
3CC0
7F80
E300
C380
C180
C180
C180
C380
E300
7F00
3C00
ENDCHAR
STARTCHAR uni1EE0
ENCODING 7904
SWIDTH 648 0
DWIDTH 13 0
BBX 12 18 1 0
BITMAP
1980
3F00
3300
0030
1F30
3FB0
71E0
E0C0
E0E0
C0E0
C0E0
C0E0
C0E0
E0E0
E0C0
71C0
3F80
1F00
ENDCHAR
STARTCHAR uni1EE1
ENCODING 7905
SWIDTH 542 0
DWIDTH 11 0
BBX 10 15 1 0
BITMAP
3300
7E00
4600
00C0
3CC0
7F80
E300
C380
C180
C180
C180
C380
E300
7F00
3C00
ENDCHAR
STARTCHAR uni1EE2
ENCODING 7906
SWIDTH 648 0
DWIDTH 13 0
BBX 12 18 1 -3
BITMAP
0030
1F30
3FB0
71E0
E0C0
E0E0
C0E0
C0E0
C0E0
C0E0
E0E0
E0C0
71C0
3F80
1F00
0000
0C00
0E00
ENDCHAR
STARTCHAR uni1EE3
ENCODING 7907
SWIDTH 542 0
DWIDTH 11 0
BBX 10 15 1 -3
BITMAP
00C0
3CC0
7F80
E300
C380
C180
C180
C180
C380
E300
7F00
3C00
0000
1800
1C00
ENDCHAR
STARTCHAR uni1EE4
ENCODING 7908
SWIDTH 610 0
DWIDTH 12 0
BBX 10 17 1 -3
BITMAP
E0C0
E0C0
E0C0
E0C0
E0C0
E0C0
E0C0
E0C0
E0C0
E0C0
E0C0
61C0
7F80
1F00
0000
0C00
0C00
ENDCHAR
STARTCHAR uni1EE5
ENCODING 7909
SWIDTH 521 0
DWIDTH 10 0
BBX 8 14 1 -3
BITMAP
C3
C3
C3
C3
C3
C3
C3
C3
E3
7F
3B
00
38
38
ENDCHAR
STARTCHAR uni1EE6
ENCODING 7910
SWIDTH 610 0
DWIDTH 12 0
BBX 10 19 1 0
BITMAP
0C00
0600
0600
0C00
0000
E0C0
E0C0
E0C0
E0C0
E0C0
E0C0
E0C0
E0C0
E0C0
E0C0
E0C0
61C0
7F80
1F00
ENDCHAR
STARTCHAR uni1EE7
ENCODING 7911
SWIDTH 521 0
DWIDTH 10 0
BBX 8 17 1 0
BITMAP
1C
0C
0C
18
00
00
C3
C3
C3
C3
C3
C3
C3
C3
E3
7F
3B
ENDCHAR
STARTCHAR uni1EE8
ENCODING 7912
SWIDTH 661 0
DWIDTH 13 0
BBX 14 18 1 0
BITMAP
0300
0700
0600
000C
E0C8
E0D8
E0F8
E0E0
E0C0
E0C0
E0C0
E0C0
E0C0
E0C0
E1C0
61C0
7F80
1F00
ENDCHAR
STARTCHAR uni1EE9
ENCODING 7913
SWIDTH 578 0
DWIDTH 12 0
BBX 11 15 1 0
BITMAP
0600
0C00
1800
0020
C360
C3C0
C380
C300
C300
C300
C300
C300
E300
7F00
3B00
ENDCHAR
STARTCHAR uni1EEA
ENCODING 7914
SWIDTH 661 0
DWIDTH 13 0
BBX 14 18 1 0
BITMAP
1800
1C00
0C00
000C
E0C8
E0D8
E0F8
E0E0
E0C0
E0C0
E0C0
E0C0
E0C0
E0C0
E1C0
61C0
7F80
1F00
ENDCHAR
STARTCHAR uni1EEB
ENCODING 7915
SWIDTH 578 0
DWIDTH 12 0
BBX 11 15 1 0
BITMAP
7000
3800
1800
0020
C360
C3C0
C380
C300
C300
C300
C300
C300
E300
7F00
3B00
ENDCHAR
STARTCHAR uni1EEC
ENCODING 7916
SWIDTH 661 0
DWIDTH 13 0
BBX 14 19 1 0
BITMAP
0E00
0300
0700
0400
000C
E0C8
E0D8
E0F8
E0E0
E0C0
E0C0
E0C0
E0C0
E0C0
E0C0
E1C0
61C0
7F80
1F00
ENDCHAR
STARTCHAR uni1EED
ENCODING 7917
SWIDTH 578 0
DWIDTH 12 0
BBX 11 17 1 0
BITMAP
1C00
0C00
0C00
1800
0000
0020
C360
C3C0
C380
C300
C300
C300
C300
C300
E300
7F00
3B00
ENDCHAR
STARTCHAR uni1EEE
ENCODING 7918
SWIDTH 661 0
DWIDTH 13 0
BBX 14 18 1 0
BITMAP
1980
3F80
3300
000C
E0C8
E0D8
E0F8
E0E0
E0C0
E0C0
E0C0
E0C0
E0C0
E0C0
E1C0
61C0
7F80
1F00
ENDCHAR
STARTCHAR uni1EEF
ENCODING 7919
SWIDTH 578 0
DWIDTH 12 0
BBX 11 15 1 0
BITMAP
3300
7E00
4600
0020
C360
C3C0
C380
C300
C300
C300
C300
C300
E300
7F00
3B00
ENDCHAR
STARTCHAR uni1EF0
ENCODING 7920
SWIDTH 661 0
DWIDTH 13 0
BBX 14 18 1 -3
BITMAP
000C
E0C8
E0D8
E0F8
E0E0
E0C0
E0C0
E0C0
E0C0
E0C0
E0C0
E1C0
61C0
7F80
1F00
0000
0E00
0E00
ENDCHAR
STARTCHAR uni1EF1
ENCODING 7921
SWIDTH 578 0
DWIDTH 12 0
BBX 11 15 1 -3
BITMAP
0020
C360
C3C0
C380
C300
C300
C300
C300
C300
E300
7F00
3B00
0000
1800
1800
ENDCHAR
STARTCHAR Ygrave
ENCODING 7922
SWIDTH 572 0
DWIDTH 11 0
BBX 11 18 0 0
BITMAP
1800
0C00
0600
0000
E0E0
60E0
70C0
31C0
3980
1B80
1F00
0F00
0E00
0E00
0E00
0E00
0E00
0E00
ENDCHAR
STARTCHAR ygrave
ENCODING 7923
SWIDTH 460 0
DWIDTH 9 0
BBX 9 20 0 -4
BITMAP
3000
1800
0C00
0000
0000
E380
6380
6300
7300
3700
3600
3600
1E00
1C00
1C00
0C00
1800
1800
7800
7000
ENDCHAR
STARTCHAR uni1EF4
ENCODING 7924
SWIDTH 572 0
DWIDTH 11 0
BBX 11 17 0 -3
BITMAP
E0E0
60E0
70C0
31C0
3980
1B80
1F00
0F00
0E00
0E00
0E00
0E00
0E00
0E00
0000
0600
0E00
ENDCHAR
STARTCHAR uni1EF5
ENCODING 7925
SWIDTH 460 0
DWIDTH 9 0
BBX 9 15 0 -4
BITMAP
E380
6380
6300
7300
3700
3600
3600
1E00
1C00
1C00
0C00
1800
1800
7B00
7300
ENDCHAR
STARTCHAR uni1EF6
ENCODING 7926
SWIDTH 572 0
DWIDTH 11 0
BBX 11 19 0 0
BITMAP
0600
0300
0300
0600
0000
E0E0
60E0
70C0
31C0
3980
1B80
1F00
0F00
0E00
0E00
0E00
0E00
0E00
0E00
ENDCHAR
STARTCHAR uni1EF7
ENCODING 7927
SWIDTH 460 0
DWIDTH 9 0
BBX 9 21 0 -4
BITMAP
0C00
0600
0600
0C00
0000
0000
E380
6380
6300
7300
3700
3600
3600
1E00
1C00
1C00
0C00
1800
1800
7800
7000
ENDCHAR
STARTCHAR uni1EF8
ENCODING 7928
SWIDTH 572 0
DWIDTH 11 0
BBX 11 18 0 0
BITMAP
1880
1F80
3300
0000
E0E0
60E0
70C0
31C0
3980
1B80
1F00
0F00
0E00
0E00
0E00
0E00
0E00
0E00
ENDCHAR
STARTCHAR uni1EF9
ENCODING 7929
SWIDTH 460 0
DWIDTH 9 0
BBX 9 20 0 -4
BITMAP
3100
3F00
6600
0000
0000
E380
6380
6300
7300
3700
3600
3600
1E00
1C00
1C00
0C00
1800
1800
7800
7000
ENDCHAR
STARTCHAR uni1F4D
ENCODING 8013
SWIDTH 679 0
DWIDTH 14 0
BBX 17 14 -4 0
BITMAP
CC7C00
C9FE00
598700
538300
030300
030380
030380
030380
030380
030300
038300
01C700
01FE00
007C00
ENDCHAR
STARTCHAR uni2000
ENCODING 8192
SWIDTH 479 0
DWIDTH 10 0
BBX 1 1 0 0
BITMAP
00
ENDCHAR
STARTCHAR uni2001
ENCODING 8193
SWIDTH 948 0
DWIDTH 19 0
BBX 1 1 0 0
BITMAP
00
ENDCHAR
STARTCHAR uni2002
ENCODING 8194
SWIDTH 479 0
DWIDTH 10 0
BBX 1 1 0 0
BITMAP
00
ENDCHAR
STARTCHAR uni2003
ENCODING 8195
SWIDTH 948 0
DWIDTH 19 0
BBX 1 1 0 0
BITMAP
00
ENDCHAR
STARTCHAR uni2004
ENCODING 8196
SWIDTH 322 0
DWIDTH 6 0
BBX 1 1 0 0
BITMAP
00
ENDCHAR
STARTCHAR uni2005
ENCODING 8197
SWIDTH 244 0
DWIDTH 5 0
BBX 1 1 0 0
BITMAP
00
ENDCHAR
STARTCHAR uni2006
ENCODING 8198
SWIDTH 166 0
DWIDTH 3 0
BBX 1 1 0 0
BITMAP
00
ENDCHAR
STARTCHAR uni2007
ENCODING 8199
SWIDTH 526 0
DWIDTH 11 0
BBX 1 1 0 0
BITMAP
00
ENDCHAR
STARTCHAR uni2008
ENCODING 8200
SWIDTH 261 0
DWIDTH 5 0
BBX 1 1 0 0
BITMAP
00
ENDCHAR
STARTCHAR uni2009
ENCODING 8201
SWIDTH 197 0
DWIDTH 4 0
BBX 1 1 0 0
BITMAP
00
ENDCHAR
STARTCHAR uni200A
ENCODING 8202
SWIDTH 104 0
DWIDTH 2 0
BBX 1 1 0 0
BITMAP
00
ENDCHAR
STARTCHAR uni200B
ENCODING 8203
SWIDTH 0 0
DWIDTH 0 0
BBX 1 1 0 0
BITMAP
00
ENDCHAR
STARTCHAR uni2010
ENCODING 8208
SWIDTH 324 0
DWIDTH 7 0
BBX 5 2 1 5
BITMAP
F8
F8
ENDCHAR
STARTCHAR uni2011
ENCODING 8209
SWIDTH 324 0
DWIDTH 7 0
BBX 5 2 1 5
BITMAP
F8
F8
ENDCHAR
STARTCHAR endash
ENCODING 8211
SWIDTH 600 0
DWIDTH 12 0
BBX 9 2 2 6
BITMAP
FF80
FF80
ENDCHAR
STARTCHAR emdash
ENCODING 8212
SWIDTH 719 0
DWIDTH 14 0
BBX 13 2 1 6
BITMAP
FFF8
FFF8
ENDCHAR
STARTCHAR uni2015
ENCODING 8213
SWIDTH 719 0
DWIDTH 14 0
BBX 13 2 1 6
BITMAP
FFF8
FFF8
ENDCHAR
STARTCHAR underscoredbl
ENCODING 8215
SWIDTH 423 0
DWIDTH 8 0
BBX 8 4 0 -4
BITMAP
FF
00
00
FF
ENDCHAR
STARTCHAR quoteleft
ENCODING 8216
SWIDTH 215 0
DWIDTH 4 0
BBX 2 5 1 10
BITMAP
40
40
C0
C0
C0
ENDCHAR
STARTCHAR quoteright
ENCODING 8217
SWIDTH 213 0
DWIDTH 4 0
BBX 2 5 1 10
BITMAP
C0
C0
C0
C0
80
ENDCHAR
STARTCHAR quotesinglbase
ENCODING 8218
SWIDTH 223 0
DWIDTH 4 0
BBX 2 5 1 -3
BITMAP
C0
C0
C0
C0
80
ENDCHAR
STARTCHAR quotereversed
ENCODING 8219
SWIDTH 202 0
DWIDTH 4 0
BBX 2 5 1 10
BITMAP
C0
C0
C0
C0
40
ENDCHAR
STARTCHAR quotedblleft
ENCODING 8220
SWIDTH 371 0
DWIDTH 7 0
BBX 6 5 1 10
BITMAP
6C
6C
D8
D8
D8
ENDCHAR
STARTCHAR quotedblright
ENCODING 8221
SWIDTH 375 0
DWIDTH 8 0
BBX 6 5 1 10
BITMAP
6C
4C
D8
D8
90
ENDCHAR
STARTCHAR quotedblbase
ENCODING 8222
SWIDTH 366 0
DWIDTH 7 0
BBX 5 6 1 -4
BITMAP
D8
D8
D8
D8
D8
90
ENDCHAR
STARTCHAR dagger
ENCODING 8224
SWIDTH 510 0
DWIDTH 10 0
BBX 9 14 1 0
BITMAP
1800
1800
1800
1800
FF80
FF80
1800
1800
1800
1800
1800
1800
1800
1800
ENDCHAR
STARTCHAR daggerdbl
ENCODING 8225
SWIDTH 540 0
DWIDTH 11 0
BBX 9 18 1 -4
BITMAP
1C00
1C00
1C00
1C00
FF80
FF80
1C00
1C00
1C00
1C00
1C00
1C00
FF80
FF80
1C00
1C00
1C00
1C00
ENDCHAR
STARTCHAR bullet
ENCODING 8226
SWIDTH 349 0
DWIDTH 7 0
BBX 5 5 1 5
BITMAP
70
F8
F8
F8
70
ENDCHAR
STARTCHAR twodotenleader
ENCODING 8229
SWIDTH 473 0
DWIDTH 9 0
BBX 7 3 1 0
BITMAP
44
E6
66
ENDCHAR
STARTCHAR ellipsis
ENCODING 8230
SWIDTH 668 0
DWIDTH 13 0
BBX 11 3 1 0
BITMAP
4460
E660
6660
ENDCHAR
STARTCHAR uni2027
ENCODING 8231
SWIDTH 223 0
DWIDTH 4 0
BBX 3 3 1 5
BITMAP
C0
E0
C0
ENDCHAR
STARTCHAR perthousand
ENCODING 8240
SWIDTH 889 0
DWIDTH 18 0
BBX 16 14 1 0
BITMAP
7000
D880
8880
8980
8B00
DA00
7600
04EE
0DBB
0B33
1B33
3333
21BB
00EE
ENDCHAR
STARTCHAR minute
ENCODING 8242
SWIDTH 167 0
DWIDTH 3 0
BBX 2 5 1 10
BITMAP
C0
C0
C0
80
80
ENDCHAR
STARTCHAR second
ENCODING 8243
SWIDTH 319 0
DWIDTH 6 0
BBX 5 5 1 10
BITMAP
D8
D8
D0
90
90
ENDCHAR
STARTCHAR guilsinglleft
ENCODING 8249
SWIDTH 292 0
DWIDTH 6 0
BBX 4 8 1 1
BITMAP
30
20
60
C0
C0
60
20
30
ENDCHAR
STARTCHAR guilsinglright
ENCODING 8250
SWIDTH 287 0
DWIDTH 6 0
BBX 4 8 1 1
BITMAP
C0
40
60
30
30
60
40
C0
ENDCHAR
STARTCHAR exclamdbl
ENCODING 8252
SWIDTH 518 0
DWIDTH 10 0
BBX 8 14 1 0
BITMAP
E3
E3
E3
63
63
63
63
63
63
00
00
63
E3
63
ENDCHAR
STARTCHAR fraction
ENCODING 8260
SWIDTH 423 0
DWIDTH 8 0
BBX 7 11 1 2
BITMAP
02
06
0C
08
18
30
20
60
40
C0
80
ENDCHAR
STARTCHAR uni2070
ENCODING 8304
SWIDTH 351 0
DWIDTH 7 0
BBX 5 8 1 7
BITMAP
70
D8
D8
C8
C8
D8
D8
70
ENDCHAR
STARTCHAR uni2074
ENCODING 8308
SWIDTH 351 0
DWIDTH 7 0
BBX 5 8 1 7
BITMAP
38
38
78
D8
98
F8
18
18
ENDCHAR
STARTCHAR uni2075
ENCODING 8309
SWIDTH 351 0
DWIDTH 7 0
BBX 5 8 1 7
BITMAP
F8
C0
C0
F8
58
08
D8
70
ENDCHAR
STARTCHAR uni2076
ENCODING 8310
SWIDTH 351 0
DWIDTH 7 0
BBX 5 8 1 7
BITMAP
30
70
C0
F8
D8
C8
D8
70
ENDCHAR
STARTCHAR uni2077
ENCODING 8311
SWIDTH 351 0
DWIDTH 7 0
BBX 5 8 1 7
BITMAP
F8
18
18
10
30
20
60
40
ENDCHAR
STARTCHAR uni2078
ENCODING 8312
SWIDTH 351 0
DWIDTH 7 0
BBX 5 8 1 7
BITMAP
70
D8
D8
D8
78
D8
D8
70
ENDCHAR
STARTCHAR uni2079
ENCODING 8313
SWIDTH 351 0
DWIDTH 7 0
BBX 5 8 1 7
BITMAP
70
D8
98
D8
F8
18
38
60
ENDCHAR
STARTCHAR uni207A
ENCODING 8314
SWIDTH 382 0
DWIDTH 8 0
BBX 6 8 1 6
BITMAP
30
30
30
FC
FC
30
30
30
ENDCHAR
STARTCHAR uni207B
ENCODING 8315
SWIDTH 352 0
DWIDTH 7 0
BBX 5 2 1 9
BITMAP
F8
F8
ENDCHAR
STARTCHAR uni207C
ENCODING 8316
SWIDTH 352 0
DWIDTH 7 0
BBX 5 4 1 8
BITMAP
F8
F8
00
F8
ENDCHAR
STARTCHAR uni207D
ENCODING 8317
SWIDTH 241 0
DWIDTH 5 0
BBX 3 11 1 4
BITMAP
20
60
C0
C0
C0
C0
C0
C0
C0
60
20
ENDCHAR
STARTCHAR uni207E
ENCODING 8318
SWIDTH 241 0
DWIDTH 5 0
BBX 3 11 1 4
BITMAP
80
C0
40
60
60
60
60
60
40
C0
80
ENDCHAR
STARTCHAR uni207F
ENCODING 8319
SWIDTH 395 0
DWIDTH 8 0
BBX 6 8 1 6
BITMAP
F8
FC
CC
CC
CC
CC
CC
CC
ENDCHAR
STARTCHAR uni2080
ENCODING 8320
SWIDTH 351 0
DWIDTH 7 0
BBX 5 8 1 -4
BITMAP
70
D8
D8
C8
C8
D8
D8
70
ENDCHAR
STARTCHAR uni2081
ENCODING 8321
SWIDTH 351 0
DWIDTH 7 0
BBX 4 8 1 -4
BITMAP
30
F0
B0
30
30
30
30
30
ENDCHAR
STARTCHAR uni2082
ENCODING 8322
SWIDTH 351 0
DWIDTH 7 0
BBX 5 8 1 -4
BITMAP
70
D8
98
18
30
60
C0
F8
ENDCHAR
STARTCHAR uni2083
ENCODING 8323
SWIDTH 351 0
DWIDTH 7 0
BBX 5 8 1 -4
BITMAP
70
D8
18
18
30
18
D8
70
ENDCHAR
STARTCHAR uni2084
ENCODING 8324
SWIDTH 351 0
DWIDTH 7 0
BBX 5 8 1 -4
BITMAP
38
38
78
D8
98
F8
18
18
ENDCHAR
STARTCHAR uni2085
ENCODING 8325
SWIDTH 351 0
DWIDTH 7 0
BBX 5 8 1 -4
BITMAP
F8
C0
C0
F8
58
08
D8
70
ENDCHAR
STARTCHAR uni2086
ENCODING 8326
SWIDTH 351 0
DWIDTH 7 0
BBX 5 8 1 -4
BITMAP
30
70
C0
F8
D8
C8
D8
70
ENDCHAR
STARTCHAR uni2087
ENCODING 8327
SWIDTH 351 0
DWIDTH 7 0
BBX 5 8 1 -4
BITMAP
F8
18
18
10
30
20
60
40
ENDCHAR
STARTCHAR uni2088
ENCODING 8328
SWIDTH 351 0
DWIDTH 7 0
BBX 5 8 1 -4
BITMAP
70
D8
D8
D8
78
D8
D8
70
ENDCHAR
STARTCHAR uni2089
ENCODING 8329
SWIDTH 351 0
DWIDTH 7 0
BBX 5 8 1 -4
BITMAP
70
D8
98
D8
F8
18
38
60
ENDCHAR
STARTCHAR uni208A
ENCODING 8330
SWIDTH 381 0
DWIDTH 8 0
BBX 6 8 1 -4
BITMAP
30
30
30
FC
FC
30
30
30
ENDCHAR
STARTCHAR uni208B
ENCODING 8331
SWIDTH 352 0
DWIDTH 7 0
BBX 5 2 1 -1
BITMAP
F8
F8
ENDCHAR
STARTCHAR uni208C
ENCODING 8332
SWIDTH 352 0
DWIDTH 7 0
BBX 5 4 1 -2
BITMAP
F8
F8
00
F8
ENDCHAR
STARTCHAR uni208D
ENCODING 8333
SWIDTH 241 0
DWIDTH 5 0
BBX 3 11 1 -5
BITMAP
20
60
C0
C0
C0
C0
C0
C0
C0
60
20
ENDCHAR
STARTCHAR uni208E
ENCODING 8334
SWIDTH 241 0
DWIDTH 5 0
BBX 3 11 1 -5
BITMAP
80
C0
40
60
60
60
60
60
40
C0
80
ENDCHAR
STARTCHAR franc
ENCODING 8355
SWIDTH 514 0
DWIDTH 10 0
BBX 10 14 0 0
BITMAP
7FC0
7FC0
7000
7000
7000
7000
7F80
7F80
7000
FC00
FC00
7000
7000
7000
ENDCHAR
STARTCHAR lira
ENCODING 8356
SWIDTH 553 0
DWIDTH 11 0
BBX 9 14 1 0
BITMAP
1E00
3F80
3180
7180
7000
7000
FE00
7000
FE00
7000
7000
7000
FF80
FF80
ENDCHAR
STARTCHAR uni20A6
ENCODING 8358
SWIDTH 753 0
DWIDTH 15 0
BBX 15 14 0 0
BITMAP
3838
3C38
3C38
3E38
FFFE
FFFE
3B38
39B8
FFFE
FFFE
38F8
3878
3878
3838
ENDCHAR
STARTCHAR peseta
ENCODING 8359
SWIDTH 787 0
DWIDTH 16 0
BBX 14 14 1 0
BITMAP
FC70
FF70
E370
E3FC
E3FC
E370
E370
FF70
FC70
E070
E070
E030
E03C
E03C
ENDCHAR
STARTCHAR uni20A8
ENCODING 8360
SWIDTH 999 0
DWIDTH 20 0
BBX 18 14 1 0
BITMAP
FF0000
FF8000
E18000
E1CF00
E1DFC0
E1F8C0
E1B800
FF9C00
FE0F80
E703C0
E380C0
E3B8C0
E1DFC0
E0CF00
ENDCHAR
STARTCHAR uni20A9
ENCODING 8361
SWIDTH 725 0
DWIDTH 15 0
BBX 14 14 0 0
BITMAP
6318
7398
7398
FFFC
FFFC
37B8
37B0
FFFC
FFFC
1EF0
1CF0
1CE0
1CE0
1CE0
ENDCHAR
STARTCHAR uni20AA
ENCODING 8362
SWIDTH 774 0
DWIDTH 15 0
BBX 13 11 1 0
BITMAP
FF18
FF98
E198
E1D8
EDD8
EDD8
EDD8
EC18
EC18
EFF8
EFE0
ENDCHAR
STARTCHAR dong
ENCODING 8363
SWIDTH 543 0
DWIDTH 11 0
BBX 10 18 1 -3
BITMAP
0300
0FC0
0FC0
0300
3B00
7F00
E300
C300
C300
C300
C300
C300
E300
7F00
3B00
0000
FF80
FF80
ENDCHAR
STARTCHAR Euro
ENCODING 8364
SWIDTH 534 0
DWIDTH 11 0
BBX 9 14 1 0
BITMAP
0F80
1F80
3800
3000
3000
FE00
7000
FE00
7000
3000
3000
3800
1F80
0F80
ENDCHAR
STARTCHAR uni20B1
ENCODING 8369
SWIDTH 698 0
DWIDTH 14 0
BBX 14 14 0 0
BITMAP
3FC0
3FE0
FFFC
FFFC
3070
FFFC
FFFC
3FE0
3FC0
3000
3000
3000
3000
3000
ENDCHAR
STARTCHAR uni20B9
ENCODING 8377
SWIDTH 495 0
DWIDTH 10 0
BBX 8 14 1 0
BITMAP
FF
FF
0C
0E
FF
FF
0C
FC
F8
E0
70
38
1C
0E
ENDCHAR
STARTCHAR uni20BA
ENCODING 8378
SWIDTH 548 0
DWIDTH 11 0
BBX 10 14 0 0
BITMAP
3800
3A00
3E00
7800
FA00
BE00
7C00
F8C0
B8C0
38C0
39C0
3B80
3F00
3E00
ENDCHAR
STARTCHAR uni20BC
ENCODING 8380
SWIDTH 629 0
DWIDTH 13 0
BBX 11 11 1 0
BITMAP
0C00
0C00
1F00
3F80
7DC0
ECC0
CCC0
CCE0
CCE0
CC60
CC60
ENDCHAR
STARTCHAR uni20BD
ENCODING 8381
SWIDTH 646 0
DWIDTH 13 0
BBX 12 14 0 0
BITMAP
3FC0
3FE0
3870
3830
3830
3830
3870
FFE0
FFC0
3800
FF00
FF00
3800
3800
ENDCHAR
STARTCHAR uni2105
ENCODING 8453
SWIDTH 687 0
DWIDTH 14 0
BBX 12 14 1 0
BITMAP
7000
D800
C880
C180
C900
DB00
7200
07E0
0DB0
0B30
1B30
1330
21B0
01E0
ENDCHAR
STARTCHAR uni2113
ENCODING 8467
SWIDTH 458 0
DWIDTH 9 0
BBX 7 15 1 0
BITMAP
1C
3E
36
76
76
76
7E
7C
78
F0
F0
70
38
3C
1C
ENDCHAR
STARTCHAR uni2116
ENCODING 8470
SWIDTH 949 0
DWIDTH 19 0
BBX 17 14 1 0
BITMAP
E1CF00
F1DB00
F1D180
F1D180
F9D180
F9D180
EDDB00
EDCF00
E7C000
E7DF80
E7C000
E3C000
E3C000
E1C000
ENDCHAR
STARTCHAR trademark
ENCODING 8482
SWIDTH 589 0
DWIDTH 12 0
BBX 9 5 1 9
BITMAP
FC80
4D80
4B80
4B80
4A80
ENDCHAR
STARTCHAR uni03A9.dup1
ENCODING 8486
SWIDTH 626 0
DWIDTH 13 0
BBX 10 14 1 0
BITMAP
1E00
3F80
7180
E1C0
E0C0
E0C0
E0C0
E0C0
E0C0
61C0
6180
3380
FBC0
FBC0
ENDCHAR
STARTCHAR estimated
ENCODING 8494
SWIDTH 634 0
DWIDTH 13 0
BBX 10 11 1 0
BITMAP
0F00
3180
60C0
60C0
60C0
FFC0
6000
6000
6000
3080
1F00
ENDCHAR
STARTCHAR oneeighth
ENCODING 8539
SWIDTH 725 0
DWIDTH 15 0
BBX 12 14 1 0
BITMAP
2000
E080
2180
2100
2300
2600
24E0
2DB0
0990
19B0
30F0
2190
01B0
00F0
ENDCHAR
STARTCHAR threeeighths
ENCODING 8540
SWIDTH 799 0
DWIDTH 16 0
BBX 14 14 1 0
BITMAP
7000
D860
0840
18C0
3880
0900
DB78
7A6C
064C
0C78
0878
08CC
00EC
0078
ENDCHAR
STARTCHAR fiveeighths
ENCODING 8541
SWIDTH 793 0
DWIDTH 16 0
BBX 14 14 1 0
BITMAP
F800
C040
C040
F880
5980
0900
DB78
7678
04CC
0C78
0878
18CC
00FC
0078
ENDCHAR
STARTCHAR seveneighths
ENCODING 8542
SWIDTH 779 0
DWIDTH 16 0
BBX 13 14 1 0
BITMAP
FC00
08C0
1880
1980
3300
3200
6670
64D8
0CD8
18D8
10F0
10D8
00D8
0070
ENDCHAR
STARTCHAR partialdiff
ENCODING 8706
SWIDTH 535 0
DWIDTH 11 0
BBX 9 15 1 0
BITMAP
7C00
7E00
0700
0300
0380
3D80
7F80
E380
C180
C180
C180
C380
E300
7F00
3C00
ENDCHAR
STARTCHAR uni0394.dup2
ENCODING 8710
SWIDTH 674 0
DWIDTH 13 0
BBX 13 14 0 0
BITMAP
0700
0780
0780
0F80
0DC0
0CC0
1CC0
18E0
3860
3070
3070
7030
7FF8
FFF8
ENDCHAR
STARTCHAR product
ENCODING 8719
SWIDTH 653 0
DWIDTH 13 0
BBX 10 16 2 -2
BITMAP
FFC0
FFC0
C1C0
C1C0
C1C0
C1C0
C1C0
C1C0
C1C0
C1C0
C1C0
C1C0
C1C0
C1C0
C1C0
C1C0
ENDCHAR
STARTCHAR summation
ENCODING 8721
SWIDTH 572 0
DWIDTH 11 0
BBX 10 17 1 -3
BITMAP
FFC0
FFC0
E000
7000
3800
1800
1C00
0E00
0600
0E00
1C00
1800
3800
7000
E000
FFC0
FFC0
ENDCHAR
STARTCHAR minus
ENCODING 8722
SWIDTH 526 0
DWIDTH 11 0
BBX 8 2 1 6
BITMAP
FF
FF
ENDCHAR
STARTCHAR radical
ENCODING 8730
SWIDTH 547 0
DWIDTH 11 0
BBX 9 14 1 0
BITMAP
0180
0180
0180
0180
0300
0300
E300
E600
3600
3600
3C00
1C00
1C00
1800
ENDCHAR
STARTCHAR infinity
ENCODING 8734
SWIDTH 961 0
DWIDTH 19 0
BBX 17 11 1 0
BITMAP
3C1E00
7F3F00
636380
E1C180
C1C180
C1C180
C1C180
E1C180
636380
7F3F00
3C1E00
ENDCHAR
STARTCHAR integral
ENCODING 8747
SWIDTH 264 0
DWIDTH 5 0
BBX 7 19 -1 -4
BITMAP
0E
1E
18
38
38
38
38
38
38
38
38
38
38
38
38
38
38
F0
F0
ENDCHAR
STARTCHAR approxequal
ENCODING 8776
SWIDTH 535 0
DWIDTH 11 0
BBX 9 7 1 3
BITMAP
7080
FF80
8700
0000
7080
FF80
8700
ENDCHAR
STARTCHAR notequal
ENCODING 8800
SWIDTH 527 0
DWIDTH 11 0
BBX 8 10 1 1
BITMAP
02
06
FF
FF
08
18
FF
FF
20
60
ENDCHAR
STARTCHAR lessequal
ENCODING 8804
SWIDTH 477 0
DWIDTH 10 0
BBX 7 11 1 0
BITMAP
02
0E
7C
E0
E0
7C
0E
02
00
FE
FE
ENDCHAR
STARTCHAR greaterequal
ENCODING 8805
SWIDTH 488 0
DWIDTH 10 0
BBX 8 12 1 0
BITMAP
80
F0
3C
0F
0F
3C
F0
80
00
00
FF
FF
ENDCHAR
STARTCHAR lozenge
ENCODING 9674
SWIDTH 476 0
DWIDTH 10 0
BBX 8 14 1 0
BITMAP
18
38
3C
6C
66
C6
C3
C3
C6
66
6C
3C
38
18
ENDCHAR
STARTCHAR uniEE01
ENCODING 60929
SWIDTH 282 0
DWIDTH 6 0
BBX 2 11 2 2
BITMAP
C0
C0
C0
00
00
00
00
00
C0
C0
C0
ENDCHAR
STARTCHAR uniEE02
ENCODING 60930
SWIDTH 309 0
DWIDTH 6 0
BBX 4 4 1 7
BITMAP
90
90
90
90
ENDCHAR
STARTCHAR uniF6C3
ENCODING 63171
SWIDTH 230 0
DWIDTH 5 0
BBX 2 4 1 -1
BITMAP
C0
C0
C0
80
ENDCHAR
STARTCHAR uniFB01
ENCODING 64257
SWIDTH 552 0
DWIDTH 11 0
BBX 10 15 0 0
BITMAP
0F00
3F00
3800
3000
FDC0
FDC0
31C0
31C0
31C0
31C0
31C0
31C0
31C0
31C0
31C0
ENDCHAR
STARTCHAR uniFB02
ENCODING 64258
SWIDTH 560 0
DWIDTH 11 0
BBX 10 15 0 0
BITMAP
0FC0
3FC0
38C0
30C0
FCC0
FCC0
30C0
30C0
30C0
30C0
30C0
30C0
30C0
30C0
30C0
ENDCHAR
STARTCHAR uniFB03
ENCODING 64259
SWIDTH 839 0
DWIDTH 17 0
BBX 15 15 0 0
BITMAP
1E7C
3EFC
38C0
30C0
FFF6
FFF6
30C6
30C6
30C6
30C6
30C6
30C6
30C6
30C6
30C6
ENDCHAR
STARTCHAR uniFB04
ENCODING 64260
SWIDTH 839 0
DWIDTH 17 0
BBX 15 15 0 0
BITMAP
1E7E
3EFE
38C6
30C6
FFF6
FFF6
30C6
30C6
30C6
30C6
30C6
30C6
30C6
30C6
30C6
ENDCHAR
STARTCHAR uniFEFF
ENCODING 65279
SWIDTH 0 0
DWIDTH 0 0
BBX 1 1 0 0
BITMAP
00
ENDCHAR
STARTCHAR uniFFFC
ENCODING 65532
SWIDTH 1023 0
DWIDTH 20 0
BBX 19 18 1 -4
BITMAP
EEEEE0
800020
800020
000000
800020
800020
0CE100
929120
A2E120
A29120
129500
8CE220
800020
800020
000000
800020
800020
EEEEE0
ENDCHAR
STARTCHAR uniFFFD
ENCODING 65533
SWIDTH 1025 0
DWIDTH 21 0
BBX 18 19 1 -3
BITMAP
004000
00E000
01E000
03F000
07F800
0FFC00
1E0E00
3CCF00
7FCF80
FFCFC0
7F9FC0
3F3F80
1FFF00
0F3E00
073C00
03F800
01F000
00E000
004000
ENDCHAR
STARTCHAR .notdef
ENCODING -1
SWIDTH 417 0
DWIDTH 8 0
BBX 6 14 1 0
BITMAP
FC
84
CC
CC
AC
B4
94
94
B4
AC
CC
CC
84
FC
ENDCHAR
STARTCHAR glyph369
ENCODING -1
SWIDTH 375 0
DWIDTH 8 0
BBX 6 4 1 11
BITMAP
CC
D8
D0
50
ENDCHAR
STARTCHAR uni2009.locl
ENCODING -1
SWIDTH 125 0
DWIDTH 3 0
BBX 1 1 0 0
BITMAP
00
ENDCHAR
STARTCHAR f_f.dlig
ENCODING -1
SWIDTH 601 0
DWIDTH 12 0
BBX 12 15 0 0
BITMAP
1E70
3EF0
39C0
31C0
FFF0
FFF0
31C0
31C0
31C0
31C0
31C0
31C0
31C0
31C0
31C0
ENDCHAR
STARTCHAR longs_t.dlig
ENCODING -1
SWIDTH 597 0
DWIDTH 12 0
BBX 11 15 0 0
BITMAP
1F00
3FC0
39C0
31C0
F3E0
F3E0
31C0
31C0
31C0
31C0
31C0
31C0
31C0
31E0
30E0
ENDCHAR
STARTCHAR s_t.dlig
ENCODING -1
SWIDTH 783 0
DWIDTH 16 0
BBX 14 15 1 0
BITMAP
03E0
07F0
0630
0630
3E7C
7F7C
C730
C030
F030
7E30
0F30
0730
C730
FE3C
7C1C
ENDCHAR
STARTCHAR two.dnom
ENCODING -1
SWIDTH 351 0
DWIDTH 7 0
BBX 5 8 1 0
BITMAP
70
D8
98
18
30
60
C0
F8
ENDCHAR
STARTCHAR one.dnom
ENCODING -1
SWIDTH 351 0
DWIDTH 7 0
BBX 4 8 1 0
BITMAP
30
F0
B0
30
30
30
30
30
ENDCHAR
STARTCHAR zero.dnom
ENCODING -1
SWIDTH 351 0
DWIDTH 7 0
BBX 5 8 1 0
BITMAP
70
D8
D8
C8
C8
D8
D8
70
ENDCHAR
STARTCHAR nine.c2sc
ENCODING -1
SWIDTH 484 0
DWIDTH 10 0
BBX 8 11 1 0
BITMAP
3C
FE
C6
C7
C7
FF
7F
06
0E
3C
38
ENDCHAR
STARTCHAR eight.c2sc
ENCODING -1
SWIDTH 484 0
DWIDTH 10 0
BBX 8 11 1 0
BITMAP
3C
7E
E7
C7
7E
7C
EE
C7
C7
FE
7C
ENDCHAR
STARTCHAR seven.c2sc
ENCODING -1
SWIDTH 484 0
DWIDTH 10 0
BBX 8 11 1 0
BITMAP
FF
FF
06
06
0C
0C
18
18
38
30
70
ENDCHAR
STARTCHAR six.c2sc
ENCODING -1
SWIDTH 484 0
DWIDTH 10 0
BBX 8 11 1 0
BITMAP
1C
3C
70
E0
DE
FF
E7
C3
E7
7E
3C
ENDCHAR
STARTCHAR five.c2sc
ENCODING -1
SWIDTH 484 0
DWIDTH 10 0
BBX 8 11 1 0
BITMAP
7E
7E
60
60
FC
FE
07
03
E7
7E
3C
ENDCHAR
STARTCHAR four.c2sc
ENCODING -1
SWIDTH 484 0
DWIDTH 10 0
BBX 8 11 1 0
BITMAP
0E
1E
1E
3E
7E
6E
CE
FF
FF
0E
0E
ENDCHAR
STARTCHAR three.c2sc
ENCODING -1
SWIDTH 484 0
DWIDTH 10 0
BBX 8 11 1 0
BITMAP
7C
FE
C7
07
3E
3E
07
07
C7
FE
7C
ENDCHAR
STARTCHAR two.c2sc
ENCODING -1
SWIDTH 484 0
DWIDTH 10 0
BBX 8 11 1 0
BITMAP
3C
FE
C7
C7
06
0E
1C
38
70
FF
FF
ENDCHAR
STARTCHAR one.c2sc
ENCODING -1
SWIDTH 484 0
DWIDTH 10 0
BBX 6 11 1 0
BITMAP
0C
7C
FC
1C
1C
1C
1C
1C
1C
1C
1C
ENDCHAR
STARTCHAR zero.c2sc
ENCODING -1
SWIDTH 484 0
DWIDTH 10 0
BBX 8 11 1 0
BITMAP
3C
7E
E7
C7
C7
C7
C7
C7
E7
7E
3C
ENDCHAR
STARTCHAR Z.c2sc
ENCODING -1
SWIDTH 489 0
DWIDTH 10 0
BBX 8 11 1 0
BITMAP
FF
FF
06
0E
1C
18
30
70
E0
FF
FF
ENDCHAR
STARTCHAR Y.c2sc
ENCODING -1
SWIDTH 499 0
DWIDTH 10 0
BBX 10 11 0 0
BITMAP
E1C0
6180
7380
3300
3E00
1E00
0C00
0C00
0C00
0C00
0C00
ENDCHAR
STARTCHAR X.c2sc
ENCODING -1
SWIDTH 513 0
DWIDTH 10 0
BBX 9 11 1 0
BITMAP
C380
E700
6600
7E00
3C00
1C00
3C00
7E00
6600
E700
C380
ENDCHAR
STARTCHAR W.c2sc
ENCODING -1
SWIDTH 701 0
DWIDTH 14 0
BBX 13 11 1 0
BITMAP
C638
C630
CF30
CF30
EF30
6D60
69E0
79E0
79E0
38C0
30C0
ENDCHAR
STARTCHAR V.c2sc
ENCODING -1
SWIDTH 527 0
DWIDTH 11 0
BBX 10 11 0 0
BITMAP
E0C0
61C0
61C0
7180
3180
3300
3B00
1B00
1E00
0E00
0E00
ENDCHAR
STARTCHAR U.c2sc
ENCODING -1
SWIDTH 529 0
DWIDTH 11 0
BBX 9 11 1 0
BITMAP
C380
C380
C380
C380
C380
C380
C380
C380
E300
7F00
3E00
ENDCHAR
STARTCHAR T.c2sc
ENCODING -1
SWIDTH 499 0
DWIDTH 10 0
BBX 10 11 0 0
BITMAP
FFC0
FFC0
0C00
0C00
0C00
0C00
0C00
0C00
0C00
0C00
0C00
ENDCHAR
STARTCHAR S.c2sc
ENCODING -1
SWIDTH 496 0
DWIDTH 10 0
BBX 8 11 1 0
BITMAP
3C
FE
C7
C3
F0
3E
0F
C3
C3
FF
3E
ENDCHAR
STARTCHAR R.c2sc
ENCODING -1
SWIDTH 513 0
DWIDTH 10 0
BBX 9 11 1 0
BITMAP
FE00
FF00
C300
C300
C300
FF00
FC00
C600
C700
C300
C380
ENDCHAR
STARTCHAR Q.c2sc
ENCODING -1
SWIDTH 556 0
DWIDTH 11 0
BBX 9 13 1 -2
BITMAP
3E00
7F00
E380
C180
C180
C180
C180
C180
E380
7F00
3F00
0380
0100
ENDCHAR
STARTCHAR P.c2sc
ENCODING -1
SWIDTH 520 0
DWIDTH 10 0
BBX 9 11 1 0
BITMAP
FE00
FF00
C380
C380
C380
FF00
FE00
C000
C000
C000
C000
ENDCHAR
STARTCHAR O.c2sc
ENCODING -1
SWIDTH 556 0
DWIDTH 11 0
BBX 9 11 1 0
BITMAP
3E00
7F00
E380
C180
C180
C180
C180
C180
E380
7F00
3E00
ENDCHAR
STARTCHAR N.c2sc
ENCODING -1
SWIDTH 568 0
DWIDTH 11 0
BBX 9 11 1 0
BITMAP
E180
E180
F180
F980
D980
CD80
CD80
C780
C780
C380
C180
ENDCHAR
STARTCHAR M.c2sc
ENCODING -1
SWIDTH 703 0
DWIDTH 14 0
BBX 12 11 1 0
BITMAP
E070
F0F0
F0F0
F0F0
D9B0
D9B0
CDB0
CF30
CF30
C630
C630
ENDCHAR
STARTCHAR L.c2sc
ENCODING -1
SWIDTH 438 0
DWIDTH 9 0
BBX 7 11 1 0
BITMAP
C0
C0
C0
C0
C0
C0
C0
C0
C0
FE
FE
ENDCHAR
STARTCHAR K.c2sc
ENCODING -1
SWIDTH 511 0
DWIDTH 10 0
BBX 9 11 1 0
BITMAP
C380
C700
CE00
DC00
D800
FC00
FC00
EE00
C700
C300
C380
ENDCHAR
STARTCHAR J.c2sc
ENCODING -1
SWIDTH 451 0
DWIDTH 9 0
BBX 8 11 0 0
BITMAP
03
03
03
03
03
03
03
E3
67
7E
3C
ENDCHAR
STARTCHAR I.c2sc
ENCODING -1
SWIDTH 240 0
DWIDTH 5 0
BBX 3 11 1 0
BITMAP
E0
E0
E0
E0
E0
E0
E0
E0
E0
E0
E0
ENDCHAR
STARTCHAR H.c2sc
ENCODING -1
SWIDTH 569 0
DWIDTH 11 0
BBX 9 11 1 0
BITMAP
C180
C180
C180
C180
C180
FF80
FF80
C180
C180
C180
C180
ENDCHAR
STARTCHAR G.c2sc
ENCODING -1
SWIDTH 543 0
DWIDTH 11 0
BBX 9 11 1 0
BITMAP
3E00
7F00
E380
C180
C000
C780
C780
C180
E180
7F80
3F00
ENDCHAR
STARTCHAR F.c2sc
ENCODING -1
SWIDTH 442 0
DWIDTH 9 0
BBX 7 11 1 0
BITMAP
FE
FE
C0
C0
FE
FE
C0
C0
C0
C0
C0
ENDCHAR
STARTCHAR dollar.c2sc
ENCODING -1
SWIDTH 496 0
DWIDTH 10 0
BBX 8 15 1 -2
BITMAP
18
18
3C
FF
C3
C3
F0
7E
0F
C3
C3
FF
3E
18
18
ENDCHAR
STARTCHAR sterling.c2sc
ENCODING -1
SWIDTH 521 0
DWIDTH 10 0
BBX 9 11 1 0
BITMAP
1E00
3F00
7300
6300
6000
FE00
6000
6000
6000
FF80
FF80
ENDCHAR
STARTCHAR yen.c2sc
ENCODING -1
SWIDTH 428 0
DWIDTH 9 0
BBX 8 11 0 0
BITMAP
E3
67
66
36
3E
7F
1C
7F
18
18
18
ENDCHAR
STARTCHAR Gamma.c2sc
ENCODING -1
SWIDTH 439 0
DWIDTH 9 0
BBX 7 11 1 0
BITMAP
FE
FE
C0
C0
C0
C0
C0
C0
C0
C0
C0
ENDCHAR
STARTCHAR uni0394.c2sc
ENCODING -1
SWIDTH 527 0
DWIDTH 11 0
BBX 10 11 0 0
BITMAP
0E00
0E00
1E00
1B00
3B00
3300
3180
7180
61C0
7FC0
FFC0
ENDCHAR
STARTCHAR Theta.c2sc
ENCODING -1
SWIDTH 556 0
DWIDTH 11 0
BBX 9 11 1 0
BITMAP
3E00
7F00
E380
C180
DD80
DD80
C180
C180
E380
7F00
3E00
ENDCHAR
STARTCHAR Lambda.c2sc
ENCODING -1
SWIDTH 527 0
DWIDTH 11 0
BBX 10 11 0 0
BITMAP
0E00
0E00
1E00
1B00
3B00
3300
3180
7180
61C0
61C0
E0C0
ENDCHAR
STARTCHAR Xi.c2sc
ENCODING -1
SWIDTH 424 0
DWIDTH 9 0
BBX 7 11 1 0
BITMAP
FE
FE
00
00
FC
FC
00
00
00
FE
FE
ENDCHAR
STARTCHAR Pi.c2sc
ENCODING -1
SWIDTH 568 0
DWIDTH 11 0
BBX 9 11 1 0
BITMAP
FF80
FF80
C180
C180
C180
C180
C180
C180
C180
C180
C180
ENDCHAR
STARTCHAR Sigma.c2sc
ENCODING -1
SWIDTH 485 0
DWIDTH 10 0
BBX 8 11 1 0
BITMAP
FF
FF
E0
70
38
38
30
70
E0
FF
FF
ENDCHAR
STARTCHAR Phi.c2sc
ENCODING -1
SWIDTH 662 0
DWIDTH 13 0
BBX 11 11 1 0
BITMAP
0E00
3F80
7FC0
EEE0
CE60
CE60
CE60
EEE0
7FC0
3F80
0E00
ENDCHAR
STARTCHAR Psi.c2sc
ENCODING -1
SWIDTH 629 0
DWIDTH 13 0
BBX 11 11 1 0
BITMAP
CCE0
CCE0
CCE0
CCE0
CCE0
ECC0
7FC0
3F80
0C00
0C00
0C00
ENDCHAR
STARTCHAR uni03A9.c2sc
ENCODING -1
SWIDTH 570 0
DWIDTH 11 0
BBX 10 11 1 0
BITMAP
3E00
7F00
E380
C180
C1C0
C1C0
C180
E180
6300
F780
F780
ENDCHAR
STARTCHAR uni0402.c2sc
ENCODING -1
SWIDTH 653 0
DWIDTH 13 0
BBX 12 11 0 0
BITMAP
FF80
FF80
1C00
1C00
1FE0
1FF0
1C30
1C30
1C30
1CF0
1CE0
ENDCHAR
STARTCHAR uni0404.c2sc
ENCODING -1
SWIDTH 527 0
DWIDTH 11 0
BBX 9 11 1 0
BITMAP
3E00
7F00
E380
C180
F800
F800
C000
C180
E380
7F00
3E00
ENDCHAR
STARTCHAR uni0409.c2sc
ENCODING -1
SWIDTH 854 0
DWIDTH 17 0
BBX 16 11 0 0
BITMAP
1FC0
1FC0
18C0
38C0
38FE
38FF
38C3
38C3
30C3
F0FF
E0FE
ENDCHAR
STARTCHAR uni040A.c2sc
ENCODING -1
SWIDTH 854 0
DWIDTH 17 0
BBX 15 11 1 0
BITMAP
C180
C180
C180
C1F8
FFFE
FF86
C186
C186
C186
C1FE
C1F8
ENDCHAR
STARTCHAR uni040B.c2sc
ENCODING -1
SWIDTH 657 0
DWIDTH 13 0
BBX 12 11 0 0
BITMAP
FF80
FF80
1C00
1C00
1FE0
1FF0
1C30
1C30
1C30
1C30
1C30
ENDCHAR
STARTCHAR uni040F.c2sc
ENCODING -1
SWIDTH 567 0
DWIDTH 11 0
BBX 9 14 1 -3
BITMAP
C180
C180
C180
C180
C180
C180
C180
C180
C180
FF80
FF80
0C00
0C00
0C00
ENDCHAR
STARTCHAR uni0411.c2sc
ENCODING -1
SWIDTH 523 0
DWIDTH 10 0
BBX 9 11 1 0
BITMAP
FF00
FF00
C000
C000
FE00
FF00
C380
C380
C380
FF00
FE00
ENDCHAR
STARTCHAR uni0414.c2sc
ENCODING -1
SWIDTH 630 0
DWIDTH 13 0
BBX 12 14 0 -3
BITMAP
1FE0
1FE0
18E0
18E0
18E0
18E0
18E0
38E0
30E0
FFF0
FFF0
E030
E030
E030
ENDCHAR
STARTCHAR uni0416.c2sc
ENCODING -1
SWIDTH 730 0
DWIDTH 15 0
BBX 13 11 1 0
BITMAP
E638
E630
6670
7660
36E0
3FC0
3FE0
7660
7670
E630
C638
ENDCHAR
STARTCHAR uni0417.c2sc
ENCODING -1
SWIDTH 501 0
DWIDTH 10 0
BBX 8 11 1 0
BITMAP
3C
FF
C7
03
1E
1E
07
03
C3
FF
7C
ENDCHAR
STARTCHAR uni0418.c2sc
ENCODING -1
SWIDTH 571 0
DWIDTH 11 0
BBX 9 11 1 0
BITMAP
C180
C380
C780
C780
CD80
CD80
D980
F980
F180
E180
E180
ENDCHAR
STARTCHAR uni041A.c2sc
ENCODING -1
SWIDTH 513 0
DWIDTH 10 0
BBX 9 11 1 0
BITMAP
C300
C700
C600
CE00
CC00
F800
FC00
CC00
CE00
C700
C380
ENDCHAR
STARTCHAR uni041B.c2sc
ENCODING -1
SWIDTH 562 0
DWIDTH 11 0
BBX 10 11 0 0
BITMAP
1FC0
1FC0
18C0
38C0
38C0
38C0
38C0
30C0
30C0
F0C0
E0C0
ENDCHAR
STARTCHAR uni0423.c2sc
ENCODING -1
SWIDTH 506 0
DWIDTH 10 0
BBX 9 11 1 0
BITMAP
C380
E300
6700
6600
7600
3E00
3C00
1C00
1800
7800
7000
ENDCHAR
STARTCHAR uni0426.c2sc
ENCODING -1
SWIDTH 632 0
DWIDTH 13 0
BBX 11 14 1 -3
BITMAP
C180
C180
C180
C180
C180
C180
C180
C180
C180
FFE0
FFE0
0060
0060
0060
ENDCHAR
STARTCHAR uni0427.c2sc
ENCODING -1
SWIDTH 536 0
DWIDTH 11 0
BBX 9 11 1 0
BITMAP
C380
C380
C380
C380
C380
FF80
7F80
0380
0380
0380
0380
ENDCHAR
STARTCHAR uni0428.c2sc
ENCODING -1
SWIDTH 765 0
DWIDTH 15 0
BBX 13 11 1 0
BITMAP
C718
C718
C718
C718
C718
C718
C718
C718
C718
FFF8
FFF8
ENDCHAR
STARTCHAR uni0429.c2sc
ENCODING -1
SWIDTH 830 0
DWIDTH 17 0
BBX 15 14 1 -3
BITMAP
C718
C718
C718
C718
C718
C718
C718
C718
C718
FFFE
FFFE
0006
0006
0006
ENDCHAR
STARTCHAR uni042A.c2sc
ENCODING -1
SWIDTH 632 0
DWIDTH 13 0
BBX 12 11 0 0
BITMAP
FC00
FC00
1C00
1C00
1FC0
1FE0
1C70
1C30
1C70
1FE0
1FC0
ENDCHAR
STARTCHAR uni042B.c2sc
ENCODING -1
SWIDTH 719 0
DWIDTH 14 0
BBX 12 11 1 0
BITMAP
C030
C030
C030
C030
FE30
FF30
C3B0
C3B0
C3B0
FF30
FE30
ENDCHAR
STARTCHAR uni042C.c2sc
ENCODING -1
SWIDTH 519 0
DWIDTH 10 0
BBX 9 11 1 0
BITMAP
C000
C000
C000
C000
FE00
FF00
C380
C380
C380
FF00
FE00
ENDCHAR
STARTCHAR uni042D.c2sc
ENCODING -1
SWIDTH 527 0
DWIDTH 11 0
BBX 9 11 1 0
BITMAP
3C00
7F00
C300
C380
1F80
1F80
0380
C380
C300
7F00
3C00
ENDCHAR
STARTCHAR uni042E.c2sc
ENCODING -1
SWIDTH 768 0
DWIDTH 15 0
BBX 14 11 1 0
BITMAP
C1E0
C7F0
C638
CE18
FC1C
FC1C
CC1C
CE18
C638
C7F0
C1E0
ENDCHAR
STARTCHAR uni042F.c2sc
ENCODING -1
SWIDTH 531 0
DWIDTH 11 0
BBX 9 11 1 0
BITMAP
3F80
7F80
E380
E380
E380
7F80
3F80
7380
6380
E380
C380
ENDCHAR
STARTCHAR uni0492.c2sc
ENCODING -1
SWIDTH 487 0
DWIDTH 10 0
BBX 9 11 0 0
BITMAP
3F80
3F80
3000
3000
FC00
FC00
3000
3000
3000
3000
3000
ENDCHAR
STARTCHAR uni0496.c2sc
ENCODING -1
SWIDTH 773 0
DWIDTH 15 0
BBX 14 14 1 -3
BITMAP
E638
E630
6670
7660
36E0
3FC0
3FE0
7660
7670
E63C
C63C
000C
000C
000C
ENDCHAR
STARTCHAR uni049A.c2sc
ENCODING -1
SWIDTH 544 0
DWIDTH 11 0
BBX 10 14 1 -3
BITMAP
C300
C700
C600
CE00
CC00
F800
FC00
CC00
CE00
C7C0
C3C0
00C0
00C0
00C0
ENDCHAR
STARTCHAR uni049C.c2sc
ENCODING -1
SWIDTH 599 0
DWIDTH 12 0
BBX 10 11 1 0
BITMAP
C1C0
C180
C380
DB00
DF00
FE00
FE00
DF00
DB80
C1C0
C1C0
ENDCHAR
STARTCHAR uni04A0.c2sc
ENCODING -1
SWIDTH 640 0
DWIDTH 13 0
BBX 12 11 0 0
BITMAP
FC70
FC60
0CE0
0CC0
0D80
0F80
0F80
0DC0
0CE0
0C60
0C70
ENDCHAR
STARTCHAR uni04A8.c2sc
ENCODING -1
SWIDTH 698 0
DWIDTH 14 0
BBX 12 11 1 0
BITMAP
33C0
77E0
E670
CE30
CE30
CE30
CE70
E660
67E0
7FF0
1F70
ENDCHAR
STARTCHAR uni04B0.c2sc
ENCODING -1
SWIDTH 509 0
DWIDTH 10 0
BBX 10 11 0 0
BITMAP
E1C0
6180
7380
3300
3E00
1E00
3F00
3F00
0C00
0C00
0C00
ENDCHAR
STARTCHAR uni04B2.c2sc
ENCODING -1
SWIDTH 561 0
DWIDTH 11 0
BBX 10 14 1 -3
BITMAP
C380
E700
6600
7E00
3C00
1C00
3C00
7E00
6600
E7C0
C3C0
00C0
00C0
00C0
ENDCHAR
STARTCHAR uni04B4.c2sc
ENCODING -1
SWIDTH 772 0
DWIDTH 15 0
BBX 14 14 0 -3
BITMAP
FFB8
FFB8
0C38
0C38
0C38
0C38
0C38
0C38
0C38
0FFC
0FFC
000C
000C
000C
ENDCHAR
STARTCHAR uni04B8.c2sc
ENCODING -1
SWIDTH 536 0
DWIDTH 11 0
BBX 9 11 1 0
BITMAP
C380
C380
C380
DB80
DB80
FF80
7F80
1B80
1B80
0380
0380
ENDCHAR
STARTCHAR uni04BA.c2sc
ENCODING -1
SWIDTH 536 0
DWIDTH 11 0
BBX 9 11 1 0
BITMAP
C000
C000
C000
C000
FE00
FF00
C380
C180
C180
C180
C180
ENDCHAR
STARTCHAR uni04BC.c2sc
ENCODING -1
SWIDTH 706 0
DWIDTH 14 0
BBX 13 11 0 0
BITMAP
03E0
07F0
CE38
CC18
7FF8
3FF8
0C00
0C00
0E10
07F0
03F0
ENDCHAR
STARTCHAR uni04D8.c2sc
ENCODING -1
SWIDTH 564 0
DWIDTH 11 0
BBX 10 11 1 0
BITMAP
7E00
7F00
4380
0180
FF80
FFC0
C180
C180
E380
7F00
3E00
ENDCHAR
STARTCHAR uni04E0.c2sc
ENCODING -1
SWIDTH 502 0
DWIDTH 10 0
BBX 8 11 1 0
BITMAP
FF
FF
0E
1C
1C
1E
07
03
C3
FF
7C
ENDCHAR
STARTCHAR uni04E8.c2sc
ENCODING -1
SWIDTH 556 0
DWIDTH 11 0
BBX 9 12 1 0
BITMAP
3E00
7F00
E380
C180
C180
FF80
FF80
C180
C180
E380
7F00
3E00
ENDCHAR
STARTCHAR lira.c2sc
ENCODING -1
SWIDTH 521 0
DWIDTH 10 0
BBX 9 11 1 0
BITMAP
1E00
3F00
7300
6300
6000
FE00
6000
FE00
6000
FF80
FF80
ENDCHAR
STARTCHAR Euro.c2sc
ENCODING -1
SWIDTH 467 0
DWIDTH 9 0
BBX 8 11 1 0
BITMAP
1F
3F
70
60
FE
60
FE
60
70
3E
1F
ENDCHAR
STARTCHAR uni2116.c2sc
ENCODING -1
SWIDTH 956 0
DWIDTH 19 0
BBX 17 11 1 0
BITMAP
E18F00
E19980
F19180
F99180
D99180
CD9980
CD8F00
C78000
C79F00
C38000
C18000
ENDCHAR
STARTCHAR uni20BD.c2sc
ENCODING -1
SWIDTH 583 0
DWIDTH 12 0
BBX 11 11 0 0
BITMAP
3F80
3FC0
38E0
3860
38E0
FFC0
FF80
3800
FE00
FE00
3800
ENDCHAR
STARTCHAR three.dnom
ENCODING -1
SWIDTH 351 0
DWIDTH 7 0
BBX 5 8 1 0
BITMAP
70
D8
18
18
30
18
D8
70
ENDCHAR
STARTCHAR four.dnom
ENCODING -1
SWIDTH 351 0
DWIDTH 7 0
BBX 5 8 1 0
BITMAP
38
38
78
D8
98
F8
18
18
ENDCHAR
STARTCHAR five.dnom
ENCODING -1
SWIDTH 351 0
DWIDTH 7 0
BBX 5 8 1 0
BITMAP
F8
C0
C0
F8
58
08
D8
70
ENDCHAR
STARTCHAR six.dnom
ENCODING -1
SWIDTH 351 0
DWIDTH 7 0
BBX 5 8 1 0
BITMAP
30
70
C0
F8
D8
C8
D8
70
ENDCHAR
STARTCHAR seven.dnom
ENCODING -1
SWIDTH 351 0
DWIDTH 7 0
BBX 5 8 1 0
BITMAP
F8
18
18
10
30
20
60
40
ENDCHAR
STARTCHAR eight.dnom
ENCODING -1
SWIDTH 351 0
DWIDTH 7 0
BBX 5 8 1 0
BITMAP
70
D8
D8
D8
78
D8
D8
70
ENDCHAR
STARTCHAR nine.dnom
ENCODING -1
SWIDTH 351 0
DWIDTH 7 0
BBX 5 8 1 0
BITMAP
70
D8
98
D8
F8
18
38
60
ENDCHAR
STARTCHAR glyph576
ENCODING -1
SWIDTH 442 0
DWIDTH 9 0
BBX 6 2 1 6
BITMAP
FC
FC
ENDCHAR
STARTCHAR glyph577
ENCODING -1
SWIDTH 319 0
DWIDTH 6 0
BBX 5 6 1 11
BITMAP
18
30
00
60
90
70
ENDCHAR
STARTCHAR E.c2sc
ENCODING -1
SWIDTH 455 0
DWIDTH 9 0
BBX 8 11 1 0
BITMAP
FF
FF
C0
C0
FE
FE
C0
C0
C0
FF
FF
ENDCHAR
STARTCHAR g.ss01
ENCODING -1
SWIDTH 496 0
DWIDTH 10 0
BBX 10 15 0 -4
BITMAP
3FC0
7F00
6380
6180
6380
7F00
3E00
2000
7C00
3F80
6180
C180
E180
7F80
3E00
ENDCHAR
STARTCHAR alpha.ss02
ENCODING -1
SWIDTH 553 0
DWIDTH 11 0
BBX 9 11 1 0
BITMAP
3D80
7D80
E780
C300
C300
C300
C300
C300
E780
7F80
3D80
ENDCHAR
STARTCHAR R.ss03
ENCODING -1
SWIDTH 614 0
DWIDTH 12 0
BBX 10 14 1 0
BITMAP
FF00
FF80
E1C0
E0C0
E0C0
E1C0
FF80
FF80
E1C0
E1C0
E1C0
E1C0
E0C0
E0C0
ENDCHAR
STARTCHAR K.ss04
ENCODING -1
SWIDTH 603 0
DWIDTH 12 0
BBX 11 14 1 0
BITMAP
E1C0
E1C0
E380
E300
E700
EE00
FC00
FE00
E600
E700
E380
E180
E1C0
E0E0
ENDCHAR
STARTCHAR k.ss04
ENCODING -1
SWIDTH 495 0
DWIDTH 10 0
BBX 9 15 1 0
BITMAP
E000
E000
E000
E000
E700
E600
EE00
EC00
FC00
FC00
EC00
EE00
E600
E700
E380
ENDCHAR
STARTCHAR K.ss05
ENCODING -1
SWIDTH 609 0
DWIDTH 12 0
BBX 10 14 1 0
BITMAP
E1C0
E380
E380
E700
EE00
FC00
FC00
FC00
EC00
EE00
E700
E380
E1C0
E1C0
ENDCHAR
STARTCHAR k.ss05
ENCODING -1
SWIDTH 493 0
DWIDTH 10 0
BBX 8 15 1 0
BITMAP
E0
E0
E0
E0
E7
EE
EC
FC
F8
F8
F8
FC
EE
E7
E3
ENDCHAR
STARTCHAR D.c2sc
ENCODING -1
SWIDTH 524 0
DWIDTH 10 0
BBX 9 11 1 0
BITMAP
FC00
FE00
C700
C300
C380
C380
C380
C300
C700
FE00
FC00
ENDCHAR
STARTCHAR C.c2sc
ENCODING -1
SWIDTH 527 0
DWIDTH 11 0
BBX 9 11 1 0
BITMAP
3E00
7F00
E380
C180
C000
C000
C000
C180
E380
7F00
3E00
ENDCHAR
STARTCHAR B.c2sc
ENCODING -1
SWIDTH 515 0
DWIDTH 10 0
BBX 8 11 1 0
BITMAP
FE
FF
C3
C3
FF
FE
C3
C3
C3
FF
FE
ENDCHAR
STARTCHAR A.c2sc
ENCODING -1
SWIDTH 543 0
DWIDTH 11 0
BBX 11 11 0 0
BITMAP
0E00
0E00
1E00
1B00
1B00
3380
3180
7F80
7FC0
60C0
E0E0
ENDCHAR
STARTCHAR glyph590
ENCODING -1
SWIDTH 243 0
DWIDTH 5 0
BBX 3 4 1 11
BITMAP
60
60
C0
C0
ENDCHAR
STARTCHAR glyph591
ENCODING -1
SWIDTH 427 0
DWIDTH 9 0
BBX 6 6 1 12
BITMAP
60
30
00
CC
CC
78
ENDCHAR
STARTCHAR glyph592
ENCODING -1
SWIDTH 0 0
DWIDTH 0 0
BBX 5 4 -8 12
BITMAP
18
30
68
98
ENDCHAR
STARTCHAR glyph593
ENCODING -1
SWIDTH 478 0
DWIDTH 10 0
BBX 8 5 2 12
BITMAP
03
03
06
70
D8
ENDCHAR
STARTCHAR glyph594
ENCODING -1
SWIDTH 478 0
DWIDTH 10 0
BBX 8 5 -1 12
BITMAP
C0
C0
60
0E
1B
ENDCHAR
STARTCHAR glyph595
ENCODING -1
SWIDTH 474 0
DWIDTH 10 0
BBX 7 4 2 12
BITMAP
06
06
74
D8
ENDCHAR
STARTCHAR glyph596
ENCODING -1
SWIDTH 478 0
DWIDTH 10 0
BBX 5 5 2 12
BITMAP
48
B8
00
70
D8
ENDCHAR
STARTCHAR uni0490.c2sc
ENCODING -1
SWIDTH 439 0
DWIDTH 9 0
BBX 7 14 1 0
BITMAP
06
06
06
FE
FE
C0
C0
C0
C0
C0
C0
C0
C0
C0
ENDCHAR
STARTCHAR glyph598
ENCODING -1
SWIDTH 427 0
DWIDTH 9 0
BBX 6 5 1 12
BITMAP
18
10
CC
CC
78
ENDCHAR
STARTCHAR glyph599
ENCODING -1
SWIDTH 427 0
DWIDTH 9 0
BBX 6 6 1 12
BITMAP
38
18
30
CC
CC
78
ENDCHAR
STARTCHAR zero.frac
ENCODING -1
SWIDTH 351 0
DWIDTH 7 0
BBX 5 8 1 6
BITMAP
70
D8
D8
C8
C8
D8
D8
70
ENDCHAR
STARTCHAR four.frac
ENCODING -1
SWIDTH 351 0
DWIDTH 7 0
BBX 5 8 1 6
BITMAP
38
38
78
D8
98
F8
18
18
ENDCHAR
STARTCHAR five.frac
ENCODING -1
SWIDTH 351 0
DWIDTH 7 0
BBX 5 8 1 6
BITMAP
F8
C0
C0
F8
58
08
D8
70
ENDCHAR
STARTCHAR six.frac
ENCODING -1
SWIDTH 351 0
DWIDTH 7 0
BBX 5 8 1 6
BITMAP
30
70
C0
F8
D8
C8
D8
70
ENDCHAR
STARTCHAR seven.frac
ENCODING -1
SWIDTH 351 0
DWIDTH 7 0
BBX 5 8 1 6
BITMAP
F8
18
18
10
30
20
60
40
ENDCHAR
STARTCHAR eight.frac
ENCODING -1
SWIDTH 351 0
DWIDTH 7 0
BBX 5 8 1 6
BITMAP
70
D8
D8
D8
78
D8
D8
70
ENDCHAR
STARTCHAR nine.frac
ENCODING -1
SWIDTH 351 0
DWIDTH 7 0
BBX 5 8 1 6
BITMAP
70
D8
98
D8
F8
18
38
60
ENDCHAR
STARTCHAR C.ss06
ENCODING -1
SWIDTH 639 0
DWIDTH 13 0
BBX 11 14 1 0
BITMAP
1F00
3FC0
71C0
60E0
E0E0
E000
C000
C000
E000
E0E0
60E0
71C0
3FC0
1F00
ENDCHAR
STARTCHAR G.ss06
ENCODING -1
SWIDTH 656 0
DWIDTH 13 0
BBX 11 14 1 0
BITMAP
1F00
3FC0
71C0
60E0
E060
E000
C000
C3E0
E3E0
E060
6060
70E0
3FE0
0F80
ENDCHAR
STARTCHAR D.ss06
ENCODING -1
SWIDTH 643 0
DWIDTH 13 0
BBX 11 14 1 0
BITMAP
FE00
FF80
E3C0
E0C0
E0E0
E0E0
E0E0
E0E0
E0E0
E0E0
E0C0
E3C0
FF80
FE00
ENDCHAR
STARTCHAR O.ss06
ENCODING -1
SWIDTH 685 0
DWIDTH 14 0
BBX 12 14 1 0
BITMAP
0F00
3FC0
71C0
60E0
E060
E070
C070
C070
E070
E060
60E0
70C0
3FC0
0F00
ENDCHAR
STARTCHAR Q.ss06
ENCODING -1
SWIDTH 686 0
DWIDTH 14 0
BBX 12 16 1 -2
BITMAP
0F00
3FC0
71C0
60E0
E060
E070
C070
C070
E070
E060
60E0
70C0
3FC0
0FC0
00E0
0040
ENDCHAR
STARTCHAR one.oldstyle.pnum
ENCODING -1
SWIDTH 490 0
DWIDTH 10 0
BBX 6 11 1 0
BITMAP
0C
3C
FC
CC
0C
0C
0C
0C
0C
0C
0C
ENDCHAR
STARTCHAR two.oldstyle.pnum
ENCODING -1
SWIDTH 528 0
DWIDTH 11 0
BBX 9 11 1 0
BITMAP
3E00
7F00
E300
C300
0300
0600
0C00
1800
7000
FF80
FF80
ENDCHAR
STARTCHAR three.oldstyle.pnum
ENCODING -1
SWIDTH 508 0
DWIDTH 10 0
BBX 9 14 0 -3
BITMAP
7F80
7F80
0700
0E00
1C00
1F00
0380
0180
0180
0180
0380
0380
FF00
7C00
ENDCHAR
STARTCHAR four.oldstyle.pnum
ENCODING -1
SWIDTH 553 0
DWIDTH 11 0
BBX 10 14 1 -3
BITMAP
0700
0700
0F00
1B00
1B00
3300
7300
6300
C300
FFC0
FFC0
0300
0300
0300
ENDCHAR
STARTCHAR five.oldstyle.pnum
ENCODING -1
SWIDTH 518 0
DWIDTH 10 0
BBX 9 14 1 -3
BITMAP
7F00
7F00
6000
6000
6000
7E00
FF00
E300
0380
0380
0380
0700
FF00
7C00
ENDCHAR
STARTCHAR seven.oldstyle.pnum
ENCODING -1
SWIDTH 490 0
DWIDTH 10 0
BBX 9 14 1 -3
BITMAP
FF80
FF00
0300
0700
0600
0600
0C00
0C00
1C00
1800
3800
3000
3000
7000
ENDCHAR
STARTCHAR glyph618
ENCODING -1
SWIDTH 427 0
DWIDTH 9 0
BBX 6 5 1 12
BITMAP
64
58
00
CC
78
ENDCHAR
STARTCHAR glyph619
ENCODING -1
SWIDTH 209 0
DWIDTH 4 0
BBX 2 5 1 -3
BITMAP
C0
C0
C0
C0
C0
ENDCHAR
STARTCHAR OE.c2sc
ENCODING -1
SWIDTH 766 0
DWIDTH 15 0
BBX 14 11 1 0
BITMAP
3FFC
7FFC
E380
C380
C3F8
C3F8
C380
C380
E380
7FFC
3FFC
ENDCHAR
STARTCHAR nine.oldstyle.pnum
ENCODING -1
SWIDTH 550 0
DWIDTH 11 0
BBX 9 15 1 -3
BITMAP
3E00
7F00
6300
E180
C180
C180
E180
6380
7F80
3D80
0380
0300
0700
7E00
7C00
ENDCHAR
STARTCHAR glyph622
ENCODING -1
SWIDTH 249 0
DWIDTH 5 0
BBX 5 6 -1 -4
BITMAP
38
38
38
38
F0
E0
ENDCHAR
STARTCHAR three.oldstyle
ENCODING -1
SWIDTH 534 0
DWIDTH 11 0
BBX 9 14 1 -3
BITMAP
FF00
FF00
0600
0C00
1800
3E00
0700
0300
0380
0380
0300
8700
FE00
7C00
ENDCHAR
STARTCHAR five.oldstyle
ENCODING -1
SWIDTH 534 0
DWIDTH 11 0
BBX 9 14 1 -3
BITMAP
7F00
7F00
6000
6000
6000
7E00
FF00
E300
0380
0380
0380
0700
FF00
7C00
ENDCHAR
STARTCHAR four.oldstyle
ENCODING -1
SWIDTH 534 0
DWIDTH 11 0
BBX 9 14 1 -3
BITMAP
0700
0700
0F00
1B00
1B00
3300
7300
6300
C300
FF80
FF80
0300
0300
0300
ENDCHAR
STARTCHAR two.oldstyle
ENCODING -1
SWIDTH 534 0
DWIDTH 11 0
BBX 9 11 1 0
BITMAP
3E00
7F00
E300
C300
0300
0600
0C00
3800
7000
FF80
FF80
ENDCHAR
STARTCHAR seven.oldstyle
ENCODING -1
SWIDTH 534 0
DWIDTH 11 0
BBX 9 14 1 -3
BITMAP
FF80
FF80
0300
0300
0600
0600
0E00
0C00
0C00
1800
1800
3800
3000
7000
ENDCHAR
STARTCHAR zero.oldstyle
ENCODING -1
SWIDTH 534 0
DWIDTH 11 0
BBX 9 11 1 0
BITMAP
3E00
7F00
E380
C180
C180
C180
C180
C180
E380
7F00
3E00
ENDCHAR
STARTCHAR six.oldstyle
ENCODING -1
SWIDTH 534 0
DWIDTH 11 0
BBX 9 14 1 0
BITMAP
0E00
3E00
7000
6000
E000
DE00
FF00
E300
C380
C380
E380
6300
7F00
3E00
ENDCHAR
STARTCHAR nine.oldstyle
ENCODING -1
SWIDTH 534 0
DWIDTH 11 0
BBX 9 15 1 -3
BITMAP
3C00
7F00
E300
C380
C180
C180
C180
E380
7F80
3F80
0380
0300
0700
7E00
7C00
ENDCHAR
STARTCHAR eight.oldstyle
ENCODING -1
SWIDTH 534 0
DWIDTH 11 0
BBX 9 14 1 0
BITMAP
3E00
7F00
6300
E300
E300
6300
7E00
7E00
E300
C380
C380
E300
7F00
3E00
ENDCHAR
STARTCHAR one.oldstyle
ENCODING -1
SWIDTH 534 0
DWIDTH 11 0
BBX 6 11 2 0
BITMAP
0C
7C
FC
9C
1C
1C
1C
1C
1C
1C
1C
ENDCHAR
STARTCHAR glyph633
ENCODING -1
SWIDTH 260 0
DWIDTH 5 0
BBX 5 15 -1 -4
BITMAP
18
18
18
18
18
18
18
18
18
18
18
18
38
70
E0
ENDCHAR
STARTCHAR glyph634
ENCODING -1
SWIDTH 261 0
DWIDTH 5 0
BBX 5 15 -1 -4
BITMAP
18
18
18
18
18
18
18
18
18
18
18
18
38
70
E0
ENDCHAR
STARTCHAR glyph635
ENCODING -1
SWIDTH 255 0
DWIDTH 5 0
BBX 3 11 1 0
BITMAP
E0
E0
E0
E0
E0
E0
E0
E0
E0
E0
E0
ENDCHAR
STARTCHAR glyph636
ENCODING -1
SWIDTH 255 0
DWIDTH 5 0
BBX 4 16 0 -5
BITMAP
70
70
70
70
70
70
70
70
70
70
70
60
C0
C0
E0
60
ENDCHAR
STARTCHAR glyph637
ENCODING -1
SWIDTH 255 0
DWIDTH 5 0
BBX 3 11 1 0
BITMAP
E0
E0
E0
E0
E0
E0
E0
E0
E0
E0
E0
ENDCHAR
STARTCHAR germandbls.sc
ENCODING -1
SWIDTH 515 0
DWIDTH 10 0
BBX 9 11 1 0
BITMAP
3C00
7E00
E600
CC00
DC00
DF00
C300
C380
C300
DF00
DE00
ENDCHAR
STARTCHAR zero.oldstyle.pnum
ENCODING -1
SWIDTH 572 0
DWIDTH 11 0
BBX 10 11 1 0
BITMAP
3E00
7F00
6380
E180
C180
C1C0
C180
E180
6380
7F00
3E00
ENDCHAR
STARTCHAR seven.pnum
ENCODING -1
SWIDTH 495 0
DWIDTH 10 0
BBX 8 14 1 0
BITMAP
FF
FF
03
06
06
0E
0C
0C
18
18
38
30
30
60
ENDCHAR
STARTCHAR b.ss06
ENCODING -1
SWIDTH 532 0
DWIDTH 11 0
BBX 9 15 1 0
BITMAP
E000
E000
E000
E000
FE00
FF00
E300
E380
E180
E180
E180
E380
E300
FF00
DE00
ENDCHAR
STARTCHAR c.ss06
ENCODING -1
SWIDTH 498 0
DWIDTH 10 0
BBX 8 11 1 0
BITMAP
3C
7F
E3
C3
C0
C0
C0
C3
E3
7E
3C
ENDCHAR
STARTCHAR d.ss06
ENCODING -1
SWIDTH 539 0
DWIDTH 11 0
BBX 9 15 1 0
BITMAP
0380
0380
0380
0380
3F80
7F80
E380
C380
C380
C380
C380
C380
E380
7F80
3F80
ENDCHAR
STARTCHAR g.ss06
ENCODING -1
SWIDTH 537 0
DWIDTH 11 0
BBX 9 15 1 -4
BITMAP
3F80
7F80
E380
C380
C380
C380
C380
C380
E380
7F80
3F80
0300
4300
7F00
3C00
ENDCHAR
STARTCHAR o.ss06
ENCODING -1
SWIDTH 542 0
DWIDTH 11 0
BBX 9 11 1 0
BITMAP
3E00
7F00
E300
C380
C180
C180
C180
C380
E300
7F00
3E00
ENDCHAR
STARTCHAR p.ss06
ENCODING -1
SWIDTH 537 0
DWIDTH 11 0
BBX 9 15 1 -4
BITMAP
DE00
FF00
E300
E380
E180
E180
E180
E380
E300
FF00
FE00
E000
E000
E000
E000
ENDCHAR
STARTCHAR q.ss06
ENCODING -1
SWIDTH 541 0
DWIDTH 11 0
BBX 9 15 1 -4
BITMAP
3F80
7F80
E380
C380
C380
C380
C380
C380
E380
7F80
3F80
0380
0380
0380
0380
ENDCHAR
STARTCHAR e.ss07
ENCODING -1
SWIDTH 505 0
DWIDTH 10 0
BBX 8 11 1 0
BITMAP
3C
7F
E3
C3
FF
FF
C0
C0
E1
7F
3E
ENDCHAR
STARTCHAR g.ss07
ENCODING -1
SWIDTH 532 0
DWIDTH 11 0
BBX 8 15 1 -4
BITMAP
3B
7F
E3
C3
C3
C3
C3
C3
E3
7F
3B
03
07
7E
7C
ENDCHAR
STARTCHAR glyph650
ENCODING -1
SWIDTH 512 0
DWIDTH 10 0
BBX 9 15 1 -4
BITMAP
C380
E300
7700
3600
3E00
1C00
1C00
1C00
1C00
3C00
3600
7600
6700
6380
C180
ENDCHAR
STARTCHAR one.pnum
ENCODING -1
SWIDTH 433 0
DWIDTH 9 0
BBX 5 14 1 0
BITMAP
08
78
F8
98
18
18
18
18
18
18
18
18
18
18
ENDCHAR
STARTCHAR ampersand.c2sc
ENCODING -1
SWIDTH 591 0
DWIDTH 12 0
BBX 10 11 1 0
BITMAP
3C00
7E00
6600
6600
7C00
3980
7D80
CF80
C700
FF80
7DC0
ENDCHAR
STARTCHAR Lslash.c2sc
ENCODING -1
SWIDTH 444 0
DWIDTH 9 0
BBX 8 11 0 0
BITMAP
70
70
70
7C
F0
F0
70
70
70
7F
7F
ENDCHAR
STARTCHAR AE.c2sc
ENCODING -1
SWIDTH 733 0
DWIDTH 15 0
BBX 14 11 0 0
BITMAP
07FC
07FC
0D80
0D80
19F8
19F8
3180
3F80
7F80
61FC
E1FC
ENDCHAR
STARTCHAR Thorn.c2sc
ENCODING -1
SWIDTH 476 0
DWIDTH 10 0
BBX 8 11 1 0
BITMAP
C0
C0
FC
FE
C7
C3
C7
FE
FC
C0
C0
ENDCHAR
STARTCHAR Oslash.c2sc
ENCODING -1
SWIDTH 556 0
DWIDTH 11 0
BBX 9 13 1 -1
BITMAP
0180
3F00
7F00
E380
C780
CD80
C980
D980
D180
E380
7F00
7E00
C000
ENDCHAR
STARTCHAR Hbar.c2sc
ENCODING -1
SWIDTH 593 0
DWIDTH 12 0
BBX 10 11 1 0
BITMAP
E1C0
FFC0
FFC0
E1C0
FFC0
FFC0
E1C0
E1C0
E1C0
E1C0
E1C0
ENDCHAR
STARTCHAR Eng.c2sc
ENCODING -1
SWIDTH 568 0
DWIDTH 11 0
BBX 9 15 1 -4
BITMAP
E180
E180
F180
F980
D980
CD80
CD80
C780
C780
C380
C180
0180
0180
0780
0700
ENDCHAR
STARTCHAR Dcroat.c2sc
ENCODING -1
SWIDTH 524 0
DWIDTH 10 0
BBX 11 11 -1 0
BITMAP
3F00
3F80
31C0
30C0
FCE0
FCE0
30E0
30C0
31C0
3F80
3F00
ENDCHAR
STARTCHAR Eth.c2sc
ENCODING -1
SWIDTH 524 0
DWIDTH 10 0
BBX 11 11 -1 0
BITMAP
3F00
3F80
31C0
30C0
FCE0
FCE0
30E0
30C0
31C0
3F80
3F00
ENDCHAR
STARTCHAR Tbar.c2sc
ENCODING -1
SWIDTH 499 0
DWIDTH 10 0
BBX 10 11 0 0
BITMAP
FFC0
FFC0
0C00
0C00
3F00
3F00
0C00
0C00
0C00
0C00
0C00
ENDCHAR
STARTCHAR Agrave.c2sc
ENCODING -1
SWIDTH 543 0
DWIDTH 11 0
BBX 11 15 0 0
BITMAP
1800
1C00
0C00
0000
0E00
0E00
1E00
1B00
1B00
3380
3180
7F80
7FC0
60C0
E0E0
ENDCHAR
STARTCHAR Aacute.c2sc
ENCODING -1
SWIDTH 543 0
DWIDTH 11 0
BBX 11 15 0 0
BITMAP
0300
0700
0600
0000
0E00
0E00
1E00
1B00
1B00
3380
3180
7F80
7FC0
60C0
E0E0
ENDCHAR
STARTCHAR Acircumflex.c2sc
ENCODING -1
SWIDTH 543 0
DWIDTH 11 0
BBX 11 15 0 0
BITMAP
0E00
1A00
1B00
0000
0E00
0E00
1E00
1B00
1B00
3380
3180
7F80
7FC0
60C0
E0E0
ENDCHAR
STARTCHAR Atilde.c2sc
ENCODING -1
SWIDTH 543 0
DWIDTH 11 0
BBX 11 15 0 0
BITMAP
1980
3F80
3300
0000
0E00
0E00
1E00
1B00
1B00
3380
3180
7F80
7FC0
60C0
E0E0
ENDCHAR
STARTCHAR Adieresis.c2sc
ENCODING -1
SWIDTH 543 0
DWIDTH 11 0
BBX 11 14 0 0
BITMAP
3180
3180
0000
0E00
0E00
1E00
1B00
1B00
3380
3180
7F80
7FC0
60C0
E0E0
ENDCHAR
STARTCHAR Aring.c2sc
ENCODING -1
SWIDTH 543 0
DWIDTH 11 0
BBX 11 16 0 0
BITMAP
0E00
1B00
1B00
0E00
0000
0E00
0E00
1E00
1B00
1B00
3380
3180
7F80
7FC0
60C0
E0E0
ENDCHAR
STARTCHAR Aringacute.c2sc
ENCODING -1
SWIDTH 543 0
DWIDTH 11 0
BBX 11 17 0 0
BITMAP
0300
0600
0000
0E00
0A00
0A00
0E00
0E00
1E00
1B00
1B00
3380
3180
7F80
7FC0
60C0
E0E0
ENDCHAR
STARTCHAR Ccedilla.c2sc
ENCODING -1
SWIDTH 527 0
DWIDTH 11 0
BBX 9 15 1 -4
BITMAP
3E00
7F00
E380
C180
C000
C000
C000
C180
E380
7F00
3E00
1800
0C00
0C00
0C00
ENDCHAR
STARTCHAR Egrave.c2sc
ENCODING -1
SWIDTH 455 0
DWIDTH 9 0
BBX 8 15 1 0
BITMAP
70
30
18
00
FF
FF
C0
C0
FE
FE
C0
C0
C0
FF
FF
ENDCHAR
STARTCHAR Eacute.c2sc
ENCODING -1
SWIDTH 455 0
DWIDTH 9 0
BBX 8 15 1 0
BITMAP
0E
0C
18
00
FF
FF
C0
C0
FE
FE
C0
C0
C0
FF
FF
ENDCHAR
STARTCHAR Ecircumflex.c2sc
ENCODING -1
SWIDTH 455 0
DWIDTH 9 0
BBX 8 15 1 0
BITMAP
18
3C
66
00
FF
FF
C0
C0
FE
FE
C0
C0
C0
FF
FF
ENDCHAR
STARTCHAR Edieresis.c2sc
ENCODING -1
SWIDTH 455 0
DWIDTH 9 0
BBX 8 14 1 0
BITMAP
66
66
00
FF
FF
C0
C0
FE
FE
C0
C0
C0
FF
FF
ENDCHAR
STARTCHAR Igrave.c2sc
ENCODING -1
SWIDTH 240 0
DWIDTH 5 0
BBX 5 15 -1 0
BITMAP
E0
70
30
00
38
38
38
38
38
38
38
38
38
38
38
ENDCHAR
STARTCHAR Iacute.c2sc
ENCODING -1
SWIDTH 240 0
DWIDTH 5 0
BBX 4 15 1 0
BITMAP
30
60
60
00
E0
E0
E0
E0
E0
E0
E0
E0
E0
E0
E0
ENDCHAR
STARTCHAR Icircumflex.c2sc
ENCODING -1
SWIDTH 240 0
DWIDTH 5 0
BBX 5 15 0 0
BITMAP
70
D0
98
00
70
70
70
70
70
70
70
70
70
70
70
ENDCHAR
STARTCHAR Idieresis.c2sc
ENCODING -1
SWIDTH 240 0
DWIDTH 5 0
BBX 7 14 -1 0
BITMAP
C6
C6
00
38
38
38
38
38
38
38
38
38
38
38
ENDCHAR
STARTCHAR Ntilde.c2sc
ENCODING -1
SWIDTH 568 0
DWIDTH 11 0
BBX 9 15 1 0
BITMAP
3100
3F00
6600
0000
E180
E180
F180
F980
D980
CD80
CD80
C780
C780
C380
C180
ENDCHAR
STARTCHAR Ograve.c2sc
ENCODING -1
SWIDTH 556 0
DWIDTH 11 0
BBX 9 15 1 0
BITMAP
3000
3800
1800
0000
3E00
7F00
E380
C180
C180
C180
C180
C180
E380
7F00
3E00
ENDCHAR
STARTCHAR Oacute.c2sc
ENCODING -1
SWIDTH 556 0
DWIDTH 11 0
BBX 9 15 1 0
BITMAP
0600
0E00
0C00
0000
3E00
7F00
E380
C180
C180
C180
C180
C180
E380
7F00
3E00
ENDCHAR
STARTCHAR Ocircumflex.c2sc
ENCODING -1
SWIDTH 556 0
DWIDTH 11 0
BBX 9 15 1 0
BITMAP
1C00
1600
3600
0000
3E00
7F00
E380
C180
C180
C180
C180
C180
E380
7F00
3E00
ENDCHAR
STARTCHAR Otilde.c2sc
ENCODING -1
SWIDTH 556 0
DWIDTH 11 0
BBX 9 15 1 0
BITMAP
3300
7F00
6600
0000
3E00
7F00
E380
C180
C180
C180
C180
C180
E380
7F00
3E00
ENDCHAR
STARTCHAR Odieresis.c2sc
ENCODING -1
SWIDTH 556 0
DWIDTH 11 0
BBX 9 14 1 0
BITMAP
6300
6300
0000
3E00
7F00
E380
C180
C180
C180
C180
C180
E380
7F00
3E00
ENDCHAR
STARTCHAR Ugrave.c2sc
ENCODING -1
SWIDTH 529 0
DWIDTH 11 0
BBX 9 15 1 0
BITMAP
7000
3800
1800
0000
C380
C380
C380
C380
C380
C380
C380
C380
E300
7F00
3E00
ENDCHAR
STARTCHAR Uacute.c2sc
ENCODING -1
SWIDTH 529 0
DWIDTH 11 0
BBX 9 15 1 0
BITMAP
0600
0C00
1800
0000
C380
C380
C380
C380
C380
C380
C380
C380
E300
7F00
3E00
ENDCHAR
STARTCHAR Ucircumflex.c2sc
ENCODING -1
SWIDTH 529 0
DWIDTH 11 0
BBX 9 15 1 0
BITMAP
1800
3C00
6600
0000
C380
C380
C380
C380
C380
C380
C380
C380
E300
7F00
3E00
ENDCHAR
STARTCHAR Udieresis.c2sc
ENCODING -1
SWIDTH 529 0
DWIDTH 11 0
BBX 9 14 1 0
BITMAP
6700
6300
0000
C380
C380
C380
C380
C380
C380
C380
C380
E300
7F00
3E00
ENDCHAR
STARTCHAR Yacute.c2sc
ENCODING -1
SWIDTH 499 0
DWIDTH 10 0
BBX 10 15 0 0
BITMAP
0700
0600
0C00
0000
E1C0
6180
7380
3300
3E00
1E00
0C00
0C00
0C00
0C00
0C00
ENDCHAR
STARTCHAR Amacron.c2sc
ENCODING -1
SWIDTH 543 0
DWIDTH 11 0
BBX 11 15 0 0
BITMAP
3F80
3F80
0000
0000
0E00
0E00
1E00
1B00
1B00
3380
3180
7F80
7FC0
60C0
E0E0
ENDCHAR
STARTCHAR Abreve.c2sc
ENCODING -1
SWIDTH 543 0
DWIDTH 11 0
BBX 11 15 0 0
BITMAP
3180
1B00
0E00
0000
0E00
0E00
1E00
1B00
1B00
3380
3180
7F80
7FC0
60C0
E0E0
ENDCHAR
STARTCHAR Aogonek.c2sc
ENCODING -1
SWIDTH 543 0
DWIDTH 11 0
BBX 11 15 0 -4
BITMAP
0E00
0E00
1E00
1B00
1B00
3380
3180
7F80
7FC0
60C0
E0E0
00C0
0180
01C0
01C0
ENDCHAR
STARTCHAR Cacute.c2sc
ENCODING -1
SWIDTH 527 0
DWIDTH 11 0
BBX 9 15 1 0
BITMAP
0600
0C00
0C00
0000
3E00
7F00
E380
C180
C000
C000
C000
C180
E380
7F00
3E00
ENDCHAR
STARTCHAR Ccircumflex.c2sc
ENCODING -1
SWIDTH 527 0
DWIDTH 11 0
BBX 9 15 1 0
BITMAP
1C00
3400
3600
0000
3E00
7F00
E380
C180
C000
C000
C000
C180
E380
7F00
3E00
ENDCHAR
STARTCHAR Cdotaccent.c2sc
ENCODING -1
SWIDTH 527 0
DWIDTH 11 0
BBX 9 14 1 0
BITMAP
1C00
1800
0000
3E00
7F00
E380
C180
C000
C000
C000
C180
E380
7F00
3E00
ENDCHAR
STARTCHAR Ccaron.c2sc
ENCODING -1
SWIDTH 527 0
DWIDTH 11 0
BBX 9 15 1 0
BITMAP
7600
3400
1C00
0000
3E00
7F00
E380
C180
C000
C000
C000
C180
E380
7F00
3E00
ENDCHAR
STARTCHAR Dcaron.c2sc
ENCODING -1
SWIDTH 524 0
DWIDTH 10 0
BBX 9 15 1 0
BITMAP
CC00
7800
3000
0000
FC00
FE00
C700
C300
C380
C380
C380
C300
C700
FE00
FC00
ENDCHAR
STARTCHAR Emacron.c2sc
ENCODING -1
SWIDTH 455 0
DWIDTH 9 0
BBX 8 15 1 0
BITMAP
7E
7E
00
00
FF
FF
C0
C0
FE
FE
C0
C0
C0
FF
FF
ENDCHAR
STARTCHAR Ebreve.c2sc
ENCODING -1
SWIDTH 455 0
DWIDTH 9 0
BBX 8 15 1 0
BITMAP
66
66
3C
00
FF
FF
C0
C0
FE
FE
C0
C0
C0
FF
FF
ENDCHAR
STARTCHAR Edotaccent.c2sc
ENCODING -1
SWIDTH 455 0
DWIDTH 9 0
BBX 8 14 1 0
BITMAP
18
18
00
FF
FF
C0
C0
FE
FE
C0
C0
C0
FF
FF
ENDCHAR
STARTCHAR Eogonek.c2sc
ENCODING -1
SWIDTH 455 0
DWIDTH 9 0
BBX 8 15 1 -4
BITMAP
FF
FF
C0
C0
FE
FE
C0
C0
C0
FF
FF
0C
08
1E
0E
ENDCHAR
STARTCHAR Ecaron.c2sc
ENCODING -1
SWIDTH 455 0
DWIDTH 9 0
BBX 8 15 1 0
BITMAP
66
3C
18
00
FF
FF
C0
C0
FE
FE
C0
C0
C0
FF
FF
ENDCHAR
STARTCHAR Gcircumflex.c2sc
ENCODING -1
SWIDTH 543 0
DWIDTH 11 0
BBX 9 15 1 0
BITMAP
1C00
1400
3600
0000
3E00
7F00
E380
C180
C000
C780
C780
C180
E180
7F80
3F00
ENDCHAR
STARTCHAR Gbreve.c2sc
ENCODING -1
SWIDTH 543 0
DWIDTH 11 0
BBX 9 15 1 0
BITMAP
6300
3600
1C00
0000
3E00
7F00
E380
C180
C000
C780
C780
C180
E180
7F80
3F00
ENDCHAR
STARTCHAR Gdotaccent.c2sc
ENCODING -1
SWIDTH 543 0
DWIDTH 11 0
BBX 9 14 1 0
BITMAP
1C00
1C00
0000
3E00
7F00
E380
C180
C000
C780
C780
C180
E180
7F80
3F00
ENDCHAR
STARTCHAR uni0122.c2sc
ENCODING -1
SWIDTH 543 0
DWIDTH 11 0
BBX 9 16 1 -5
BITMAP
3E00
7F00
E380
C180
C000
C780
C780
C180
E180
7F80
3F00
0000
0C00
0800
1800
1800
ENDCHAR
STARTCHAR Hcircumflex.c2sc
ENCODING -1
SWIDTH 569 0
DWIDTH 11 0
BBX 9 15 1 0
BITMAP
0C00
1E00
3200
0000
C180
C180
C180
C180
C180
FF80
FF80
C180
C180
C180
C180
ENDCHAR
STARTCHAR Itilde.c2sc
ENCODING -1
SWIDTH 240 0
DWIDTH 5 0
BBX 7 15 -1 0
BITMAP
66
FC
CC
00
38
38
38
38
38
38
38
38
38
38
38
ENDCHAR
STARTCHAR Imacron.c2sc
ENCODING -1
SWIDTH 240 0
DWIDTH 5 0
BBX 7 15 -1 0
BITMAP
FE
FE
00
00
38
38
38
38
38
38
38
38
38
38
38
ENDCHAR
STARTCHAR Ibreve.c2sc
ENCODING -1
SWIDTH 240 0
DWIDTH 5 0
BBX 7 15 -1 0
BITMAP
C6
6C
38
00
38
38
38
38
38
38
38
38
38
38
38
ENDCHAR
STARTCHAR Iogonek.c2sc
ENCODING -1
SWIDTH 240 0
DWIDTH 5 0
BBX 4 15 0 -4
BITMAP
70
70
70
70
70
70
70
70
70
70
70
60
C0
F0
70
ENDCHAR
STARTCHAR Idotaccent.c2sc
ENCODING -1
SWIDTH 240 0
DWIDTH 5 0
BBX 3 14 1 0
BITMAP
E0
C0
00
E0
E0
E0
E0
E0
E0
E0
E0
E0
E0
E0
ENDCHAR
STARTCHAR Jcircumflex.c2sc
ENCODING -1
SWIDTH 451 0
DWIDTH 9 0
BBX 10 15 0 0
BITMAP
0300
0780
0CC0
0000
0300
0300
0300
0300
0300
0300
0300
E300
6700
7E00
3C00
ENDCHAR
STARTCHAR uni0136.c2sc
ENCODING -1
SWIDTH 511 0
DWIDTH 10 0
BBX 9 15 1 -4
BITMAP
C380
C700
CE00
DC00
D800
FC00
FC00
EE00
C700
C300
C380
1800
1800
1000
1000
ENDCHAR
STARTCHAR Lacute.c2sc
ENCODING -1
SWIDTH 438 0
DWIDTH 9 0
BBX 7 15 1 0
BITMAP
30
60
C0
00
C0
C0
C0
C0
C0
C0
C0
C0
C0
FE
FE
ENDCHAR
STARTCHAR uni013B.c2sc
ENCODING -1
SWIDTH 438 0
DWIDTH 9 0
BBX 7 16 1 -5
BITMAP
C0
C0
C0
C0
C0
C0
C0
C0
C0
FE
FE
00
18
18
30
30
ENDCHAR
STARTCHAR Lcaron.c2sc
ENCODING -1
SWIDTH 438 0
DWIDTH 9 0
BBX 7 12 1 0
BITMAP
0C
CC
CC
C8
C0
C0
C0
C0
C0
C0
FE
FE
ENDCHAR
STARTCHAR Ldot.c2sc
ENCODING -1
SWIDTH 438 0
DWIDTH 9 0
BBX 7 11 1 0
BITMAP
C0
C0
C0
C0
CC
CC
C0
C0
C0
FE
FE
ENDCHAR
STARTCHAR Nacute.c2sc
ENCODING -1
SWIDTH 568 0
DWIDTH 11 0
BBX 9 15 1 0
BITMAP
0700
0E00
0C00
0000
E180
E180
F180
F980
D980
CD80
CD80
C780
C780
C380
C180
ENDCHAR
STARTCHAR uni0145.c2sc
ENCODING -1
SWIDTH 568 0
DWIDTH 11 0
BBX 9 16 1 -5
BITMAP
E180
E180
F180
F980
D980
CD80
CD80
C780
C780
C380
C180
0000
0C00
0C00
1800
1800
ENDCHAR
STARTCHAR Ncaron.c2sc
ENCODING -1
SWIDTH 568 0
DWIDTH 11 0
BBX 9 15 1 0
BITMAP
3300
1E00
0C00
0000
E180
E180
F180
F980
D980
CD80
CD80
C780
C780
C380
C180
ENDCHAR
STARTCHAR Omacron.c2sc
ENCODING -1
SWIDTH 556 0
DWIDTH 11 0
BBX 9 15 1 0
BITMAP
7F00
7F00
0000
0000
3E00
7F00
E380
C180
C180
C180
C180
C180
E380
7F00
3E00
ENDCHAR
STARTCHAR Obreve.c2sc
ENCODING -1
SWIDTH 556 0
DWIDTH 11 0
BBX 9 15 1 0
BITMAP
6300
3600
1C00
0000
3E00
7F00
E380
C180
C180
C180
C180
C180
E380
7F00
3E00
ENDCHAR
STARTCHAR Ohungarumlaut.c2sc
ENCODING -1
SWIDTH 556 0
DWIDTH 11 0
BBX 9 15 1 0
BITMAP
1980
1B00
3600
0000
3E00
7F00
E380
C180
C180
C180
C180
C180
E380
7F00
3E00
ENDCHAR
STARTCHAR Racute.c2sc
ENCODING -1
SWIDTH 513 0
DWIDTH 10 0
BBX 9 15 1 0
BITMAP
0E00
1C00
1800
0000
FE00
FF00
C300
C300
C300
FF00
FC00
C600
C700
C300
C380
ENDCHAR
STARTCHAR uni0156.c2sc
ENCODING -1
SWIDTH 513 0
DWIDTH 10 0
BBX 9 15 1 -4
BITMAP
FE00
FF00
C300
C300
C300
FF00
FC00
C600
C700
C300
C380
1800
1800
1000
1000
ENDCHAR
STARTCHAR Rcaron.c2sc
ENCODING -1
SWIDTH 513 0
DWIDTH 10 0
BBX 9 15 1 0
BITMAP
6600
3C00
1800
0000
FE00
FF00
C300
C300
C300
FF00
FC00
C600
C700
C300
C380
ENDCHAR
STARTCHAR Sacute.c2sc
ENCODING -1
SWIDTH 496 0
DWIDTH 10 0
BBX 8 15 1 0
BITMAP
06
0C
18
00
3C
FE
C7
C3
F0
3E
0F
C3
C3
FF
3E
ENDCHAR
STARTCHAR Scircumflex.c2sc
ENCODING -1
SWIDTH 496 0
DWIDTH 10 0
BBX 8 15 1 0
BITMAP
18
3C
66
00
3C
FE
C7
C3
F0
3E
0F
C3
C3
FF
3E
ENDCHAR
STARTCHAR Scedilla.c2sc
ENCODING -1
SWIDTH 496 0
DWIDTH 10 0
BBX 8 15 1 -4
BITMAP
3C
FE
C7
C3
F0
3E
0F
C3
C3
FF
3E
18
0C
0C
18
ENDCHAR
STARTCHAR Scaron.c2sc
ENCODING -1
SWIDTH 496 0
DWIDTH 10 0
BBX 8 15 1 0
BITMAP
66
3C
18
00
3C
FE
C7
C3
F0
3E
0F
C3
C3
FF
3E
ENDCHAR
STARTCHAR uni021A.c2sc
ENCODING -1
SWIDTH 499 0
DWIDTH 10 0
BBX 10 16 0 -5
BITMAP
FFC0
FFC0
0C00
0C00
0C00
0C00
0C00
0C00
0C00
0C00
0C00
0000
0C00
0C00
0C00
0800
ENDCHAR
STARTCHAR Tcaron.c2sc
ENCODING -1
SWIDTH 499 0
DWIDTH 10 0
BBX 10 15 0 0
BITMAP
3300
1E00
0C00
0000
FFC0
FFC0
0C00
0C00
0C00
0C00
0C00
0C00
0C00
0C00
0C00
ENDCHAR
STARTCHAR uni0162.c2sc
ENCODING -1
SWIDTH 499 0
DWIDTH 10 0
BBX 10 15 0 -4
BITMAP
FFC0
FFC0
0C00
0C00
0C00
0C00
0C00
0C00
0C00
0C00
0C00
0C00
0600
0600
0C00
ENDCHAR
STARTCHAR Utilde.c2sc
ENCODING -1
SWIDTH 529 0
DWIDTH 11 0
BBX 9 15 1 0
BITMAP
3300
7E00
4E00
0000
C380
C380
C380
C380
C380
C380
C380
C380
E300
7F00
3E00
ENDCHAR
STARTCHAR Umacron.c2sc
ENCODING -1
SWIDTH 529 0
DWIDTH 11 0
BBX 9 15 1 0
BITMAP
7E00
7E00
0000
0000
C380
C380
C380
C380
C380
C380
C380
C380
E300
7F00
3E00
ENDCHAR
STARTCHAR Ubreve.c2sc
ENCODING -1
SWIDTH 529 0
DWIDTH 11 0
BBX 9 15 1 0
BITMAP
6200
7600
3C00
0000
C380
C380
C380
C380
C380
C380
C380
C380
E300
7F00
3E00
ENDCHAR
STARTCHAR Uring.c2sc
ENCODING -1
SWIDTH 529 0
DWIDTH 11 0
BBX 9 16 1 0
BITMAP
1C00
2400
2400
1C00
0000
C380
C380
C380
C380
C380
C380
C380
C380
E300
7F00
3E00
ENDCHAR
STARTCHAR Uhungarumlaut.c2sc
ENCODING -1
SWIDTH 529 0
DWIDTH 11 0
BBX 9 15 1 0
BITMAP
1B00
3300
3600
0000
C380
C380
C380
C380
C380
C380
C380
C380
E300
7F00
3E00
ENDCHAR
STARTCHAR Uogonek.c2sc
ENCODING -1
SWIDTH 529 0
DWIDTH 11 0
BBX 9 15 1 -4
BITMAP
C380
C380
C380
C380
C380
C380
C380
C380
E300
7F00
3E00
0C00
0800
0E00
0E00
ENDCHAR
STARTCHAR Wcircumflex.c2sc
ENCODING -1
SWIDTH 701 0
DWIDTH 14 0
BBX 13 15 1 0
BITMAP
0600
0F00
1980
0000
C638
C630
CF30
CF30
EF30
6D60
69E0
79E0
79E0
38C0
30C0
ENDCHAR
STARTCHAR Ycircumflex.c2sc
ENCODING -1
SWIDTH 499 0
DWIDTH 10 0
BBX 10 15 0 0
BITMAP
0C00
1E00
3300
0000
E1C0
6180
7380
3300
3E00
1E00
0C00
0C00
0C00
0C00
0C00
ENDCHAR
STARTCHAR Ydieresis.c2sc
ENCODING -1
SWIDTH 499 0
DWIDTH 10 0
BBX 10 14 0 0
BITMAP
3300
3300
0000
E1C0
6180
7380
3300
3E00
1E00
0C00
0C00
0C00
0C00
0C00
ENDCHAR
STARTCHAR Zacute.c2sc
ENCODING -1
SWIDTH 489 0
DWIDTH 10 0
BBX 8 15 1 0
BITMAP
0E
0C
18
00
FF
FF
06
0E
1C
18
30
70
E0
FF
FF
ENDCHAR
STARTCHAR Zdotaccent.c2sc
ENCODING -1
SWIDTH 489 0
DWIDTH 10 0
BBX 8 14 1 0
BITMAP
18
18
00
FF
FF
06
0E
1C
18
30
70
E0
FF
FF
ENDCHAR
STARTCHAR Zcaron.c2sc
ENCODING -1
SWIDTH 489 0
DWIDTH 10 0
BBX 8 15 1 0
BITMAP
66
3C
18
00
FF
FF
06
0E
1C
18
30
70
E0
FF
FF
ENDCHAR
STARTCHAR two.pnum
ENCODING -1
SWIDTH 534 0
DWIDTH 11 0
BBX 9 14 1 0
BITMAP
3E00
7F00
E300
C300
C300
0300
0700
0E00
1C00
1800
3000
6000
FF80
FF80
ENDCHAR
STARTCHAR three.pnum
ENCODING -1
SWIDTH 534 0
DWIDTH 11 0
BBX 9 14 1 0
BITMAP
3C00
7F00
E300
C300
0300
0300
1E00
1E00
0300
0380
C380
E300
7F00
3C00
ENDCHAR
STARTCHAR four.pnum
ENCODING -1
SWIDTH 534 0
DWIDTH 11 0
BBX 9 14 1 0
BITMAP
0700
0F00
0F00
1F00
1F00
3700
6700
6700
C700
FF80
FF80
0700
0700
0700
ENDCHAR
STARTCHAR five.pnum
ENCODING -1
SWIDTH 534 0
DWIDTH 11 0
BBX 9 14 1 0
BITMAP
7F00
7F00
6000
6000
6000
7E00
7F00
2380
0380
0180
E380
6300
7F00
3E00
ENDCHAR
STARTCHAR six.pnum
ENCODING -1
SWIDTH 543 0
DWIDTH 11 0
BBX 9 14 1 0
BITMAP
0E00
1E00
3800
7000
6000
7E00
FF00
E380
E180
E180
6180
6380
3F00
1E00
ENDCHAR
STARTCHAR eight.pnum
ENCODING -1
SWIDTH 553 0
DWIDTH 11 0
BBX 9 14 1 0
BITMAP
3E00
7F00
6300
6380
6380
6300
3E00
3F00
6300
E380
E180
E380
7F00
3E00
ENDCHAR
STARTCHAR nine.pnum
ENCODING -1
SWIDTH 543 0
DWIDTH 11 0
BBX 9 14 1 0
BITMAP
3C00
7E00
E700
C300
C300
C380
E380
7F00
3B00
0300
0300
0E00
3C00
3800
ENDCHAR
STARTCHAR zero.pnum
ENCODING -1
SWIDTH 553 0
DWIDTH 11 0
BBX 9 14 1 0
BITMAP
3E00
7F00
6300
E380
E180
E180
E180
E180
E180
E380
E380
6300
7F00
3E00
ENDCHAR
STARTCHAR G_acutecomb.ccmp
ENCODING -1
SWIDTH 634 0
DWIDTH 13 0
BBX 11 18 1 0
BITMAP
0300
0600
0C00
0000
1F00
3F80
71C0
E0C0
E0C0
E000
C000
C7E0
E7E0
E0E0
E0E0
70E0
3FC0
1F80
ENDCHAR
STARTCHAR g_acutecomb.ccmp
ENCODING -1
SWIDTH 532 0
DWIDTH 11 0
BBX 8 19 1 -4
BITMAP
0E
0C
18
00
3F
7F
E3
C3
C3
C3
C3
C3
E3
7F
3B
03
43
FF
3C
ENDCHAR
STARTCHAR N_gravecomb.ccmp
ENCODING -1
SWIDTH 662 0
DWIDTH 13 0
BBX 11 18 1 0
BITMAP
1800
0C00
0E00
0000
E0E0
F0E0
F0E0
F8E0
F8E0
ECE0
EEE0
E6E0
E7E0
E3E0
E3E0
E1E0
E0E0
E0E0
ENDCHAR
STARTCHAR n_gravecomb.ccmp
ENCODING -1
SWIDTH 522 0
DWIDTH 10 0
BBX 8 16 1 0
BITMAP
70
38
18
00
00
DE
FF
E3
C3
C3
C3
C3
C3
C3
C3
C3
ENDCHAR
STARTCHAR A_uni030F.ccmp
ENCODING -1
SWIDTH 625 0
DWIDTH 13 0
BBX 12 18 0 0
BITMAP
3600
1B00
1F00
0000
0700
0700
0F00
0F80
0D80
1980
19C0
18C0
38C0
3FE0
7FE0
7060
6070
E030
ENDCHAR
STARTCHAR a_uni030F.ccmp
ENCODING -1
SWIDTH 506 0
DWIDTH 10 0
BBX 8 15 1 0
BITMAP
D8
EC
6C
00
3C
7E
E7
03
3F
73
C3
C3
C7
FF
7B
ENDCHAR
STARTCHAR E_uni030F.ccmp
ENCODING -1
SWIDTH 529 0
DWIDTH 11 0
BBX 9 18 1 0
BITMAP
DC00
6C00
3600
0000
FF80
FF80
E000
E000
E000
E000
FF00
FF00
E000
E000
E000
E000
FF80
FF80
ENDCHAR
STARTCHAR e_uni030F.ccmp
ENCODING -1
SWIDTH 504 0
DWIDTH 10 0
BBX 9 15 0 0
BITMAP
EC00
7E00
3600
0000
1E00
3F80
7180
6180
7F80
7F80
6000
6000
7080
3F80
1F00
ENDCHAR
STARTCHAR I_uni030F.ccmp
ENCODING -1
SWIDTH 271 0
DWIDTH 5 0
BBX 7 18 -2 0
BITMAP
DC
6C
36
00
0C
0C
0C
0C
0C
0C
0C
0C
0C
0C
0C
0C
0C
0C
ENDCHAR
STARTCHAR dotlessi_uni030F.ccmp
ENCODING -1
SWIDTH 255 0
DWIDTH 5 0
BBX 7 16 -2 0
BITMAP
DC
6C
36
00
00
1C
1C
1C
1C
1C
1C
1C
1C
1C
1C
1C
ENDCHAR
STARTCHAR O_uni030F.ccmp
ENCODING -1
SWIDTH 645 0
DWIDTH 13 0
BBX 11 18 1 0
BITMAP
6C00
3600
1B00
0000
1F00
3F80
71C0
E0C0
E0E0
C0E0
C0E0
C0E0
C0E0
E0E0
E0C0
71C0
3F80
1F00
ENDCHAR
STARTCHAR o_uni030F.ccmp
ENCODING -1
SWIDTH 533 0
DWIDTH 11 0
BBX 9 15 1 0
BITMAP
D800
6C00
6C00
0000
3C00
7F00
E300
C380
C180
C180
C180
C380
E300
7F00
3E00
ENDCHAR
STARTCHAR R_uni030F.ccmp
ENCODING -1
SWIDTH 586 0
DWIDTH 12 0
BBX 10 18 1 0
BITMAP
D800
6C00
3600
0000
FF00
FF80
E180
E1C0
E1C0
E1C0
E180
FF80
FE00
E700
E380
E380
E1C0
E0C0
ENDCHAR
STARTCHAR r_uni030F.ccmp
ENCODING -1
SWIDTH 336 0
DWIDTH 7 0
BBX 7 16 -1 0
BITMAP
FC
6C
36
00
00
36
3E
38
38
38
38
38
38
38
38
38
ENDCHAR
STARTCHAR U_uni030F.ccmp
ENCODING -1
SWIDTH 610 0
DWIDTH 12 0
BBX 10 18 1 0
BITMAP
EC00
7600
3600
0000
E0C0
E0C0
E0C0
E0C0
E0C0
E0C0
E0C0
E0C0
E0C0
E0C0
E0C0
61C0
7F80
1F00
ENDCHAR
STARTCHAR u_uni030F.ccmp
ENCODING -1
SWIDTH 521 0
DWIDTH 10 0
BBX 8 16 1 0
BITMAP
D8
6C
6C
00
00
C3
C3
C3
C3
C3
C3
C3
C3
E3
7F
3B
ENDCHAR
STARTCHAR Upsilon1_acutecomb.ccmp
ENCODING -1
SWIDTH 580 0
DWIDTH 12 0
BBX 14 16 -2 0
BITMAP
C000
C000
9C1C
1C3C
0E30
0670
0760
0360
03E0
01C0
01C0
01C0
01C0
01C0
01C0
01C0
ENDCHAR
STARTCHAR B_dotbelowcomb.ccmp
ENCODING -1
SWIDTH 592 0
DWIDTH 12 0
BBX 10 17 1 -3
BITMAP
FF00
FF80
E180
E1C0
E180
E180
FF00
FF80
E180
E1C0
E1C0
E1C0
FF80
FF00
0000
1C00
1C00
ENDCHAR
STARTCHAR b_dotbelowcomb.ccmp
ENCODING -1
SWIDTH 528 0
DWIDTH 11 0
BBX 9 18 1 -3
BITMAP
E000
E000
E000
E000
FE00
FF00
E300
E380
E380
E380
E380
E380
E300
FF00
DE00
0000
0C00
1C00
ENDCHAR
STARTCHAR D_dotbelowcomb.ccmp
ENCODING -1
SWIDTH 610 0
DWIDTH 12 0
BBX 10 17 1 -3
BITMAP
FE00
FF00
E380
E1C0
E0C0
E0C0
E0C0
E0C0
E0C0
E0C0
E1C0
E380
FF00
FE00
0000
1800
1800
ENDCHAR
STARTCHAR d_dotbelowcomb.ccmp
ENCODING -1
SWIDTH 529 0
DWIDTH 11 0
BBX 8 18 1 -3
BITMAP
03
03
03
03
3B
7F
E3
C3
C3
C3
C3
C3
E3
7F
3B
00
1C
1C
ENDCHAR
STARTCHAR D_uniF6C3.ccmp
ENCODING -1
SWIDTH 610 0
DWIDTH 12 0
BBX 10 19 1 -5
BITMAP
FE00
FF00
E380
E1C0
E0C0
E0C0
E0C0
E0C0
E0C0
E0C0
E1C0
E380
FF00
FE00
0000
1800
1800
1800
1000
ENDCHAR
STARTCHAR d_uniF6C3.ccmp
ENCODING -1
SWIDTH 529 0
DWIDTH 11 0
BBX 8 20 1 -5
BITMAP
03
03
03
03
3B
7F
E3
C3
C3
C3
C3
C3
E3
7F
3B
00
08
08
18
18
ENDCHAR
STARTCHAR H_dotbelowcomb.ccmp
ENCODING -1
SWIDTH 663 0
DWIDTH 13 0
BBX 11 17 1 -3
BITMAP
E0E0
E0E0
E0E0
E0E0
E0E0
E0E0
FFE0
FFE0
E0E0
E0E0
E0E0
E0E0
E0E0
E0E0
0000
0E00
0E00
ENDCHAR
STARTCHAR h_dotbelowcomb.ccmp
ENCODING -1
SWIDTH 521 0
DWIDTH 10 0
BBX 8 18 1 -3
BITMAP
C0
C0
C0
C0
DE
FF
E3
C3
C3
C3
C3
C3
C3
C3
C3
00
18
1C
ENDCHAR
STARTCHAR K_acutecomb.ccmp
ENCODING -1
SWIDTH 590 0
DWIDTH 12 0
BBX 11 18 1 0
BITMAP
0600
0E00
0C00
0000
E1C0
E180
E380
E700
EE00
EC00
FC00
FE00
F600
E700
E380
E380
E1C0
E0E0
ENDCHAR
STARTCHAR k_acutecomb.ccmp
ENCODING -1
SWIDTH 493 0
DWIDTH 10 0
BBX 9 18 1 0
BITMAP
0700
0E00
0C00
E000
E000
E000
E000
E700
E600
EE00
FC00
F800
FC00
EC00
EE00
E600
E700
E380
ENDCHAR
STARTCHAR K_dotbelowcomb.ccmp
ENCODING -1
SWIDTH 590 0
DWIDTH 12 0
BBX 11 17 1 -3
BITMAP
E1C0
E180
E380
E700
EE00
EC00
FC00
FE00
F600
E700
E380
E380
E1C0
E0E0
0000
0C00
0C00
ENDCHAR
STARTCHAR k_dotbelowcomb.ccmp
ENCODING -1
SWIDTH 493 0
DWIDTH 10 0
BBX 9 18 1 -3
BITMAP
E000
E000
E000
E000
E700
E600
EE00
FC00
F800
FC00
EC00
EE00
E600
E700
E380
0000
1800
1800
ENDCHAR
STARTCHAR L_dotbelowcomb.ccmp
ENCODING -1
SWIDTH 508 0
DWIDTH 10 0
BBX 9 17 1 -3
BITMAP
E000
E000
E000
E000
E000
E000
E000
E000
E000
E000
E000
E000
FF80
FF80
0000
1C00
1C00
ENDCHAR
STARTCHAR l_dotbelowcomb.ccmp
ENCODING -1
SWIDTH 248 0
DWIDTH 5 0
BBX 3 18 1 -3
BITMAP
E0
E0
E0
E0
E0
E0
E0
E0
E0
E0
E0
E0
E0
E0
E0
00
E0
E0
ENDCHAR
STARTCHAR M_dotbelowcomb.ccmp
ENCODING -1
SWIDTH 815 0
DWIDTH 16 0
BBX 14 17 1 -3
BITMAP
F01C
F03C
F03C
F83C
F86C
F86C
EC6C
ECCC
ECCC
E6CC
E78C
E78C
E38C
E30C
0000
0300
0300
ENDCHAR
STARTCHAR m_dotbelowcomb.ccmp
ENCODING -1
SWIDTH 809 0
DWIDTH 16 0
BBX 14 14 1 -3
BITMAP
DE78
FFFC
E39C
E30C
E30C
E30C
E30C
E30C
E30C
E30C
E30C
0000
0300
0300
ENDCHAR
STARTCHAR N_dotbelowcomb.ccmp
ENCODING -1
SWIDTH 662 0
DWIDTH 13 0
BBX 11 17 1 -3
BITMAP
E0E0
F0E0
F0E0
F8E0
F8E0
ECE0
EEE0
E6E0
E7E0
E3E0
E3E0
E1E0
E0E0
E0E0
0000
0E00
0E00
ENDCHAR
STARTCHAR n_dotbelowcomb.ccmp
ENCODING -1
SWIDTH 522 0
DWIDTH 10 0
BBX 8 14 1 -3
BITMAP
DE
FF
E3
C3
C3
C3
C3
C3
C3
C3
C3
00
18
18
ENDCHAR
STARTCHAR O_tildecomb_acutecomb.ccmp
ENCODING -1
SWIDTH 645 0
DWIDTH 13 0
BBX 11 19 1 0
BITMAP
0600
0400
1900
1700
0000
1F00
3F80
71C0
E0C0
E0E0
C0E0
C0E0
C0E0
C0E0
E0E0
E0C0
71C0
3F80
1F00
ENDCHAR
STARTCHAR P_acutecomb.ccmp
ENCODING -1
SWIDTH 600 0
DWIDTH 12 0
BBX 10 18 1 0
BITMAP
0600
0E00
0C00
0000
FF00
FF80
E1C0
E0C0
E0C0
E0C0
E1C0
FF80
FF00
E000
E000
E000
E000
E000
ENDCHAR
STARTCHAR p_acutecomb.ccmp
ENCODING -1
SWIDTH 528 0
DWIDTH 11 0
BBX 9 19 1 -4
BITMAP
0700
0600
0C00
0000
DE00
FF00
E300
E380
E380
E380
E380
E380
E300
FF00
FE00
E000
E000
E000
E000
ENDCHAR
STARTCHAR R_dotbelowcomb.ccmp
ENCODING -1
SWIDTH 586 0
DWIDTH 12 0
BBX 10 17 1 -3
BITMAP
FF00
FF80
E180
E1C0
E1C0
E1C0
E180
FF80
FE00
E700
E380
E380
E1C0
E0C0
0000
1C00
1C00
ENDCHAR
STARTCHAR r_dotbelowcomb.ccmp
ENCODING -1
SWIDTH 336 0
DWIDTH 7 0
BBX 5 14 1 -3
BITMAP
D8
F8
E0
E0
E0
E0
E0
E0
E0
E0
E0
00
E0
E0
ENDCHAR
STARTCHAR S_dotbelowcomb.ccmp
ENCODING -1
SWIDTH 567 0
DWIDTH 11 0
BBX 10 17 1 -3
BITMAP
3E00
7F80
E180
E1C0
E000
7000
3E00
0F00
0380
C1C0
C1C0
E180
7F80
1E00
0000
0C00
0C00
ENDCHAR
STARTCHAR s_dotbelowcomb.ccmp
ENCODING -1
SWIDTH 484 0
DWIDTH 10 0
BBX 8 14 1 -3
BITMAP
3C
7E
C7
C0
F0
7E
0F
07
C7
FE
3C
00
18
18
ENDCHAR
STARTCHAR T_dotbelowcomb.ccmp
ENCODING -1
SWIDTH 570 0
DWIDTH 11 0
BBX 11 17 0 -3
BITMAP
FFE0
FFE0
0E00
0E00
0E00
0E00
0E00
0E00
0E00
0E00
0E00
0E00
0E00
0E00
0000
0600
0E00
ENDCHAR
STARTCHAR t_dotbelowcomb.ccmp
ENCODING -1
SWIDTH 317 0
DWIDTH 6 0
BBX 6 16 0 -3
BITMAP
30
30
FC
FC
30
30
30
30
30
30
30
3C
1C
00
18
18
ENDCHAR
STARTCHAR U_tildecomb_acutecomb.ccmp
ENCODING -1
SWIDTH 610 0
DWIDTH 12 0
BBX 10 19 1 0
BITMAP
0600
0400
1B00
3600
0000
E0C0
E0C0
E0C0
E0C0
E0C0
E0C0
E0C0
E0C0
E0C0
E0C0
E0C0
61C0
7F80
1F00
ENDCHAR
STARTCHAR V_tildecomb.ccmp
ENCODING -1
SWIDTH 607 0
DWIDTH 12 0
BBX 12 18 0 0
BITMAP
0C80
1F80
1380
0000
E070
6060
7060
70E0
30C0
30C0
39C0
1980
1980
1F80
0F00
0F00
0F00
0600
ENDCHAR
STARTCHAR v_tildecomb.ccmp
ENCODING -1
SWIDTH 467 0
DWIDTH 9 0
BBX 9 16 0 0
BITMAP
3100
3F00
6600
0000
0000
E180
6380
6300
7300
3300
3600
3600
1E00
1C00
1C00
1C00
ENDCHAR
STARTCHAR V_dotbelowcomb.ccmp
ENCODING -1
SWIDTH 607 0
DWIDTH 12 0
BBX 12 17 0 -3
BITMAP
E070
6060
7060
70E0
30C0
30C0
39C0
1980
1980
1F80
0F00
0F00
0F00
0600
0000
0600
0600
ENDCHAR
STARTCHAR v_dotbelowcomb.ccmp
ENCODING -1
SWIDTH 467 0
DWIDTH 9 0
BBX 9 14 0 -3
BITMAP
E180
6380
6300
7300
3300
3600
3600
1E00
1C00
1C00
1C00
0000
0C00
1C00
ENDCHAR
STARTCHAR W_dotbelowcomb.ccmp
ENCODING -1
SWIDTH 817 0
DWIDTH 16 0
BBX 15 17 1 -3
BITMAP
C30E
C38E
C38C
E78C
E78C
66CC
66DC
6CD8
7CD8
3C58
3C78
3870
3870
3830
0000
0300
0380
ENDCHAR
STARTCHAR w_dotbelowcomb.ccmp
ENCODING -1
SWIDTH 691 0
DWIDTH 14 0
BBX 13 14 0 -3
BITMAP
E318
6318
6718
67B8
77B0
35B0
3CB0
3CF0
3CE0
18E0
1860
0000
0300
0300
ENDCHAR
STARTCHAR Z_dotbelowcomb.ccmp
ENCODING -1
SWIDTH 564 0
DWIDTH 11 0
BBX 10 17 1 -3
BITMAP
FF80
FF80
0380
0300
0600
0E00
0C00
1C00
3800
3000
7000
E000
FFC0
FFC0
0000
0C00
1C00
ENDCHAR
STARTCHAR z_dotbelowcomb.ccmp
ENCODING -1
SWIDTH 474 0
DWIDTH 10 0
BBX 8 14 1 -3
BITMAP
FF
FF
0E
0C
1C
38
30
70
E0
FF
FF
00
18
38
ENDCHAR
STARTCHAR Alphatonos.c2sc
ENCODING -1
SWIDTH 543 0
DWIDTH 11 0
BBX 11 13 0 0
BITMAP
6000
4000
CE00
0E00
1E00
1B00
1B00
3380
3180
7F80
7FC0
60C0
E0E0
ENDCHAR
STARTCHAR Epsilontonos.c2sc
ENCODING -1
SWIDTH 484 0
DWIDTH 10 0
BBX 10 13 -1 0
BITMAP
C000
C000
9FC0
1FC0
1800
1800
1F80
1F80
1800
1800
1800
1FC0
1FC0
ENDCHAR
STARTCHAR Etatonos.c2sc
ENCODING -1
SWIDTH 598 0
DWIDTH 12 0
BBX 12 13 -1 0
BITMAP
C000
C000
9830
1830
1830
1830
1830
1FF0
1FF0
1830
1830
1830
1830
ENDCHAR
STARTCHAR Iotatonos.c2sc
ENCODING -1
SWIDTH 270 0
DWIDTH 5 0
BBX 5 13 -1 0
BITMAP
C0
C0
98
18
18
18
18
18
18
18
18
18
18
ENDCHAR
STARTCHAR Omicrontonos.c2sc
ENCODING -1
SWIDTH 561 0
DWIDTH 11 0
BBX 11 13 -1 0
BITMAP
6000
C000
CF80
1FC0
38E0
3060
3060
3060
3060
3060
38E0
1FC0
0F80
ENDCHAR
STARTCHAR Upsilontonos.c2sc
ENCODING -1
SWIDTH 528 0
DWIDTH 11 0
BBX 12 13 -2 0
BITMAP
E000
C000
DC30
0C70
0C60
06E0
06C0
03C0
0380
0380
0380
0380
0380
ENDCHAR
STARTCHAR Omegatonos.c2sc
ENCODING -1
SWIDTH 575 0
DWIDTH 12 0
BBX 12 13 -1 0
BITMAP
6000
C000
CF80
1FC0
38E0
3860
3070
3070
3060
1860
18C0
3DF0
3DF0
ENDCHAR
STARTCHAR Alpha.c2sc
ENCODING -1
SWIDTH 543 0
DWIDTH 11 0
BBX 11 11 0 0
BITMAP
0E00
0E00
1E00
1B00
1B00
3380
3180
7F80
7FC0
60C0
E0E0
ENDCHAR
STARTCHAR Beta.c2sc
ENCODING -1
SWIDTH 515 0
DWIDTH 10 0
BBX 8 11 1 0
BITMAP
FE
FF
C3
C3
FF
FE
C3
C3
C3
FF
FE
ENDCHAR
STARTCHAR Epsilon.c2sc
ENCODING -1
SWIDTH 455 0
DWIDTH 9 0
BBX 8 11 1 0
BITMAP
FF
FF
C0
C0
FE
FE
C0
C0
C0
FF
FF
ENDCHAR
STARTCHAR Zeta.c2sc
ENCODING -1
SWIDTH 489 0
DWIDTH 10 0
BBX 8 11 1 0
BITMAP
FF
FF
06
0E
1C
18
30
70
E0
FF
FF
ENDCHAR
STARTCHAR Eta.c2sc
ENCODING -1
SWIDTH 569 0
DWIDTH 11 0
BBX 9 11 1 0
BITMAP
C180
C180
C180
C180
C180
FF80
FF80
C180
C180
C180
C180
ENDCHAR
STARTCHAR Iota.c2sc
ENCODING -1
SWIDTH 240 0
DWIDTH 5 0
BBX 3 11 1 0
BITMAP
E0
E0
E0
E0
E0
E0
E0
E0
E0
E0
E0
ENDCHAR
STARTCHAR Kappa.c2sc
ENCODING -1
SWIDTH 511 0
DWIDTH 10 0
BBX 9 11 1 0
BITMAP
C380
C700
CE00
DC00
D800
FC00
FC00
EE00
C700
C300
C380
ENDCHAR
STARTCHAR Mu.c2sc
ENCODING -1
SWIDTH 703 0
DWIDTH 14 0
BBX 12 11 1 0
BITMAP
E070
F0F0
F0F0
F0F0
D9B0
D9B0
CDB0
CF30
CF30
C630
C630
ENDCHAR
STARTCHAR Nu.c2sc
ENCODING -1
SWIDTH 568 0
DWIDTH 11 0
BBX 9 11 1 0
BITMAP
E180
E180
F180
F980
D980
CD80
CD80
C780
C780
C380
C180
ENDCHAR
STARTCHAR Omicron.c2sc
ENCODING -1
SWIDTH 556 0
DWIDTH 11 0
BBX 9 11 1 0
BITMAP
3E00
7F00
E380
C180
C180
C180
C180
C180
E380
7F00
3E00
ENDCHAR
STARTCHAR Rho.c2sc
ENCODING -1
SWIDTH 520 0
DWIDTH 10 0
BBX 9 11 1 0
BITMAP
FE00
FF00
C380
C380
C380
FF00
FE00
C000
C000
C000
C000
ENDCHAR
STARTCHAR Tau.c2sc
ENCODING -1
SWIDTH 499 0
DWIDTH 10 0
BBX 10 11 0 0
BITMAP
FFC0
FFC0
0C00
0C00
0C00
0C00
0C00
0C00
0C00
0C00
0C00
ENDCHAR
STARTCHAR Upsilon.c2sc
ENCODING -1
SWIDTH 499 0
DWIDTH 10 0
BBX 10 11 0 0
BITMAP
E1C0
6180
7380
3300
3E00
1E00
0C00
0C00
0C00
0C00
0C00
ENDCHAR
STARTCHAR Chi.c2sc
ENCODING -1
SWIDTH 513 0
DWIDTH 10 0
BBX 9 11 1 0
BITMAP
C380
E700
6600
7E00
3C00
1C00
3C00
7E00
6600
E700
C380
ENDCHAR
STARTCHAR Iotadieresis.c2sc
ENCODING -1
SWIDTH 240 0
DWIDTH 5 0
BBX 7 14 -1 0
BITMAP
C6
C6
00
38
38
38
38
38
38
38
38
38
38
38
ENDCHAR
STARTCHAR Upsilondieresis.c2sc
ENCODING -1
SWIDTH 499 0
DWIDTH 10 0
BBX 10 14 0 0
BITMAP
3300
3300
0000
E1C0
6180
7380
3300
3E00
1E00
0C00
0C00
0C00
0C00
0C00
ENDCHAR
STARTCHAR uni0401.c2sc
ENCODING -1
SWIDTH 455 0
DWIDTH 9 0
BBX 8 14 1 0
BITMAP
66
66
00
FF
FF
C0
C0
FE
FE
C0
C0
C0
FF
FF
ENDCHAR
STARTCHAR uni0403.c2sc
ENCODING -1
SWIDTH 439 0
DWIDTH 9 0
BBX 7 15 1 0
BITMAP
0E
0C
18
00
FE
FE
C0
C0
C0
C0
C0
C0
C0
C0
C0
ENDCHAR
STARTCHAR uni0405.c2sc
ENCODING -1
SWIDTH 496 0
DWIDTH 10 0
BBX 8 11 1 0
BITMAP
3C
FE
C7
C3
F0
3E
0F
C3
C3
FF
3E
ENDCHAR
STARTCHAR uni0406.c2sc
ENCODING -1
SWIDTH 240 0
DWIDTH 5 0
BBX 3 11 1 0
BITMAP
E0
E0
E0
E0
E0
E0
E0
E0
E0
E0
E0
ENDCHAR
STARTCHAR uni0407.c2sc
ENCODING -1
SWIDTH 240 0
DWIDTH 5 0
BBX 7 14 -1 0
BITMAP
C6
C6
00
38
38
38
38
38
38
38
38
38
38
38
ENDCHAR
STARTCHAR uni0408.c2sc
ENCODING -1
SWIDTH 451 0
DWIDTH 9 0
BBX 8 11 0 0
BITMAP
03
03
03
03
03
03
03
E3
67
7E
3C
ENDCHAR
STARTCHAR uni040C.c2sc
ENCODING -1
SWIDTH 511 0
DWIDTH 10 0
BBX 9 15 1 0
BITMAP
0E00
1C00
1800
0000
C380
C700
CE00
DC00
D800
FC00
FC00
EE00
C700
C300
C380
ENDCHAR
STARTCHAR uni040E.c2sc
ENCODING -1
SWIDTH 506 0
DWIDTH 10 0
BBX 9 15 1 0
BITMAP
6200
7600
3C00
0000
C380
E300
6700
6600
7600
3E00
3C00
1C00
1800
7800
7000
ENDCHAR
STARTCHAR uni0410.c2sc
ENCODING -1
SWIDTH 543 0
DWIDTH 11 0
BBX 11 11 0 0
BITMAP
0E00
0E00
1E00
1B00
1B00
3380
3180
7F80
7FC0
60C0
E0E0
ENDCHAR
STARTCHAR uni0412.c2sc
ENCODING -1
SWIDTH 515 0
DWIDTH 10 0
BBX 8 11 1 0
BITMAP
FE
FF
C3
C3
FF
FE
C3
C3
C3
FF
FE
ENDCHAR
STARTCHAR uni0413.c2sc
ENCODING -1
SWIDTH 439 0
DWIDTH 9 0
BBX 7 11 1 0
BITMAP
FE
FE
C0
C0
C0
C0
C0
C0
C0
C0
C0
ENDCHAR
STARTCHAR uni0415.c2sc
ENCODING -1
SWIDTH 455 0
DWIDTH 9 0
BBX 8 11 1 0
BITMAP
FF
FF
C0
C0
FE
FE
C0
C0
C0
FF
FF
ENDCHAR
STARTCHAR uni0419.c2sc
ENCODING -1
SWIDTH 571 0
DWIDTH 11 0
BBX 9 15 1 0
BITMAP
2300
3700
1E00
0000
C180
C380
C780
C780
CD80
CD80
D980
F980
F180
E180
E180
ENDCHAR
STARTCHAR uni041C.c2sc
ENCODING -1
SWIDTH 703 0
DWIDTH 14 0
BBX 12 11 1 0
BITMAP
E070
F0F0
F0F0
F0F0
D9B0
D9B0
CDB0
CF30
CF30
C630
C630
ENDCHAR
STARTCHAR uni041D.c2sc
ENCODING -1
SWIDTH 569 0
DWIDTH 11 0
BBX 9 11 1 0
BITMAP
C180
C180
C180
C180
C180
FF80
FF80
C180
C180
C180
C180
ENDCHAR
STARTCHAR uni041E.c2sc
ENCODING -1
SWIDTH 556 0
DWIDTH 11 0
BBX 9 11 1 0
BITMAP
3E00
7F00
E380
C180
C180
C180
C180
C180
E380
7F00
3E00
ENDCHAR
STARTCHAR uni041F.c2sc
ENCODING -1
SWIDTH 568 0
DWIDTH 11 0
BBX 9 11 1 0
BITMAP
FF80
FF80
C180
C180
C180
C180
C180
C180
C180
C180
C180
ENDCHAR
STARTCHAR uni0420.c2sc
ENCODING -1
SWIDTH 520 0
DWIDTH 10 0
BBX 9 11 1 0
BITMAP
FE00
FF00
C380
C380
C380
FF00
FE00
C000
C000
C000
C000
ENDCHAR
STARTCHAR uni0421.c2sc
ENCODING -1
SWIDTH 527 0
DWIDTH 11 0
BBX 9 11 1 0
BITMAP
3E00
7F00
E380
C180
C000
C000
C000
C180
E380
7F00
3E00
ENDCHAR
STARTCHAR uni0422.c2sc
ENCODING -1
SWIDTH 499 0
DWIDTH 10 0
BBX 10 11 0 0
BITMAP
FFC0
FFC0
0C00
0C00
0C00
0C00
0C00
0C00
0C00
0C00
0C00
ENDCHAR
STARTCHAR uni0425.c2sc
ENCODING -1
SWIDTH 513 0
DWIDTH 10 0
BBX 9 11 1 0
BITMAP
C380
E700
6600
7E00
3C00
1C00
3C00
7E00
6600
E700
C380
ENDCHAR
STARTCHAR uni0498.c2sc
ENCODING -1
SWIDTH 501 0
DWIDTH 10 0
BBX 8 15 1 -4
BITMAP
7C
FF
C7
03
1E
1E
07
03
C3
FF
7C
18
18
18
18
ENDCHAR
STARTCHAR uni04A2.c2sc
ENCODING -1
SWIDTH 569 0
DWIDTH 11 0
BBX 11 15 1 -4
BITMAP
C180
C180
C180
C180
FF80
FF80
C180
C180
C180
C1E0
C1E0
0060
0060
0060
0060
ENDCHAR
STARTCHAR uni04AA.c2sc
ENCODING -1
SWIDTH 527 0
DWIDTH 11 0
BBX 9 15 1 -4
BITMAP
3E00
7F00
E380
C180
C000
C000
C000
C180
E380
7F00
3E00
1C00
1C00
1C00
1C00
ENDCHAR
STARTCHAR uni04AE.c2sc
ENCODING -1
SWIDTH 499 0
DWIDTH 10 0
BBX 10 11 0 0
BITMAP
E1C0
6180
7380
3300
3E00
1E00
0C00
0C00
0C00
0C00
0C00
ENDCHAR
STARTCHAR uni04BE.c2sc
ENCODING -1
SWIDTH 706 0
DWIDTH 14 0
BBX 13 15 0 -4
BITMAP
03E0
07F0
CE38
CC18
7FF8
3FF8
0C00
0C00
0E10
07F0
03F0
00C0
00C0
00C0
00C0
ENDCHAR
STARTCHAR uni04E2.c2sc
ENCODING -1
SWIDTH 571 0
DWIDTH 11 0
BBX 9 15 1 0
BITMAP
3F00
3F00
0000
0000
C180
C380
C780
C780
CD80
CD80
D980
F980
F180
E180
E180
ENDCHAR
STARTCHAR uni04EE.c2sc
ENCODING -1
SWIDTH 506 0
DWIDTH 10 0
BBX 9 15 1 0
BITMAP
7E00
7E00
0000
0000
C380
E300
6700
6600
7600
3E00
3C00
1C00
1800
7800
7000
ENDCHAR
STARTCHAR uni0424.c2sc
ENCODING -1
SWIDTH 662 0
DWIDTH 13 0
BBX 11 11 1 0
BITMAP
0E00
3F80
7FC0
EEE0
CE60
CE60
CE60
EEE0
7FC0
3F80
0E00
ENDCHAR
STARTCHAR IJ.c2sc
ENCODING -1
SWIDTH 692 0
DWIDTH 14 0
BBX 12 11 1 0
BITMAP
E070
E070
E070
E070
E070
E070
E070
EE70
EE70
E7E0
E3C0
ENDCHAR
STARTCHAR AEacute.c2sc
ENCODING -1
SWIDTH 732 0
DWIDTH 15 0
BBX 14 15 0 0
BITMAP
00E0
00C0
0180
0000
07FC
07FC
0D80
0D80
19F8
19F8
3180
3F80
7F80
61FC
E1FC
ENDCHAR
STARTCHAR Oslashacute.c2sc
ENCODING -1
SWIDTH 556 0
DWIDTH 11 0
BBX 9 16 1 -1
BITMAP
0600
0E00
0C00
0180
3F00
7F00
E380
C780
CD80
C980
D980
D180
E380
7F00
7E00
C000
ENDCHAR
STARTCHAR uni0218.c2sc
ENCODING -1
SWIDTH 496 0
DWIDTH 10 0
BBX 8 16 1 -5
BITMAP
3C
FE
C7
C3
F0
3E
0F
C3
C3
FF
3E
00
18
18
18
10
ENDCHAR
STARTCHAR Wgrave.c2sc
ENCODING -1
SWIDTH 701 0
DWIDTH 14 0
BBX 13 15 1 0
BITMAP
1C00
0C00
0600
0000
C638
C630
CF30
CF30
EF30
6D60
69E0
79E0
79E0
38C0
30C0
ENDCHAR
STARTCHAR Wacute.c2sc
ENCODING -1
SWIDTH 701 0
DWIDTH 14 0
BBX 13 15 1 0
BITMAP
0380
0300
0600
0000
C638
C630
CF30
CF30
EF30
6D60
69E0
79E0
79E0
38C0
30C0
ENDCHAR
STARTCHAR Wdieresis.c2sc
ENCODING -1
SWIDTH 701 0
DWIDTH 14 0
BBX 13 14 1 0
BITMAP
1980
1980
0000
C638
C630
CF30
CF30
EF30
6D60
69E0
79E0
79E0
38C0
30C0
ENDCHAR
STARTCHAR Ygrave.c2sc
ENCODING -1
SWIDTH 499 0
DWIDTH 10 0
BBX 10 15 0 0
BITMAP
3800
1800
0C00
0000
E1C0
6180
7380
3300
3E00
1E00
0C00
0C00
0C00
0C00
0C00
ENDCHAR
STARTCHAR Aogonek.locl
ENCODING -1
SWIDTH 625 0
DWIDTH 13 0
BBX 12 18 0 -4
BITMAP
0700
0700
0F00
0F80
0D80
1980
19C0
18C0
38C0
3FE0
7FE0
7060
6070
E630
0C00
0C00
0E00
0600
ENDCHAR
STARTCHAR aogonek.locl
ENCODING -1
SWIDTH 506 0
DWIDTH 10 0
BBX 8 16 1 -5
BITMAP
3C
7E
E7
03
3F
73
C3
C3
C7
FF
7B
30
60
60
70
30
ENDCHAR
STARTCHAR Eogonek.locl
ENCODING -1
SWIDTH 529 0
DWIDTH 11 0
BBX 9 19 1 -5
BITMAP
FF80
FF80
E000
E000
E000
E000
FF00
FF00
E000
E000
E000
E000
FF80
FF80
0800
1800
3000
3C00
1C00
ENDCHAR
STARTCHAR eogonek.locl
ENCODING -1
SWIDTH 504 0
DWIDTH 10 0
BBX 8 16 1 -5
BITMAP
3C
7F
E3
C3
FF
FF
C0
C0
E1
7F
3E
18
30
30
38
38
ENDCHAR
STARTCHAR Aogonek.c2sc.locl
ENCODING -1
SWIDTH 543 0
DWIDTH 11 0
BBX 11 15 0 -4
BITMAP
0E00
0E00
1E00
1B00
1B00
3380
3180
7F80
7FC0
60C0
ECE0
1800
1800
1C00
0C00
ENDCHAR
STARTCHAR Eogonek.c2sc.locl
ENCODING -1
SWIDTH 455 0
DWIDTH 9 0
BBX 8 15 1 -4
BITMAP
FF
FF
C0
C0
FE
FE
C0
C0
C0
FF
FF
30
20
38
38
ENDCHAR
STARTCHAR glyph1320
ENCODING -1
SWIDTH 255 0
DWIDTH 5 0
BBX 3 14 1 -3
BITMAP
E0
E0
E0
E0
E0
E0
E0
E0
E0
E0
E0
00
E0
E0
ENDCHAR
ENDFONT
